<?xml version="1.0" encoding="utf-8"?>
<!-- Generator: Adobe Illustrator 21.1.0, SVG Export Plug-In . SVG Version: 6.00 Build 0)  -->
<svg version="1.1" id="Layer_1" xmlns="http://www.w3.org/2000/svg" xmlns:xlink="http://www.w3.org/1999/xlink" x="0px" y="0px"
	 viewBox="0 0 595.3 841.9" style="enable-background:new 0 0 595.3 841.9;" xml:space="preserve">
<style type="text/css">
	.st0{opacity:0.5;}
	.st1{opacity:0;}
	.st2{fill:#3DB873;}
	.st3{opacity:8.264462e-03;}
	.st4{opacity:1.652892e-02;}
	.st5{opacity:2.479339e-02;}
	.st6{opacity:3.305785e-02;}
	.st7{opacity:4.132231e-02;}
	.st8{opacity:4.958678e-02;}
	.st9{opacity:5.785124e-02;}
	.st10{opacity:6.611570e-02;}
	.st11{opacity:7.438017e-02;}
	.st12{opacity:8.264463e-02;}
	.st13{opacity:9.090909e-02;}
	.st14{opacity:9.917355e-02;}
	.st15{opacity:0.1074;}
	.st16{opacity:0.1157;}
	.st17{opacity:0.124;}
	.st18{opacity:0.1322;}
	.st19{opacity:0.1405;}
	.st20{opacity:0.1488;}
	.st21{opacity:0.157;}
	.st22{opacity:0.1653;}
	.st23{opacity:0.1736;}
	.st24{opacity:0.1818;}
	.st25{opacity:0.1901;}
	.st26{opacity:0.1983;}
	.st27{opacity:0.2066;}
	.st28{opacity:0.2149;}
	.st29{opacity:0.2231;}
	.st30{opacity:0.2314;}
	.st31{opacity:0.2397;}
	.st32{opacity:0.2479;}
	.st33{opacity:0.2562;}
	.st34{opacity:0.2645;}
	.st35{opacity:0.2727;}
	.st36{opacity:0.281;}
	.st37{opacity:0.2893;}
	.st38{opacity:0.2975;}
	.st39{opacity:0.3058;}
	.st40{opacity:0.314;}
	.st41{opacity:0.3223;}
	.st42{opacity:0.3306;}
	.st43{opacity:0.3388;}
	.st44{opacity:0.3471;}
	.st45{opacity:0.3554;}
	.st46{opacity:0.3636;}
	.st47{opacity:0.3719;}
	.st48{opacity:0.3802;}
	.st49{opacity:0.3884;}
	.st50{opacity:0.3967;}
	.st51{opacity:0.405;}
	.st52{opacity:0.4132;}
	.st53{opacity:0.4215;}
	.st54{opacity:0.4298;}
	.st55{opacity:0.438;}
	.st56{opacity:0.4463;}
	.st57{opacity:0.4545;}
	.st58{opacity:0.4628;}
	.st59{opacity:0.4711;}
	.st60{opacity:0.4793;}
	.st61{opacity:0.4876;}
	.st62{opacity:0.4959;}
	.st63{opacity:0.5041;}
	.st64{opacity:0.5124;}
	.st65{opacity:0.5207;}
	.st66{opacity:0.5289;}
	.st67{opacity:0.5372;}
	.st68{opacity:0.5455;}
	.st69{opacity:0.5537;}
	.st70{opacity:0.562;}
	.st71{opacity:0.5702;}
	.st72{opacity:0.5785;}
	.st73{opacity:0.5868;}
	.st74{opacity:0.595;}
	.st75{opacity:0.6033;}
	.st76{opacity:0.6116;}
	.st77{opacity:0.6198;}
	.st78{opacity:0.6281;}
	.st79{opacity:0.6364;}
	.st80{opacity:0.6446;}
	.st81{opacity:0.6529;}
	.st82{opacity:0.6612;}
	.st83{opacity:0.6694;}
	.st84{opacity:0.6777;}
	.st85{opacity:0.686;}
	.st86{opacity:0.6942;}
	.st87{opacity:0.7025;}
	.st88{opacity:0.7107;}
	.st89{opacity:0.719;}
	.st90{opacity:0.7273;}
	.st91{opacity:0.7355;}
	.st92{opacity:0.7438;}
	.st93{opacity:0.7521;}
	.st94{opacity:0.7603;}
	.st95{opacity:0.7686;}
	.st96{opacity:0.7769;}
	.st97{opacity:0.7851;}
	.st98{opacity:0.7934;}
	.st99{opacity:0.8017;}
	.st100{opacity:0.8099;}
	.st101{opacity:0.8182;}
	.st102{opacity:0.8264;}
	.st103{opacity:0.8347;}
	.st104{opacity:0.843;}
	.st105{opacity:0.8512;}
	.st106{opacity:0.8595;}
	.st107{opacity:0.8678;}
	.st108{opacity:0.876;}
	.st109{opacity:0.8843;}
	.st110{opacity:0.8926;}
	.st111{opacity:0.9008;}
	.st112{opacity:0.9091;}
	.st113{opacity:0.9174;}
	.st114{opacity:0.9256;}
	.st115{opacity:0.9339;}
	.st116{opacity:0.9421;}
	.st117{opacity:0.9504;}
	.st118{opacity:0.9587;}
	.st119{opacity:0.9669;}
	.st120{opacity:0.9752;}
	.st121{opacity:0.9835;}
	.st122{opacity:0.9917;}
</style>
<g>
	<g class="st0">
		<g class="st1">
			<g>
				<path class="st2" d="M249.8,606.4l43.2,25.1c2.7,1.6,6.1,1.6,8.8,0l43.6-25.2c5.9-3.4,5.9-11.8,0-15.2L302.2,566
					c-2.7-1.6-6.1-1.6-8.8,0l-43.6,25.2C244,594.5,244,603,249.8,606.4z"/>
			</g>
		</g>
		<g class="st3">
			<g>
				<path class="st2" d="M249.8,603.4l43.2,25.1c2.7,1.6,6.1,1.6,8.8,0l43.6-25.2c5.9-3.4,5.9-11.8,0-15.2L302.2,563
					c-2.7-1.6-6.1-1.6-8.8,0l-43.6,25.2C244,591.6,244,600,249.8,603.4z"/>
			</g>
		</g>
		<g class="st4">
			<g>
				<path class="st2" d="M249.8,600.5l43.2,25.1c2.7,1.6,6.1,1.6,8.8,0l43.6-25.2c5.9-3.4,5.9-11.8,0-15.2l-43.2-25.1
					c-2.7-1.6-6.1-1.6-8.8,0l-43.6,25.2C244,588.6,244,597.1,249.8,600.5z"/>
			</g>
		</g>
		<g class="st5">
			<g>
				<path class="st2" d="M249.8,597.5l43.2,25.1c2.7,1.6,6.1,1.6,8.8,0l43.6-25.2c5.9-3.4,5.9-11.8,0-15.2l-43.2-25.1
					c-2.7-1.6-6.1-1.6-8.8,0l-43.6,25.2C244,585.7,244,594.2,249.8,597.5z"/>
			</g>
		</g>
		<g class="st6">
			<g>
				<path class="st2" d="M249.8,594.6l43.2,25.1c2.7,1.6,6.1,1.6,8.8,0l43.6-25.2c5.9-3.4,5.9-11.8,0-15.2l-43.2-25.1
					c-2.7-1.6-6.1-1.6-8.8,0l-43.6,25.2C244,582.8,244,591.2,249.8,594.6z"/>
			</g>
		</g>
		<g class="st7">
			<g>
				<path class="st2" d="M249.8,591.7l43.2,25.1c2.7,1.6,6.1,1.6,8.8,0l43.6-25.2c5.9-3.4,5.9-11.8,0-15.2l-43.2-25.1
					c-2.7-1.6-6.1-1.6-8.8,0l-43.6,25.2C244,579.8,244,588.3,249.8,591.7z"/>
			</g>
		</g>
		<g class="st8">
			<g>
				<path class="st2" d="M249.8,588.7l43.2,25.1c2.7,1.6,6.1,1.6,8.8,0l43.6-25.2c5.9-3.4,5.9-11.8,0-15.2l-43.2-25.1
					c-2.7-1.6-6.1-1.6-8.8,0l-43.6,25.2C244,576.9,244,585.3,249.8,588.7z"/>
			</g>
		</g>
		<g class="st9">
			<g>
				<path class="st2" d="M249.8,585.8l43.2,25.1c2.7,1.6,6.1,1.6,8.8,0l43.6-25.2c5.9-3.4,5.9-11.8,0-15.2l-43.2-25.1
					c-2.7-1.6-6.1-1.6-8.8,0l-43.6,25.2C244,573.9,244,582.4,249.8,585.8z"/>
			</g>
		</g>
		<g class="st10">
			<g>
				<path class="st2" d="M249.8,582.8L293,608c2.7,1.6,6.1,1.6,8.8,0l43.6-25.2c5.9-3.4,5.9-11.8,0-15.2l-43.2-25.1
					c-2.7-1.6-6.1-1.6-8.8,0l-43.6,25.2C244,571,244,579.5,249.8,582.8z"/>
			</g>
		</g>
		<g class="st11">
			<g>
				<path class="st2" d="M249.8,579.9L293,605c2.7,1.6,6.1,1.6,8.8,0l43.6-25.2c5.9-3.4,5.9-11.8,0-15.2l-43.2-25.1
					c-2.7-1.6-6.1-1.6-8.8,0l-43.6,25.2C244,568.1,244,576.5,249.8,579.9z"/>
			</g>
		</g>
		<g class="st12">
			<g>
				<path class="st2" d="M249.8,577l43.2,25.1c2.7,1.6,6.1,1.6,8.8,0l43.6-25.2c5.9-3.4,5.9-11.8,0-15.2l-43.2-25.1
					c-2.7-1.6-6.1-1.6-8.8,0l-43.6,25.2C244,565.1,244,573.6,249.8,577z"/>
			</g>
		</g>
		<g class="st13">
			<g>
				<path class="st2" d="M249.8,574l43.2,25.1c2.7,1.6,6.1,1.6,8.8,0l43.6-25.2c5.9-3.4,5.9-11.8,0-15.2l-43.2-25.1
					c-2.7-1.6-6.1-1.6-8.8,0l-43.6,25.2C244,562.2,244,570.6,249.8,574z"/>
			</g>
		</g>
		<g class="st14">
			<g>
				<path class="st2" d="M249.8,571.1l43.2,25.1c2.7,1.6,6.1,1.6,8.8,0l43.6-25.2c5.9-3.4,5.9-11.8,0-15.2l-43.2-25.1
					c-2.7-1.6-6.1-1.6-8.8,0l-43.6,25.2C244,559.2,244,567.7,249.8,571.1z"/>
			</g>
		</g>
		<g class="st15">
			<g>
				<path class="st2" d="M249.8,568.2l43.2,25.1c2.7,1.6,6.1,1.6,8.8,0l43.6-25.2c5.9-3.4,5.9-11.8,0-15.2l-43.2-25.1
					c-2.7-1.6-6.1-1.6-8.8,0l-43.6,25.2C244,556.3,244,564.8,249.8,568.2z"/>
			</g>
		</g>
		<g class="st16">
			<g>
				<path class="st2" d="M249.8,565.2l43.2,25.1c2.7,1.6,6.1,1.6,8.8,0l43.6-25.2c5.9-3.4,5.9-11.8,0-15.2l-43.2-25.1
					c-2.7-1.6-6.1-1.6-8.8,0L249.8,550C244,553.4,244,561.8,249.8,565.2z"/>
			</g>
		</g>
		<g class="st17">
			<g>
				<path class="st2" d="M249.8,562.3l43.2,25.1c2.7,1.6,6.1,1.6,8.8,0l43.6-25.2c5.9-3.4,5.9-11.8,0-15.2l-43.2-25.1
					c-2.7-1.6-6.1-1.6-8.8,0L249.8,547C244,550.4,244,558.9,249.8,562.3z"/>
			</g>
		</g>
		<g class="st18">
			<g>
				<path class="st2" d="M249.8,559.3l43.2,25.1c2.7,1.6,6.1,1.6,8.8,0l43.6-25.2c5.9-3.4,5.9-11.8,0-15.2L302.2,519
					c-2.7-1.6-6.1-1.6-8.8,0l-43.6,25.2C244,547.5,244,555.9,249.8,559.3z"/>
			</g>
		</g>
		<g class="st19">
			<g>
				<path class="st2" d="M249.8,556.4l43.2,25.1c2.7,1.6,6.1,1.6,8.8,0l43.6-25.2c5.9-3.4,5.9-11.8,0-15.2L302.2,516
					c-2.7-1.6-6.1-1.6-8.8,0l-43.6,25.2C244,544.6,244,553,249.8,556.4z"/>
			</g>
		</g>
		<g class="st20">
			<g>
				<path class="st2" d="M249.8,553.5l43.2,25.1c2.7,1.6,6.1,1.6,8.8,0l43.6-25.2c5.9-3.4,5.9-11.8,0-15.2l-43.2-25.1
					c-2.7-1.6-6.1-1.6-8.8,0l-43.6,25.2C244,541.6,244,550.1,249.8,553.5z"/>
			</g>
		</g>
		<g class="st21">
			<g>
				<path class="st2" d="M249.8,550.5l43.2,25.1c2.7,1.6,6.1,1.6,8.8,0l43.6-25.2c5.9-3.4,5.9-11.8,0-15.2l-43.2-25.1
					c-2.7-1.6-6.1-1.6-8.8,0l-43.6,25.2C244,538.7,244,547.1,249.8,550.5z"/>
			</g>
		</g>
		<g class="st22">
			<g>
				<path class="st2" d="M249.8,547.6l43.2,25.1c2.7,1.6,6.1,1.6,8.8,0l43.6-25.2c5.9-3.4,5.9-11.8,0-15.2l-43.2-25.1
					c-2.7-1.6-6.1-1.6-8.8,0l-43.6,25.2C244,535.7,244,544.2,249.8,547.6z"/>
			</g>
		</g>
		<g class="st23">
			<g>
				<path class="st2" d="M249.8,544.6l43.2,25.1c2.7,1.6,6.1,1.6,8.8,0l43.6-25.2c5.9-3.4,5.9-11.8,0-15.2l-43.2-25.1
					c-2.7-1.6-6.1-1.6-8.8,0l-43.6,25.2C244,532.8,244,541.3,249.8,544.6z"/>
			</g>
		</g>
		<g class="st24">
			<g>
				<path class="st2" d="M249.8,541.7l43.2,25.1c2.7,1.6,6.1,1.6,8.8,0l43.6-25.2c5.9-3.4,5.9-11.8,0-15.2l-43.2-25.1
					c-2.7-1.6-6.1-1.6-8.8,0l-43.6,25.2C244,529.9,244,538.3,249.8,541.7z"/>
			</g>
		</g>
		<g class="st25">
			<g>
				<path class="st2" d="M249.8,538.8l43.2,25.1c2.7,1.6,6.1,1.6,8.8,0l43.6-25.2c5.9-3.4,5.9-11.8,0-15.2l-43.2-25.1
					c-2.7-1.6-6.1-1.6-8.8,0l-43.6,25.2C244,526.9,244,535.4,249.8,538.8z"/>
			</g>
		</g>
		<g class="st26">
			<g>
				<path class="st2" d="M249.8,535.8l43.2,25.1c2.7,1.6,6.1,1.6,8.8,0l43.6-25.2c5.9-3.4,5.9-11.8,0-15.2l-43.2-25.1
					c-2.7-1.6-6.1-1.6-8.8,0l-43.6,25.2C244,524,244,532.4,249.8,535.8z"/>
			</g>
		</g>
		<g class="st27">
			<g>
				<path class="st2" d="M249.8,532.9L293,558c2.7,1.6,6.1,1.6,8.8,0l43.6-25.2c5.9-3.4,5.9-11.8,0-15.2l-43.2-25.1
					c-2.7-1.6-6.1-1.6-8.8,0l-43.6,25.2C244,521,244,529.5,249.8,532.9z"/>
			</g>
		</g>
		<g class="st28">
			<g>
				<path class="st2" d="M249.8,530l43.2,25.1c2.7,1.6,6.1,1.6,8.8,0l43.6-25.2c5.9-3.4,5.9-11.8,0-15.2l-43.2-25.1
					c-2.7-1.6-6.1-1.6-8.8,0l-43.6,25.2C244,518.1,244,526.6,249.8,530z"/>
			</g>
		</g>
		<g class="st29">
			<g>
				<path class="st2" d="M249.8,527l43.2,25.1c2.7,1.6,6.1,1.6,8.8,0l43.6-25.2c5.9-3.4,5.9-11.8,0-15.2l-43.2-25.1
					c-2.7-1.6-6.1-1.6-8.8,0l-43.6,25.2C244,515.2,244,523.6,249.8,527z"/>
			</g>
		</g>
		<g class="st30">
			<g>
				<path class="st2" d="M249.8,524.1l43.2,25.1c2.7,1.6,6.1,1.6,8.8,0l43.6-25.2c5.9-3.4,5.9-11.8,0-15.2l-43.2-25.1
					c-2.7-1.6-6.1-1.6-8.8,0l-43.6,25.2C244,512.2,244,520.7,249.8,524.1z"/>
			</g>
		</g>
		<g class="st31">
			<g>
				<path class="st2" d="M249.8,521.1l43.2,25.1c2.7,1.6,6.1,1.6,8.8,0l43.6-25.2c5.9-3.4,5.9-11.8,0-15.2l-43.2-25.1
					c-2.7-1.6-6.1-1.6-8.8,0l-43.6,25.2C244,509.3,244,517.7,249.8,521.1z"/>
			</g>
		</g>
		<g class="st32">
			<g>
				<path class="st2" d="M249.8,518.2l43.2,25.1c2.7,1.6,6.1,1.6,8.8,0l43.6-25.2c5.9-3.4,5.9-11.8,0-15.2l-43.2-25.1
					c-2.7-1.6-6.1-1.6-8.8,0L249.8,503C244,506.4,244,514.8,249.8,518.2z"/>
			</g>
		</g>
		<g class="st33">
			<g>
				<path class="st2" d="M249.8,515.3l43.2,25.1c2.7,1.6,6.1,1.6,8.8,0l43.6-25.2c5.9-3.4,5.9-11.8,0-15.2l-43.2-25.1
					c-2.7-1.6-6.1-1.6-8.8,0L249.8,500C244,503.4,244,511.9,249.8,515.3z"/>
			</g>
		</g>
		<g class="st34">
			<g>
				<path class="st2" d="M249.8,512.3l43.2,25.1c2.7,1.6,6.1,1.6,8.8,0l43.6-25.2c5.9-3.4,5.9-11.8,0-15.2l-43.2-25.1
					c-2.7-1.6-6.1-1.6-8.8,0l-43.6,25.2C244,500.5,244,508.9,249.8,512.3z"/>
			</g>
		</g>
		<g class="st35">
			<g>
				<path class="st2" d="M249.8,509.4l43.2,25.1c2.7,1.6,6.1,1.6,8.8,0l43.6-25.2c5.9-3.4,5.9-11.8,0-15.2L302.2,469
					c-2.7-1.6-6.1-1.6-8.8,0l-43.6,25.2C244,497.5,244,506,249.8,509.4z"/>
			</g>
		</g>
		<g class="st36">
			<g>
				<path class="st2" d="M249.8,506.4l43.2,25.1c2.7,1.6,6.1,1.6,8.8,0l43.6-25.2c5.9-3.4,5.9-11.8,0-15.2l-43.2-25.1
					c-2.7-1.6-6.1-1.6-8.8,0l-43.6,25.2C244,494.6,244,503.1,249.8,506.4z"/>
			</g>
		</g>
		<g class="st37">
			<g>
				<path class="st2" d="M249.8,503.5l43.2,25.1c2.7,1.6,6.1,1.6,8.8,0l43.6-25.2c5.9-3.4,5.9-11.8,0-15.2l-43.2-25.1
					c-2.7-1.6-6.1-1.6-8.8,0l-43.6,25.2C244,491.7,244,500.1,249.8,503.5z"/>
			</g>
		</g>
		<g class="st38">
			<g>
				<path class="st2" d="M249.8,500.6l43.2,25.1c2.7,1.6,6.1,1.6,8.8,0l43.6-25.2c5.9-3.4,5.9-11.8,0-15.2l-43.2-25.1
					c-2.7-1.6-6.1-1.6-8.8,0l-43.6,25.2C244,488.7,244,497.2,249.8,500.6z"/>
			</g>
		</g>
		<g class="st39">
			<g>
				<path class="st2" d="M249.8,497.6l43.2,25.1c2.7,1.6,6.1,1.6,8.8,0l43.6-25.2c5.9-3.4,5.9-11.8,0-15.2l-43.2-25.1
					c-2.7-1.6-6.1-1.6-8.8,0l-43.6,25.2C244,485.8,244,494.2,249.8,497.6z"/>
			</g>
		</g>
		<g class="st40">
			<g>
				<path class="st2" d="M249.8,494.7l43.2,25.1c2.7,1.6,6.1,1.6,8.8,0l43.6-25.2c5.9-3.4,5.9-11.8,0-15.2l-43.2-25.1
					c-2.7-1.6-6.1-1.6-8.8,0l-43.6,25.2C244,482.8,244,491.3,249.8,494.7z"/>
			</g>
		</g>
		<g class="st41">
			<g>
				<path class="st2" d="M249.8,491.8l43.2,25.1c2.7,1.6,6.1,1.6,8.8,0l43.6-25.2c5.9-3.4,5.9-11.8,0-15.2l-43.2-25.1
					c-2.7-1.6-6.1-1.6-8.8,0l-43.6,25.2C244,479.9,244,488.4,249.8,491.8z"/>
			</g>
		</g>
		<g class="st42">
			<g>
				<path class="st2" d="M249.8,488.8l43.2,25.1c2.7,1.6,6.1,1.6,8.8,0l43.6-25.2c5.9-3.4,5.9-11.8,0-15.2l-43.2-25.1
					c-2.7-1.6-6.1-1.6-8.8,0l-43.6,25.2C244,477,244,485.4,249.8,488.8z"/>
			</g>
		</g>
		<g class="st43">
			<g>
				<path class="st2" d="M249.8,485.9L293,511c2.7,1.6,6.1,1.6,8.8,0l43.6-25.2c5.9-3.4,5.9-11.8,0-15.2l-43.2-25.1
					c-2.7-1.6-6.1-1.6-8.8,0l-43.6,25.2C244,474,244,482.5,249.8,485.9z"/>
			</g>
		</g>
		<g class="st44">
			<g>
				<path class="st2" d="M249.8,482.9L293,508c2.7,1.6,6.1,1.6,8.8,0l43.6-25.2c5.9-3.4,5.9-11.8,0-15.2l-43.2-25.1
					c-2.7-1.6-6.1-1.6-8.8,0l-43.6,25.2C244,471.1,244,479.5,249.8,482.9z"/>
			</g>
		</g>
		<g class="st45">
			<g>
				<path class="st2" d="M249.8,480l43.2,25.1c2.7,1.6,6.1,1.6,8.8,0l43.6-25.2c5.9-3.4,5.9-11.8,0-15.2l-43.2-25.1
					c-2.7-1.6-6.1-1.6-8.8,0l-43.6,25.2C244,468.2,244,476.6,249.8,480z"/>
			</g>
		</g>
		<g class="st46">
			<g>
				<path class="st2" d="M249.8,477.1l43.2,25.1c2.7,1.6,6.1,1.6,8.8,0l43.6-25.2c5.9-3.4,5.9-11.8,0-15.2l-43.2-25.1
					c-2.7-1.6-6.1-1.6-8.8,0l-43.6,25.2C244,465.2,244,473.7,249.8,477.1z"/>
			</g>
		</g>
		<g class="st47">
			<g>
				<path class="st2" d="M249.8,474.1l43.2,25.1c2.7,1.6,6.1,1.6,8.8,0l43.6-25.2c5.9-3.4,5.9-11.8,0-15.2l-43.2-25.1
					c-2.7-1.6-6.1-1.6-8.8,0l-43.6,25.2C244,462.3,244,470.7,249.8,474.1z"/>
			</g>
		</g>
		<g class="st48">
			<g>
				<path class="st2" d="M249.8,471.2l43.2,25.1c2.7,1.6,6.1,1.6,8.8,0l43.6-25.2c5.9-3.4,5.9-11.8,0-15.2l-43.2-25.1
					c-2.7-1.6-6.1-1.6-8.8,0l-43.6,25.2C244,459.3,244,467.8,249.8,471.2z"/>
			</g>
		</g>
		<g class="st49">
			<g>
				<path class="st2" d="M249.8,468.3l43.2,25.1c2.7,1.6,6.1,1.6,8.8,0l43.6-25.2c5.9-3.4,5.9-11.8,0-15.2l-43.2-25.1
					c-2.7-1.6-6.1-1.6-8.8,0L249.8,453C244,456.4,244,464.9,249.8,468.3z"/>
			</g>
		</g>
		<g class="st50">
			<g>
				<path class="st2" d="M249.8,465.3l43.2,25.1c2.7,1.6,6.1,1.6,8.8,0l43.6-25.2c5.9-3.4,5.9-11.8,0-15.2l-43.2-25.1
					c-2.7-1.6-6.1-1.6-8.8,0l-43.6,25.2C244,453.5,244,461.9,249.8,465.3z"/>
			</g>
		</g>
		<g class="st51">
			<g>
				<path class="st2" d="M249.8,462.4l43.2,25.1c2.7,1.6,6.1,1.6,8.8,0l43.6-25.2c5.9-3.4,5.9-11.8,0-15.2L302.2,422
					c-2.7-1.6-6.1-1.6-8.8,0l-43.6,25.2C244,450.5,244,459,249.8,462.4z"/>
			</g>
		</g>
		<g class="st52">
			<g>
				<path class="st2" d="M249.8,459.4l43.2,25.1c2.7,1.6,6.1,1.6,8.8,0l43.6-25.2c5.9-3.4,5.9-11.8,0-15.2L302.2,419
					c-2.7-1.6-6.1-1.6-8.8,0l-43.6,25.2C244,447.6,244,456,249.8,459.4z"/>
			</g>
		</g>
		<g class="st53">
			<g>
				<path class="st2" d="M249.8,456.5l43.2,25.1c2.7,1.6,6.1,1.6,8.8,0l43.6-25.2c5.9-3.4,5.9-11.8,0-15.2l-43.2-25.1
					c-2.7-1.6-6.1-1.6-8.8,0l-43.6,25.2C244,444.6,244,453.1,249.8,456.5z"/>
			</g>
		</g>
		<g class="st54">
			<g>
				<path class="st2" d="M249.8,453.6l43.2,25.1c2.7,1.6,6.1,1.6,8.8,0l43.6-25.2c5.9-3.4,5.9-11.8,0-15.2l-43.2-25.1
					c-2.7-1.6-6.1-1.6-8.8,0l-43.6,25.2C244,441.7,244,450.2,249.8,453.6z"/>
			</g>
		</g>
		<g class="st55">
			<g>
				<path class="st2" d="M249.8,450.6l43.2,25.1c2.7,1.6,6.1,1.6,8.8,0l43.6-25.2c5.9-3.4,5.9-11.8,0-15.2l-43.2-25.1
					c-2.7-1.6-6.1-1.6-8.8,0l-43.6,25.2C244,438.8,244,447.2,249.8,450.6z"/>
			</g>
		</g>
		<g class="st56">
			<g>
				<path class="st2" d="M249.8,447.7l43.2,25.1c2.7,1.6,6.1,1.6,8.8,0l43.6-25.2c5.9-3.4,5.9-11.8,0-15.2l-43.2-25.1
					c-2.7-1.6-6.1-1.6-8.8,0l-43.6,25.2C244,435.8,244,444.3,249.8,447.7z"/>
			</g>
		</g>
		<g class="st57">
			<g>
				<path class="st2" d="M249.8,444.7l43.2,25.1c2.7,1.6,6.1,1.6,8.8,0l43.6-25.2c5.9-3.4,5.9-11.8,0-15.2l-43.2-25.1
					c-2.7-1.6-6.1-1.6-8.8,0l-43.6,25.2C244,432.9,244,441.3,249.8,444.7z"/>
			</g>
		</g>
		<g class="st58">
			<g>
				<path class="st2" d="M249.8,441.8l43.2,25.1c2.7,1.6,6.1,1.6,8.8,0l43.6-25.2c5.9-3.4,5.9-11.8,0-15.2l-43.2-25.1
					c-2.7-1.6-6.1-1.6-8.8,0l-43.6,25.2C244,430,244,438.4,249.8,441.8z"/>
			</g>
		</g>
		<g class="st59">
			<g>
				<path class="st2" d="M249.8,438.9L293,464c2.7,1.6,6.1,1.6,8.8,0l43.6-25.2c5.9-3.4,5.9-11.8,0-15.2l-43.2-25.1
					c-2.7-1.6-6.1-1.6-8.8,0l-43.6,25.2C244,427,244,435.5,249.8,438.9z"/>
			</g>
		</g>
		<g class="st60">
			<g>
				<path class="st2" d="M249.8,435.9L293,461c2.7,1.6,6.1,1.6,8.8,0l43.6-25.2c5.9-3.4,5.9-11.8,0-15.2l-43.2-25.1
					c-2.7-1.6-6.1-1.6-8.8,0l-43.6,25.2C244,424.1,244,432.5,249.8,435.9z"/>
			</g>
		</g>
		<g class="st61">
			<g>
				<path class="st2" d="M249.8,433l43.2,25.1c2.7,1.6,6.1,1.6,8.8,0l43.6-25.2c5.9-3.4,5.9-11.8,0-15.2l-43.2-25.1
					c-2.7-1.6-6.1-1.6-8.8,0l-43.6,25.2C244,421.1,244,429.6,249.8,433z"/>
			</g>
		</g>
		<g class="st62">
			<g>
				<path class="st2" d="M249.8,430.1l43.2,25.1c2.7,1.6,6.1,1.6,8.8,0l43.6-25.2c5.9-3.4,5.9-11.8,0-15.2l-43.2-25.1
					c-2.7-1.6-6.1-1.6-8.8,0l-43.6,25.2C244,418.2,244,426.6,249.8,430.1z"/>
			</g>
		</g>
		<g class="st63">
			<g>
				<path class="st2" d="M249.8,427.1l43.2,25.1c2.7,1.6,6.1,1.6,8.8,0l43.6-25.2c5.9-3.4,5.9-11.8,0-15.2l-43.2-25.1
					c-2.7-1.6-6.1-1.6-8.8,0l-43.6,25.2C244,415.3,244,423.7,249.8,427.1z"/>
			</g>
		</g>
		<g class="st64">
			<g>
				<path class="st2" d="M249.8,424.2l43.2,25.1c2.7,1.6,6.1,1.6,8.8,0l43.6-25.2c5.9-3.4,5.9-11.8,0-15.2l-43.2-25.1
					c-2.7-1.6-6.1-1.6-8.8,0l-43.6,25.2C244,412.3,244,420.8,249.8,424.2z"/>
			</g>
		</g>
		<g class="st65">
			<g>
				<path class="st2" d="M249.8,421.2l43.2,25.1c2.7,1.6,6.1,1.6,8.8,0l43.6-25.2c5.9-3.4,5.9-11.8,0-15.2l-43.2-25.1
					c-2.7-1.6-6.1-1.6-8.8,0L249.8,406C244,409.4,244,417.8,249.8,421.2z"/>
			</g>
		</g>
		<g class="st66">
			<g>
				<path class="st2" d="M249.8,418.3l43.2,25.1c2.7,1.6,6.1,1.6,8.8,0l43.6-25.2c5.9-3.4,5.9-11.8,0-15.2l-43.2-25.1
					c-2.7-1.6-6.1-1.6-8.8,0l-43.6,25.2C244,406.4,244,414.9,249.8,418.3z"/>
			</g>
		</g>
		<g class="st67">
			<g>
				<path class="st2" d="M249.8,415.4l43.2,25.1c2.7,1.6,6.1,1.6,8.8,0l43.6-25.2c5.9-3.4,5.9-11.8,0-15.2L302.2,375
					c-2.7-1.6-6.1-1.6-8.8,0l-43.6,25.2C244,403.5,244,412,249.8,415.4z"/>
			</g>
		</g>
		<g class="st68">
			<g>
				<path class="st2" d="M249.8,412.4l43.2,25.1c2.7,1.6,6.1,1.6,8.8,0l43.6-25.2c5.9-3.4,5.9-11.8,0-15.2L302.2,372
					c-2.7-1.6-6.1-1.6-8.8,0l-43.6,25.2C244,400.6,244,409,249.8,412.4z"/>
			</g>
		</g>
		<g class="st69">
			<g>
				<path class="st2" d="M249.8,409.5l43.2,25.1c2.7,1.6,6.1,1.6,8.8,0l43.6-25.2c5.9-3.4,5.9-11.8,0-15.2l-43.2-25.1
					c-2.7-1.6-6.1-1.6-8.8,0l-43.6,25.2C244,397.6,244,406.1,249.8,409.5z"/>
			</g>
		</g>
		<g class="st70">
			<g>
				<path class="st2" d="M249.8,406.5l43.2,25.1c2.7,1.6,6.1,1.6,8.8,0l43.6-25.2c5.9-3.4,5.9-11.8,0-15.2l-43.2-25.1
					c-2.7-1.6-6.1-1.6-8.8,0l-43.6,25.2C244,394.7,244,403.1,249.8,406.5z"/>
			</g>
		</g>
		<g class="st71">
			<g>
				<path class="st2" d="M249.8,403.6l43.2,25.1c2.7,1.6,6.1,1.6,8.8,0l43.6-25.2c5.9-3.4,5.9-11.8,0-15.2l-43.2-25.1
					c-2.7-1.6-6.1-1.6-8.8,0l-43.6,25.2C244,391.8,244,400.2,249.8,403.6z"/>
			</g>
		</g>
		<g class="st72">
			<g>
				<path class="st2" d="M249.8,400.7l43.2,25.1c2.7,1.6,6.1,1.6,8.8,0l43.6-25.2c5.9-3.4,5.9-11.8,0-15.2l-43.2-25.1
					c-2.7-1.6-6.1-1.6-8.8,0l-43.6,25.2C244,388.8,244,397.3,249.8,400.7z"/>
			</g>
		</g>
		<g class="st73">
			<g>
				<path class="st2" d="M249.8,397.7l43.2,25.1c2.7,1.6,6.1,1.6,8.8,0l43.6-25.2c5.9-3.4,5.9-11.8,0-15.2l-43.2-25.1
					c-2.7-1.6-6.1-1.6-8.8,0l-43.6,25.2C244,385.9,244,394.3,249.8,397.7z"/>
			</g>
		</g>
		<g class="st74">
			<g>
				<path class="st2" d="M249.8,394.8l43.2,25.1c2.7,1.6,6.1,1.6,8.8,0l43.6-25.2c5.9-3.4,5.9-11.8,0-15.2l-43.2-25.1
					c-2.7-1.6-6.1-1.6-8.8,0l-43.6,25.2C244,382.9,244,391.4,249.8,394.8z"/>
			</g>
		</g>
		<g class="st75">
			<g>
				<path class="st2" d="M249.8,391.9l43.2,25.1c2.7,1.6,6.1,1.6,8.8,0l43.6-25.2c5.9-3.4,5.9-11.8,0-15.2l-43.2-25.1
					c-2.7-1.6-6.1-1.6-8.8,0l-43.6,25.2C244,380,244,388.4,249.8,391.9z"/>
			</g>
		</g>
		<g class="st76">
			<g>
				<path class="st2" d="M249.8,388.9L293,414c2.7,1.6,6.1,1.6,8.8,0l43.6-25.2c5.9-3.4,5.9-11.8,0-15.2l-43.2-25.1
					c-2.7-1.6-6.1-1.6-8.8,0l-43.6,25.2C244,377.1,244,385.5,249.8,388.9z"/>
			</g>
		</g>
		<g class="st77">
			<g>
				<path class="st2" d="M249.8,386l43.2,25.1c2.7,1.6,6.1,1.6,8.8,0l43.6-25.2c5.9-3.4,5.9-11.8,0-15.2l-43.2-25.1
					c-2.7-1.6-6.1-1.6-8.8,0l-43.6,25.2C244,374.1,244,382.6,249.8,386z"/>
			</g>
		</g>
		<g class="st78">
			<g>
				<path class="st2" d="M249.8,383l43.2,25.1c2.7,1.6,6.1,1.6,8.8,0l43.6-25.2c5.9-3.4,5.9-11.8,0-15.2l-43.2-25.1
					c-2.7-1.6-6.1-1.6-8.8,0l-43.6,25.2C244,371.2,244,379.6,249.8,383z"/>
			</g>
		</g>
		<g class="st79">
			<g>
				<path class="st2" d="M249.8,380.1l43.2,25.1c2.7,1.6,6.1,1.6,8.8,0l43.6-25.2c5.9-3.4,5.9-11.8,0-15.2l-43.2-25.1
					c-2.7-1.6-6.1-1.6-8.8,0l-43.6,25.2C244,368.2,244,376.7,249.8,380.1z"/>
			</g>
		</g>
		<g class="st80">
			<g>
				<path class="st2" d="M249.8,377.2l43.2,25.1c2.7,1.6,6.1,1.6,8.8,0l43.6-25.2c5.9-3.4,5.9-11.8,0-15.2l-43.2-25.1
					c-2.7-1.6-6.1-1.6-8.8,0l-43.6,25.2C244,365.3,244,373.8,249.8,377.2z"/>
			</g>
		</g>
		<g class="st81">
			<g>
				<path class="st2" d="M249.8,374.2l43.2,25.1c2.7,1.6,6.1,1.6,8.8,0l43.6-25.2c5.9-3.4,5.9-11.8,0-15.2l-43.2-25.1
					c-2.7-1.6-6.1-1.6-8.8,0L249.8,359C244,362.4,244,370.8,249.8,374.2z"/>
			</g>
		</g>
		<g class="st82">
			<g>
				<path class="st2" d="M249.8,371.3l43.2,25.1c2.7,1.6,6.1,1.6,8.8,0l43.6-25.2c5.9-3.4,5.9-11.8,0-15.2l-43.2-25.1
					c-2.7-1.6-6.1-1.6-8.8,0L249.8,356C244,359.4,244,367.9,249.8,371.3z"/>
			</g>
		</g>
		<g class="st83">
			<g>
				<path class="st2" d="M249.8,368.3l43.2,25.1c2.7,1.6,6.1,1.6,8.8,0l43.6-25.2c5.9-3.4,5.9-11.8,0-15.2l-43.2-25.1
					c-2.7-1.6-6.1-1.6-8.8,0l-43.6,25.2C244,356.5,244,364.9,249.8,368.3z"/>
			</g>
		</g>
		<g class="st84">
			<g>
				<path class="st2" d="M249.8,365.4l43.2,25.1c2.7,1.6,6.1,1.6,8.8,0l43.6-25.2c5.9-3.4,5.9-11.8,0-15.2L302.2,325
					c-2.7-1.6-6.1-1.6-8.8,0l-43.6,25.2C244,353.6,244,362,249.8,365.4z"/>
			</g>
		</g>
		<g class="st85">
			<g>
				<path class="st2" d="M249.8,362.5l43.2,25.1c2.7,1.6,6.1,1.6,8.8,0l43.6-25.2c5.9-3.4,5.9-11.8,0-15.2l-43.2-25.1
					c-2.7-1.6-6.1-1.6-8.8,0l-43.6,25.2C244,350.6,244,359.1,249.8,362.5z"/>
			</g>
		</g>
		<g class="st86">
			<g>
				<path class="st2" d="M249.8,359.5l43.2,25.1c2.7,1.6,6.1,1.6,8.8,0l43.6-25.2c5.9-3.4,5.9-11.8,0-15.2l-43.2-25.1
					c-2.7-1.6-6.1-1.6-8.8,0l-43.6,25.2C244,347.7,244,356.1,249.8,359.5z"/>
			</g>
		</g>
		<g class="st87">
			<g>
				<path class="st2" d="M249.8,356.6l43.2,25.1c2.7,1.6,6.1,1.6,8.8,0l43.6-25.2c5.9-3.4,5.9-11.8,0-15.2l-43.2-25.1
					c-2.7-1.6-6.1-1.6-8.8,0l-43.6,25.2C244,344.7,244,353.2,249.8,356.6z"/>
			</g>
		</g>
		<g class="st88">
			<g>
				<path class="st2" d="M249.8,353.7l43.2,25.1c2.7,1.6,6.1,1.6,8.8,0l43.6-25.2c5.9-3.4,5.9-11.8,0-15.2l-43.2-25.1
					c-2.7-1.6-6.1-1.6-8.8,0l-43.6,25.2C244,341.8,244,350.2,249.8,353.7z"/>
			</g>
		</g>
		<g class="st89">
			<g>
				<path class="st2" d="M249.8,350.7l43.2,25.1c2.7,1.6,6.1,1.6,8.8,0l43.6-25.2c5.9-3.4,5.9-11.8,0-15.2l-43.2-25.1
					c-2.7-1.6-6.1-1.6-8.8,0l-43.6,25.2C244,338.9,244,347.3,249.8,350.7z"/>
			</g>
		</g>
		<g class="st90">
			<g>
				<path class="st2" d="M249.8,347.8l43.2,25.1c2.7,1.6,6.1,1.6,8.8,0l43.6-25.2c5.9-3.4,5.9-11.8,0-15.2l-43.2-25.1
					c-2.7-1.6-6.1-1.6-8.8,0l-43.6,25.2C244,335.9,244,344.4,249.8,347.8z"/>
			</g>
		</g>
		<g class="st91">
			<g>
				<path class="st2" d="M249.8,344.8l43.2,25.1c2.7,1.6,6.1,1.6,8.8,0l43.6-25.2c5.9-3.4,5.9-11.8,0-15.2l-43.2-25.1
					c-2.7-1.6-6.1-1.6-8.8,0l-43.6,25.2C244,333,244,341.4,249.8,344.8z"/>
			</g>
		</g>
		<g class="st92">
			<g>
				<path class="st2" d="M249.8,341.9L293,367c2.7,1.6,6.1,1.6,8.8,0l43.6-25.2c5.9-3.4,5.9-11.8,0-15.2l-43.2-25.1
					c-2.7-1.6-6.1-1.6-8.8,0l-43.6,25.2C244,330,244,338.5,249.8,341.9z"/>
			</g>
		</g>
		<g class="st93">
			<g>
				<path class="st2" d="M249.8,339l43.2,25.1c2.7,1.6,6.1,1.6,8.8,0l43.6-25.2c5.9-3.4,5.9-11.8,0-15.2l-43.2-25.1
					c-2.7-1.6-6.1-1.6-8.8,0l-43.6,25.2C244,327.1,244,335.6,249.8,339z"/>
			</g>
		</g>
		<g class="st94">
			<g>
				<path class="st2" d="M249.8,336l43.2,25.1c2.7,1.6,6.1,1.6,8.8,0l43.6-25.2c5.9-3.4,5.9-11.8,0-15.2l-43.2-25.1
					c-2.7-1.6-6.1-1.6-8.8,0l-43.6,25.2C244,324.2,244,332.6,249.8,336z"/>
			</g>
		</g>
		<g class="st95">
			<g>
				<path class="st2" d="M249.8,333.1l43.2,25.1c2.7,1.6,6.1,1.6,8.8,0l43.6-25.2c5.9-3.4,5.9-11.8,0-15.2l-43.2-25.1
					c-2.7-1.6-6.1-1.6-8.8,0l-43.6,25.2C244,321.2,244,329.7,249.8,333.1z"/>
			</g>
		</g>
		<g class="st96">
			<g>
				<path class="st2" d="M249.8,330.1l43.2,25.1c2.7,1.6,6.1,1.6,8.8,0l43.6-25.2c5.9-3.4,5.9-11.8,0-15.2l-43.2-25.1
					c-2.7-1.6-6.1-1.6-8.8,0l-43.6,25.2C244,318.3,244,326.7,249.8,330.1z"/>
			</g>
		</g>
		<g class="st97">
			<g>
				<path class="st2" d="M249.8,327.2l43.2,25.1c2.7,1.6,6.1,1.6,8.8,0l43.6-25.2c5.9-3.4,5.9-11.8,0-15.2l-43.2-25.1
					c-2.7-1.6-6.1-1.6-8.8,0L249.8,312C244,315.4,244,323.8,249.8,327.2z"/>
			</g>
		</g>
		<g class="st98">
			<g>
				<path class="st2" d="M249.8,324.3l43.2,25.1c2.7,1.6,6.1,1.6,8.8,0l43.6-25.2c5.9-3.4,5.9-11.8,0-15.2l-43.2-25.1
					c-2.7-1.6-6.1-1.6-8.8,0L249.8,309C244,312.4,244,320.9,249.8,324.3z"/>
			</g>
		</g>
		<g class="st99">
			<g>
				<path class="st2" d="M249.8,321.3l43.2,25.1c2.7,1.6,6.1,1.6,8.8,0l43.6-25.2c5.9-3.4,5.9-11.8,0-15.2l-43.2-25.1
					c-2.7-1.6-6.1-1.6-8.8,0l-43.6,25.2C244,309.5,244,317.9,249.8,321.3z"/>
			</g>
		</g>
		<g class="st100">
			<g>
				<path class="st2" d="M249.8,318.4l43.2,25.1c2.7,1.6,6.1,1.6,8.8,0l43.6-25.2c5.9-3.4,5.9-11.8,0-15.2L302.2,278
					c-2.7-1.6-6.1-1.6-8.8,0l-43.6,25.2C244,306.5,244,315,249.8,318.4z"/>
			</g>
		</g>
		<g class="st101">
			<g>
				<path class="st2" d="M249.8,315.5l43.2,25.1c2.7,1.6,6.1,1.6,8.8,0l43.6-25.2c5.9-3.4,5.9-11.8,0-15.2l-43.2-25.1
					c-2.7-1.6-6.1-1.6-8.8,0l-43.6,25.2C244,303.6,244,312,249.8,315.5z"/>
			</g>
		</g>
		<g class="st102">
			<g>
				<path class="st2" d="M249.8,312.5l43.2,25.1c2.7,1.6,6.1,1.6,8.8,0l43.6-25.2c5.9-3.4,5.9-11.9,0-15.2l-43.2-25.1
					c-2.7-1.6-6.1-1.6-8.8,0l-43.6,25.2C244,300.7,244,309.1,249.8,312.5z"/>
			</g>
		</g>
		<g class="st103">
			<g>
				<path class="st2" d="M249.8,309.6l43.2,25.1c2.7,1.6,6.1,1.6,8.8,0l43.6-25.2c5.9-3.4,5.9-11.9,0-15.2l-43.2-25.1
					c-2.7-1.6-6.1-1.6-8.8,0l-43.6,25.2C244,297.7,244,306.2,249.8,309.6z"/>
			</g>
		</g>
		<g class="st104">
			<g>
				<path class="st2" d="M249.8,306.6l43.2,25.1c2.7,1.6,6.1,1.6,8.8,0l43.6-25.2c5.9-3.4,5.9-11.9,0-15.2l-43.2-25.1
					c-2.7-1.6-6.1-1.6-8.8,0l-43.6,25.2C244,294.8,244,303.2,249.8,306.6z"/>
			</g>
		</g>
		<g class="st105">
			<g>
				<path class="st2" d="M249.8,303.7l43.2,25.1c2.7,1.6,6.1,1.6,8.8,0l43.6-25.2c5.9-3.4,5.9-11.9,0-15.2l-43.2-25.1
					c-2.7-1.6-6.1-1.6-8.8,0l-43.6,25.2C244,291.8,244,300.3,249.8,303.7z"/>
			</g>
		</g>
		<g class="st106">
			<g>
				<path class="st2" d="M249.8,300.8l43.2,25.1c2.7,1.6,6.1,1.6,8.8,0l43.6-25.2c5.9-3.4,5.9-11.9,0-15.2l-43.2-25.1
					c-2.7-1.6-6.1-1.6-8.8,0l-43.6,25.2C244,288.9,244,297.3,249.8,300.8z"/>
			</g>
		</g>
		<g class="st107">
			<g>
				<path class="st2" d="M249.8,297.8l43.2,25.1c2.7,1.6,6.1,1.6,8.8,0l43.6-25.2c5.9-3.4,5.9-11.9,0-15.2l-43.2-25.1
					c-2.7-1.6-6.1-1.6-8.8,0l-43.6,25.2C244,286,244,294.4,249.8,297.8z"/>
			</g>
		</g>
		<g class="st108">
			<g>
				<path class="st2" d="M249.8,294.9L293,320c2.7,1.6,6.1,1.6,8.8,0l43.6-25.2c5.9-3.4,5.9-11.9,0-15.2l-43.2-25.1
					c-2.7-1.6-6.1-1.6-8.8,0l-43.6,25.2C244,283,244,291.5,249.8,294.9z"/>
			</g>
		</g>
		<g class="st109">
			<g>
				<path class="st2" d="M249.8,291.9L293,317c2.7,1.6,6.1,1.6,8.8,0l43.6-25.2c5.9-3.4,5.9-11.9,0-15.2l-43.2-25.1
					c-2.7-1.6-6.1-1.6-8.8,0l-43.6,25.2C244,280.1,244,288.5,249.8,291.9z"/>
			</g>
		</g>
		<g class="st110">
			<g>
				<path class="st2" d="M249.8,289l43.2,25.1c2.7,1.6,6.1,1.6,8.8,0l43.6-25.2c5.9-3.4,5.9-11.9,0-15.2l-43.2-25.1
					c-2.7-1.6-6.1-1.6-8.8,0l-43.6,25.2C244,277.2,244,285.6,249.8,289z"/>
			</g>
		</g>
		<g class="st111">
			<g>
				<path class="st2" d="M249.8,286.1l43.2,25.1c2.7,1.6,6.1,1.6,8.8,0l43.6-25.2c5.9-3.4,5.9-11.9,0-15.2l-43.2-25.1
					c-2.7-1.6-6.1-1.6-8.8,0l-43.6,25.2C244,274.2,244,282.7,249.8,286.1z"/>
			</g>
		</g>
		<g class="st112">
			<g>
				<path class="st2" d="M249.8,283.1l43.2,25.1c2.7,1.6,6.1,1.6,8.8,0l43.6-25.2c5.9-3.4,5.9-11.9,0-15.2l-43.2-25.1
					c-2.7-1.6-6.1-1.6-8.8,0l-43.6,25.2C244,271.3,244,279.7,249.8,283.1z"/>
			</g>
		</g>
		<g class="st113">
			<g>
				<path class="st2" d="M249.8,280.2l43.2,25.1c2.7,1.6,6.1,1.6,8.8,0l43.6-25.2c5.9-3.4,5.9-11.9,0-15.2l-43.2-25.1
					c-2.7-1.6-6.1-1.6-8.8,0l-43.6,25.2C244,268.3,244,276.8,249.8,280.2z"/>
			</g>
		</g>
		<g class="st114">
			<g>
				<path class="st2" d="M249.8,277.3l43.2,25.1c2.7,1.6,6.1,1.6,8.8,0l43.6-25.2c5.9-3.4,5.9-11.9,0-15.2l-43.2-25.1
					c-2.7-1.6-6.1-1.6-8.8,0L249.8,262C244,265.4,244,273.8,249.8,277.3z"/>
			</g>
		</g>
		<g class="st115">
			<g>
				<path class="st2" d="M249.8,274.3l43.2,25.1c2.7,1.6,6.1,1.6,8.8,0l43.6-25.2c5.9-3.4,5.9-11.9,0-15.2l-43.2-25.1
					c-2.7-1.6-6.1-1.6-8.8,0l-43.6,25.2C244,262.5,244,270.9,249.8,274.3z"/>
			</g>
		</g>
		<g class="st116">
			<g>
				<path class="st2" d="M249.8,271.4l43.2,25.1c2.7,1.6,6.1,1.6,8.8,0l43.6-25.2c5.9-3.4,5.9-11.9,0-15.2L302.2,231
					c-2.7-1.6-6.1-1.6-8.8,0l-43.6,25.2C244,259.5,244,268,249.8,271.4z"/>
			</g>
		</g>
		<g class="st117">
			<g>
				<path class="st2" d="M249.8,268.4l43.2,25.1c2.7,1.6,6.1,1.6,8.8,0l43.6-25.2c5.9-3.4,5.9-11.9,0-15.2L302.2,228
					c-2.7-1.6-6.1-1.6-8.8,0l-43.6,25.2C244,256.6,244,265,249.8,268.4z"/>
			</g>
		</g>
		<g class="st118">
			<g>
				<path class="st2" d="M249.8,265.5l43.2,25.1c2.7,1.6,6.1,1.6,8.8,0l43.6-25.2c5.9-3.4,5.9-11.9,0-15.2l-43.2-25.1
					c-2.7-1.6-6.1-1.6-8.8,0l-43.6,25.2C244,253.6,244,262.1,249.8,265.5z"/>
			</g>
		</g>
		<g class="st119">
			<g>
				<path class="st2" d="M249.8,262.6l43.2,25.1c2.7,1.6,6.1,1.6,8.8,0l43.6-25.2c5.9-3.4,5.9-11.9,0-15.2l-43.2-25.1
					c-2.7-1.6-6.1-1.6-8.8,0l-43.6,25.2C244,250.7,244,259.1,249.8,262.6z"/>
			</g>
		</g>
		<g class="st120">
			<g>
				<path class="st2" d="M249.8,259.6l43.2,25.1c2.7,1.6,6.1,1.6,8.8,0l43.6-25.2c5.9-3.4,5.9-11.9,0-15.2l-43.2-25.1
					c-2.7-1.6-6.1-1.6-8.8,0l-43.6,25.2C244,247.8,244,256.2,249.8,259.6z"/>
			</g>
		</g>
		<g class="st121">
			<g>
				<path class="st2" d="M249.8,256.7l43.2,25.1c2.7,1.6,6.1,1.6,8.8,0l43.6-25.2c5.9-3.4,5.9-11.9,0-15.2l-43.2-25.1
					c-2.7-1.6-6.1-1.6-8.8,0l-43.6,25.2C244,244.8,244,253.3,249.8,256.7z"/>
			</g>
		</g>
		<g class="st122">
			<g>
				<path class="st2" d="M249.8,253.7l43.2,25.1c2.7,1.6,6.1,1.6,8.8,0l43.6-25.2c5.9-3.4,5.9-11.9,0-15.2l-43.2-25.1
					c-2.7-1.6-6.1-1.6-8.8,0l-43.6,25.2C244,241.9,244,250.3,249.8,253.7z"/>
			</g>
		</g>
		<g>
			<g>
				<path class="st2" d="M249.8,250.8l43.2,25.1c2.7,1.6,6.1,1.6,8.8,0l43.6-25.2c5.9-3.4,5.9-11.9,0-15.2l-43.2-25.1
					c-2.7-1.6-6.1-1.6-8.8,0l-43.6,25.2C244,239,244,247.4,249.8,250.8z"/>
			</g>
		</g>
	</g>
	<g>
		<g>
			<path class="st2" d="M249.8,250.8l43.2,25.1c2.7,1.6,6.1,1.6,8.8,0l43.6-25.2c5.9-3.4,5.9-11.9,0-15.2l-43.2-25.1
				c-2.7-1.6-6.1-1.6-8.8,0l-43.6,25.2C244,239,244,247.4,249.8,250.8z"/>
		</g>
	</g>
</g>
</svg>
