<?xml version="1.0" encoding="utf-8"?>
<!-- Generator: Adobe Illustrator 21.1.0, SVG Export Plug-In . SVG Version: 6.00 Build 0)  -->
<svg version="1.1" id="Layer_1" xmlns="http://www.w3.org/2000/svg" xmlns:xlink="http://www.w3.org/1999/xlink" x="0px" y="0px"
	 viewBox="0 0 595.3 841.9" style="enable-background:new 0 0 595.3 841.9;" xml:space="preserve">
<style type="text/css">
	.st0{opacity:0.5;}
	.st1{opacity:0;}
	.st2{fill:#43BBEC;}
	.st3{opacity:8.264462e-03;}
	.st4{opacity:1.652892e-02;}
	.st5{opacity:2.479339e-02;}
	.st6{opacity:3.305785e-02;}
	.st7{opacity:4.132231e-02;}
	.st8{opacity:4.958678e-02;}
	.st9{opacity:5.785124e-02;}
	.st10{opacity:6.611570e-02;}
	.st11{opacity:7.438017e-02;}
	.st12{opacity:8.264463e-02;}
	.st13{opacity:9.090909e-02;}
	.st14{opacity:9.917355e-02;}
	.st15{opacity:0.1074;}
	.st16{opacity:0.1157;}
	.st17{opacity:0.124;}
	.st18{opacity:0.1322;}
	.st19{opacity:0.1405;}
	.st20{opacity:0.1488;}
	.st21{opacity:0.157;}
	.st22{opacity:0.1653;}
	.st23{opacity:0.1736;}
	.st24{opacity:0.1818;}
	.st25{opacity:0.1901;}
	.st26{opacity:0.1983;}
	.st27{opacity:0.2066;}
	.st28{opacity:0.2149;}
	.st29{opacity:0.2231;}
	.st30{opacity:0.2314;}
	.st31{opacity:0.2397;}
	.st32{opacity:0.2479;}
	.st33{opacity:0.2562;}
	.st34{opacity:0.2645;}
	.st35{opacity:0.2727;}
	.st36{opacity:0.281;}
	.st37{opacity:0.2893;}
	.st38{opacity:0.2975;}
	.st39{opacity:0.3058;}
	.st40{opacity:0.314;}
	.st41{opacity:0.3223;}
	.st42{opacity:0.3306;}
	.st43{opacity:0.3388;}
	.st44{opacity:0.3471;}
	.st45{opacity:0.3554;}
	.st46{opacity:0.3636;}
	.st47{opacity:0.3719;}
	.st48{opacity:0.3802;}
	.st49{opacity:0.3884;}
	.st50{opacity:0.3967;}
	.st51{opacity:0.405;}
	.st52{opacity:0.4132;}
	.st53{opacity:0.4215;}
	.st54{opacity:0.4298;}
	.st55{opacity:0.438;}
	.st56{opacity:0.4463;}
	.st57{opacity:0.4545;}
	.st58{opacity:0.4628;}
	.st59{opacity:0.4711;}
	.st60{opacity:0.4793;}
	.st61{opacity:0.4876;}
	.st62{opacity:0.4959;}
	.st63{opacity:0.5041;}
	.st64{opacity:0.5124;}
	.st65{opacity:0.5207;}
	.st66{opacity:0.5289;}
	.st67{opacity:0.5372;}
	.st68{opacity:0.5455;}
	.st69{opacity:0.5537;}
	.st70{opacity:0.562;}
	.st71{opacity:0.5702;}
	.st72{opacity:0.5785;}
	.st73{opacity:0.5868;}
	.st74{opacity:0.595;}
	.st75{opacity:0.6033;}
	.st76{opacity:0.6116;}
	.st77{opacity:0.6198;}
	.st78{opacity:0.6281;}
	.st79{opacity:0.6364;}
	.st80{opacity:0.6446;}
	.st81{opacity:0.6529;}
	.st82{opacity:0.6612;}
	.st83{opacity:0.6694;}
	.st84{opacity:0.6777;}
	.st85{opacity:0.686;}
	.st86{opacity:0.6942;}
	.st87{opacity:0.7025;}
	.st88{opacity:0.7107;}
	.st89{opacity:0.719;}
	.st90{opacity:0.7273;}
	.st91{opacity:0.7355;}
	.st92{opacity:0.7438;}
	.st93{opacity:0.7521;}
	.st94{opacity:0.7603;}
	.st95{opacity:0.7686;}
	.st96{opacity:0.7769;}
	.st97{opacity:0.7851;}
	.st98{opacity:0.7934;}
	.st99{opacity:0.8017;}
	.st100{opacity:0.8099;}
	.st101{opacity:0.8182;}
	.st102{opacity:0.8264;}
	.st103{opacity:0.8347;}
	.st104{opacity:0.843;}
	.st105{opacity:0.8512;}
	.st106{opacity:0.8595;}
	.st107{opacity:0.8678;}
	.st108{opacity:0.876;}
	.st109{opacity:0.8843;}
	.st110{opacity:0.8926;}
	.st111{opacity:0.9008;}
	.st112{opacity:0.9091;}
	.st113{opacity:0.9174;}
	.st114{opacity:0.9256;}
	.st115{opacity:0.9339;}
	.st116{opacity:0.9421;}
	.st117{opacity:0.9504;}
	.st118{opacity:0.9587;}
	.st119{opacity:0.9669;}
	.st120{opacity:0.9752;}
	.st121{opacity:0.9835;}
	.st122{opacity:0.9917;}
</style>
<g>
	<g class="st0">
		<g class="st1">
			<g>
				<path class="st2" d="M356,589.7L303.7,620c-3.3,1.9-7.4,1.9-10.7,0l-52.7-30.4c-7.1-4.1-7.1-14.3,0-18.4l52.2-30.4
					c3.3-1.9,7.4-1.9,10.7,0l52.7,30.4C363,575.4,363.1,585.6,356,589.7z"/>
			</g>
		</g>
		<g class="st3">
			<g>
				<path class="st2" d="M356,587.1l-52.2,30.4c-3.3,1.9-7.4,1.9-10.7,0L240.4,587c-7.1-4.1-7.1-14.3,0-18.4l52.2-30.4
					c3.3-1.9,7.4-1.9,10.7,0l52.7,30.4C363,572.7,363.1,582.9,356,587.1z"/>
			</g>
		</g>
		<g class="st4">
			<g>
				<path class="st2" d="M356,584.4l-52.2,30.4c-3.3,1.9-7.4,1.9-10.7,0l-52.7-30.4c-7.1-4.1-7.1-14.3,0-18.4l52.2-30.4
					c3.3-1.9,7.4-1.9,10.7,0l52.7,30.4C363,570.1,363.1,580.3,356,584.4z"/>
			</g>
		</g>
		<g class="st5">
			<g>
				<path class="st2" d="M356,581.8l-52.2,30.4c-3.3,1.9-7.4,1.9-10.7,0l-52.7-30.4c-7.1-4.1-7.1-14.3,0-18.4l52.2-30.4
					c3.3-1.9,7.4-1.9,10.7,0l52.7,30.4C363,567.5,363.1,577.7,356,581.8z"/>
			</g>
		</g>
		<g class="st6">
			<g>
				<path class="st2" d="M356,579.2l-52.2,30.4c-3.3,1.9-7.4,1.9-10.7,0l-52.7-30.4c-7.1-4.1-7.1-14.3,0-18.4l52.2-30.4
					c3.3-1.9,7.4-1.9,10.7,0l52.7,30.4C363,564.9,363.1,575.1,356,579.2z"/>
			</g>
		</g>
		<g class="st7">
			<g>
				<path class="st2" d="M356,576.6l-52.2,30.4c-3.3,1.9-7.4,1.9-10.7,0l-52.7-30.4c-7.1-4.1-7.1-14.3,0-18.4l52.2-30.4
					c3.3-1.9,7.4-1.9,10.7,0l52.7,30.4C363,562.2,363.1,572.4,356,576.6z"/>
			</g>
		</g>
		<g class="st8">
			<g>
				<path class="st2" d="M356,573.9l-52.2,30.4c-3.3,1.9-7.4,1.9-10.7,0l-52.7-30.4c-7.1-4.1-7.1-14.3,0-18.4l52.2-30.4
					c3.3-1.9,7.4-1.9,10.7,0l52.7,30.4C363,559.6,363.1,569.8,356,573.9z"/>
			</g>
		</g>
		<g class="st9">
			<g>
				<path class="st2" d="M356,571.3l-52.2,30.4c-3.3,1.9-7.4,1.9-10.7,0l-52.7-30.4c-7.1-4.1-7.1-14.3,0-18.4l52.2-30.4
					c3.3-1.9,7.4-1.9,10.7,0l52.7,30.4C363,557,363.1,567.2,356,571.3z"/>
			</g>
		</g>
		<g class="st10">
			<g>
				<path class="st2" d="M356,568.7l-52.2,30.4c-3.3,1.9-7.4,1.9-10.7,0l-52.7-30.4c-7.1-4.1-7.1-14.3,0-18.4l52.2-30.4
					c3.3-1.9,7.4-1.9,10.7,0l52.7,30.4C363,554.4,363.1,564.6,356,568.7z"/>
			</g>
		</g>
		<g class="st11">
			<g>
				<path class="st2" d="M356,566.1l-52.2,30.4c-3.3,1.9-7.4,1.9-10.7,0L240.4,566c-7.1-4.1-7.1-14.3,0-18.4l52.2-30.4
					c3.3-1.9,7.4-1.9,10.7,0l52.7,30.4C363,551.7,363.1,562,356,566.1z"/>
			</g>
		</g>
		<g class="st12">
			<g>
				<path class="st2" d="M356,563.4l-52.2,30.4c-3.3,1.9-7.4,1.9-10.7,0l-52.7-30.4c-7.1-4.1-7.1-14.3,0-18.4l52.2-30.4
					c3.3-1.9,7.4-1.9,10.7,0l52.7,30.4C363,549.1,363.1,559.3,356,563.4z"/>
			</g>
		</g>
		<g class="st13">
			<g>
				<path class="st2" d="M356,560.8l-52.2,30.4c-3.3,1.9-7.4,1.9-10.7,0l-52.7-30.4c-7.1-4.1-7.1-14.3,0-18.4l52.2-30.4
					c3.3-1.9,7.4-1.9,10.7,0l52.7,30.4C363,546.5,363.1,556.7,356,560.8z"/>
			</g>
		</g>
		<g class="st14">
			<g>
				<path class="st2" d="M356,558.2l-52.2,30.4c-3.3,1.9-7.4,1.9-10.7,0l-52.7-30.4c-7.1-4.1-7.1-14.3,0-18.4l52.2-30.4
					c3.3-1.9,7.4-1.9,10.7,0l52.7,30.4C363,543.9,363.1,554.1,356,558.2z"/>
			</g>
		</g>
		<g class="st15">
			<g>
				<path class="st2" d="M356,555.6l-52.2,30.4c-3.3,1.9-7.4,1.9-10.7,0l-52.7-30.4c-7.1-4.1-7.1-14.3,0-18.4l52.2-30.4
					c3.3-1.9,7.4-1.9,10.7,0l52.7,30.4C363,541.3,363.1,551.5,356,555.6z"/>
			</g>
		</g>
		<g class="st16">
			<g>
				<path class="st2" d="M356,552.9l-52.2,30.4c-3.3,1.9-7.4,1.9-10.7,0l-52.7-30.4c-7.1-4.1-7.1-14.3,0-18.4l52.2-30.4
					c3.3-1.9,7.4-1.9,10.7,0l52.7,30.4C363,538.6,363.1,548.8,356,552.9z"/>
			</g>
		</g>
		<g class="st17">
			<g>
				<path class="st2" d="M356,550.3l-52.2,30.4c-3.3,1.9-7.4,1.9-10.7,0l-52.7-30.4c-7.1-4.1-7.1-14.3,0-18.4l52.2-30.4
					c3.3-1.9,7.4-1.9,10.7,0l52.7,30.4C363,536,363.1,546.2,356,550.3z"/>
			</g>
		</g>
		<g class="st18">
			<g>
				<path class="st2" d="M356,547.7l-52.2,30.4c-3.3,1.9-7.4,1.9-10.7,0l-52.7-30.4c-7.1-4.1-7.1-14.3,0-18.4l52.2-30.4
					c3.3-1.9,7.4-1.9,10.7,0l52.7,30.4C363,533.4,363.1,543.6,356,547.7z"/>
			</g>
		</g>
		<g class="st19">
			<g>
				<path class="st2" d="M356,545.1l-52.2,30.4c-3.3,1.9-7.4,1.9-10.7,0l-52.7-30.4c-7.1-4.1-7.1-14.3,0-18.4l52.2-30.4
					c3.3-1.9,7.4-1.9,10.7,0l52.7,30.4C363,530.8,363.1,541,356,545.1z"/>
			</g>
		</g>
		<g class="st20">
			<g>
				<path class="st2" d="M356,542.5l-52.2,30.4c-3.3,1.9-7.4,1.9-10.7,0l-52.7-30.4c-7.1-4.1-7.1-14.3,0-18.4l52.2-30.4
					c3.3-1.9,7.4-1.9,10.7,0l52.7,30.4C363,528.1,363.1,538.3,356,542.5z"/>
			</g>
		</g>
		<g class="st21">
			<g>
				<path class="st2" d="M356,539.8l-52.2,30.4c-3.3,1.9-7.4,1.9-10.7,0l-52.7-30.4c-7.1-4.1-7.1-14.3,0-18.4l52.2-30.4
					c3.3-1.9,7.4-1.9,10.7,0l52.7,30.4C363,525.5,363.1,535.7,356,539.8z"/>
			</g>
		</g>
		<g class="st22">
			<g>
				<path class="st2" d="M356,537.2l-52.2,30.4c-3.3,1.9-7.4,1.9-10.7,0l-52.7-30.4c-7.1-4.1-7.1-14.3,0-18.4l52.2-30.4
					c3.3-1.9,7.4-1.9,10.7,0l52.7,30.4C363,522.9,363.1,533.1,356,537.2z"/>
			</g>
		</g>
		<g class="st23">
			<g>
				<path class="st2" d="M356,534.6l-52.2,30.4c-3.3,1.9-7.4,1.9-10.7,0l-52.7-30.4c-7.1-4.1-7.1-14.3,0-18.4l52.2-30.4
					c3.3-1.9,7.4-1.9,10.7,0l52.7,30.4C363,520.3,363.1,530.5,356,534.6z"/>
			</g>
		</g>
		<g class="st24">
			<g>
				<path class="st2" d="M356,532l-52.2,30.4c-3.3,1.9-7.4,1.9-10.7,0l-52.7-30.4c-7.1-4.1-7.1-14.3,0-18.4l52.2-30.4
					c3.3-1.9,7.4-1.9,10.7,0l52.7,30.4C363,517.6,363.1,527.8,356,532z"/>
			</g>
		</g>
		<g class="st25">
			<g>
				<path class="st2" d="M356,529.3l-52.2,30.4c-3.3,1.9-7.4,1.9-10.7,0l-52.7-30.4c-7.1-4.1-7.1-14.3,0-18.4l52.2-30.4
					c3.3-1.9,7.4-1.9,10.7,0l52.7,30.4C363,515,363.1,525.2,356,529.3z"/>
			</g>
		</g>
		<g class="st26">
			<g>
				<path class="st2" d="M356,526.7l-52.2,30.4c-3.3,1.9-7.4,1.9-10.7,0l-52.7-30.4c-7.1-4.1-7.1-14.3,0-18.4l52.2-30.4
					c3.3-1.9,7.4-1.9,10.7,0l52.7,30.4C363,512.4,363.1,522.6,356,526.7z"/>
			</g>
		</g>
		<g class="st27">
			<g>
				<path class="st2" d="M356,524.1l-52.2,30.4c-3.3,1.9-7.4,1.9-10.7,0l-52.7-30.4c-7.1-4.1-7.1-14.3,0-18.4l52.2-30.4
					c3.3-1.9,7.4-1.9,10.7,0l52.7,30.4C363,509.8,363.1,520,356,524.1z"/>
			</g>
		</g>
		<g class="st28">
			<g>
				<path class="st2" d="M356,521.5l-52.2,30.4c-3.3,1.9-7.4,1.9-10.7,0l-52.7-30.4c-7.1-4.1-7.1-14.3,0-18.4l52.2-30.4
					c3.3-1.9,7.4-1.9,10.7,0l52.7,30.4C363,507.1,363.1,517.4,356,521.5z"/>
			</g>
		</g>
		<g class="st29">
			<g>
				<path class="st2" d="M356,518.8l-52.2,30.4c-3.3,1.9-7.4,1.9-10.7,0l-52.7-30.4c-7.1-4.1-7.1-14.3,0-18.4l52.2-30.4
					c3.3-1.9,7.4-1.9,10.7,0l52.7,30.4C363,504.5,363.1,514.7,356,518.8z"/>
			</g>
		</g>
		<g class="st30">
			<g>
				<path class="st2" d="M356,516.2l-52.2,30.4c-3.3,1.9-7.4,1.9-10.7,0l-52.7-30.4c-7.1-4.1-7.1-14.3,0-18.4l52.2-30.4
					c3.3-1.9,7.4-1.9,10.7,0l52.7,30.4C363,501.9,363.1,512.1,356,516.2z"/>
			</g>
		</g>
		<g class="st31">
			<g>
				<path class="st2" d="M356,513.6L303.7,544c-3.3,1.9-7.4,1.9-10.7,0l-52.7-30.4c-7.1-4.1-7.1-14.3,0-18.4l52.2-30.4
					c3.3-1.9,7.4-1.9,10.7,0l52.7,30.4C363,499.3,363.1,509.5,356,513.6z"/>
			</g>
		</g>
		<g class="st32">
			<g>
				<path class="st2" d="M356,511l-52.2,30.4c-3.3,1.9-7.4,1.9-10.7,0l-52.7-30.4c-7.1-4.1-7.1-14.3,0-18.4l52.2-30.4
					c3.3-1.9,7.4-1.9,10.7,0l52.7,30.4C363,496.7,363.1,506.9,356,511z"/>
			</g>
		</g>
		<g class="st33">
			<g>
				<path class="st2" d="M356,508.4l-52.2,30.4c-3.3,1.9-7.4,1.9-10.7,0l-52.7-30.4c-7.1-4.1-7.1-14.3,0-18.4l52.2-30.4
					c3.3-1.9,7.4-1.9,10.7,0l52.7,30.4C363,494,363.1,504.2,356,508.4z"/>
			</g>
		</g>
		<g class="st34">
			<g>
				<path class="st2" d="M356,505.7l-52.2,30.4c-3.3,1.9-7.4,1.9-10.7,0l-52.7-30.4c-7.1-4.1-7.1-14.3,0-18.4l52.2-30.4
					c3.3-1.9,7.4-1.9,10.7,0l52.7,30.4C363,491.4,363.1,501.6,356,505.7z"/>
			</g>
		</g>
		<g class="st35">
			<g>
				<path class="st2" d="M356,503.1l-52.2,30.4c-3.3,1.9-7.4,1.9-10.7,0l-52.7-30.4c-7.1-4.1-7.1-14.3,0-18.4l52.2-30.4
					c3.3-1.9,7.4-1.9,10.7,0l52.7,30.4C363,488.8,363.1,499,356,503.1z"/>
			</g>
		</g>
		<g class="st36">
			<g>
				<path class="st2" d="M356,500.5l-52.2,30.4c-3.3,1.9-7.4,1.9-10.7,0l-52.7-30.4c-7.1-4.1-7.1-14.3,0-18.4l52.2-30.4
					c3.3-1.9,7.4-1.9,10.7,0l52.7,30.4C363,486.2,363.1,496.4,356,500.5z"/>
			</g>
		</g>
		<g class="st37">
			<g>
				<path class="st2" d="M356,497.9l-52.2,30.4c-3.3,1.9-7.4,1.9-10.7,0l-52.7-30.4c-7.1-4.1-7.1-14.3,0-18.4l52.2-30.4
					c3.3-1.9,7.4-1.9,10.7,0l52.7,30.4C363,483.5,363.1,493.7,356,497.9z"/>
			</g>
		</g>
		<g class="st38">
			<g>
				<path class="st2" d="M356,495.2l-52.2,30.4c-3.3,1.9-7.4,1.9-10.7,0l-52.7-30.4c-7.1-4.1-7.1-14.3,0-18.4l52.2-30.4
					c3.3-1.9,7.4-1.9,10.7,0l52.7,30.4C363,480.9,363.1,491.1,356,495.2z"/>
			</g>
		</g>
		<g class="st39">
			<g>
				<path class="st2" d="M356,492.6L303.7,523c-3.3,1.9-7.4,1.9-10.7,0l-52.7-30.4c-7.1-4.1-7.1-14.3,0-18.4l52.2-30.4
					c3.3-1.9,7.4-1.9,10.7,0l52.7,30.4C363,478.3,363.1,488.5,356,492.6z"/>
			</g>
		</g>
		<g class="st40">
			<g>
				<path class="st2" d="M356,490l-52.2,30.4c-3.3,1.9-7.4,1.9-10.7,0L240.4,490c-7.1-4.1-7.1-14.3,0-18.4l52.2-30.4
					c3.3-1.9,7.4-1.9,10.7,0l52.7,30.4C363,475.7,363.1,485.9,356,490z"/>
			</g>
		</g>
		<g class="st41">
			<g>
				<path class="st2" d="M356,487.4l-52.2,30.4c-3.3,1.9-7.4,1.9-10.7,0l-52.7-30.4c-7.1-4.1-7.1-14.3,0-18.4l52.2-30.4
					c3.3-1.9,7.4-1.9,10.7,0l52.7,30.4C363,473,363.1,483.3,356,487.4z"/>
			</g>
		</g>
		<g class="st42">
			<g>
				<path class="st2" d="M356,484.7l-52.2,30.4c-3.3,1.9-7.4,1.9-10.7,0l-52.7-30.4c-7.1-4.1-7.1-14.3,0-18.4l52.2-30.4
					c3.3-1.9,7.4-1.9,10.7,0l52.7,30.4C363,470.4,363.1,480.6,356,484.7z"/>
			</g>
		</g>
		<g class="st43">
			<g>
				<path class="st2" d="M356,482.1l-52.2,30.4c-3.3,1.9-7.4,1.9-10.7,0l-52.7-30.4c-7.1-4.1-7.1-14.3,0-18.4l52.2-30.4
					c3.3-1.9,7.4-1.9,10.7,0l52.7,30.4C363,467.8,363.1,478,356,482.1z"/>
			</g>
		</g>
		<g class="st44">
			<g>
				<path class="st2" d="M356,479.5l-52.2,30.4c-3.3,1.9-7.4,1.9-10.7,0l-52.7-30.4c-7.1-4.1-7.1-14.3,0-18.4l52.2-30.4
					c3.3-1.9,7.4-1.9,10.7,0l52.7,30.4C363,465.2,363.1,475.4,356,479.5z"/>
			</g>
		</g>
		<g class="st45">
			<g>
				<path class="st2" d="M356,476.9l-52.2,30.4c-3.3,1.9-7.4,1.9-10.7,0l-52.7-30.4c-7.1-4.1-7.1-14.3,0-18.4l52.2-30.4
					c3.3-1.9,7.4-1.9,10.7,0l52.7,30.4C363,462.6,363.1,472.8,356,476.9z"/>
			</g>
		</g>
		<g class="st46">
			<g>
				<path class="st2" d="M356,474.2l-52.2,30.4c-3.3,1.9-7.4,1.9-10.7,0l-52.7-30.4c-7.1-4.1-7.1-14.3,0-18.4l52.2-30.4
					c3.3-1.9,7.4-1.9,10.7,0l52.7,30.4C363,459.9,363.1,470.1,356,474.2z"/>
			</g>
		</g>
		<g class="st47">
			<g>
				<path class="st2" d="M356,471.6L303.7,502c-3.3,1.9-7.4,1.9-10.7,0l-52.7-30.4c-7.1-4.1-7.1-14.3,0-18.4l52.2-30.4
					c3.3-1.9,7.4-1.9,10.7,0l52.7,30.4C363,457.3,363.1,467.5,356,471.6z"/>
			</g>
		</g>
		<g class="st48">
			<g>
				<path class="st2" d="M356,469l-52.2,30.4c-3.3,1.9-7.4,1.9-10.7,0L240.4,469c-7.1-4.1-7.1-14.3,0-18.4l52.2-30.4
					c3.3-1.9,7.4-1.9,10.7,0l52.7,30.4C363,454.7,363.1,464.9,356,469z"/>
			</g>
		</g>
		<g class="st49">
			<g>
				<path class="st2" d="M356,466.4l-52.2,30.4c-3.3,1.9-7.4,1.9-10.7,0l-52.7-30.4c-7.1-4.1-7.1-14.3,0-18.4l52.2-30.4
					c3.3-1.9,7.4-1.9,10.7,0l52.7,30.4C363,452.1,363.1,462.3,356,466.4z"/>
			</g>
		</g>
		<g class="st50">
			<g>
				<path class="st2" d="M356,463.8l-52.2,30.4c-3.3,1.9-7.4,1.9-10.7,0l-52.7-30.4c-7.1-4.1-7.1-14.3,0-18.4l52.2-30.4
					c3.3-1.9,7.4-1.9,10.7,0l52.7,30.4C363,449.4,363.1,459.6,356,463.8z"/>
			</g>
		</g>
		<g class="st51">
			<g>
				<path class="st2" d="M356,461.1l-52.2,30.4c-3.3,1.9-7.4,1.9-10.7,0l-52.7-30.4c-7.1-4.1-7.1-14.3,0-18.4l52.2-30.4
					c3.3-1.9,7.4-1.9,10.7,0l52.7,30.4C363,446.8,363.1,457,356,461.1z"/>
			</g>
		</g>
		<g class="st52">
			<g>
				<path class="st2" d="M356,458.5l-52.2,30.4c-3.3,1.9-7.4,1.9-10.7,0l-52.7-30.4c-7.1-4.1-7.1-14.3,0-18.4l52.2-30.4
					c3.3-1.9,7.4-1.9,10.7,0l52.7,30.4C363,444.2,363.1,454.4,356,458.5z"/>
			</g>
		</g>
		<g class="st53">
			<g>
				<path class="st2" d="M356,455.9l-52.2,30.4c-3.3,1.9-7.4,1.9-10.7,0l-52.7-30.4c-7.1-4.1-7.1-14.3,0-18.4l52.2-30.4
					c3.3-1.9,7.4-1.9,10.7,0l52.7,30.4C363,441.6,363.1,451.8,356,455.9z"/>
			</g>
		</g>
		<g class="st54">
			<g>
				<path class="st2" d="M356,453.3l-52.2,30.4c-3.3,1.9-7.4,1.9-10.7,0l-52.7-30.4c-7.1-4.1-7.1-14.3,0-18.4l52.2-30.4
					c3.3-1.9,7.4-1.9,10.7,0l52.7,30.4C363,438.9,363.1,449.2,356,453.3z"/>
			</g>
		</g>
		<g class="st55">
			<g>
				<path class="st2" d="M356,450.6L303.7,481c-3.3,1.9-7.4,1.9-10.7,0l-52.7-30.4c-7.1-4.1-7.1-14.3,0-18.4l52.2-30.4
					c3.3-1.9,7.4-1.9,10.7,0l52.7,30.4C363,436.3,363.1,446.5,356,450.6z"/>
			</g>
		</g>
		<g class="st56">
			<g>
				<path class="st2" d="M356,448l-52.2,30.4c-3.3,1.9-7.4,1.9-10.7,0L240.4,448c-7.1-4.1-7.1-14.3,0-18.4l52.2-30.4
					c3.3-1.9,7.4-1.9,10.7,0l52.7,30.4C363,433.7,363.1,443.9,356,448z"/>
			</g>
		</g>
		<g class="st57">
			<g>
				<path class="st2" d="M356,445.4l-52.2,30.4c-3.3,1.9-7.4,1.9-10.7,0l-52.7-30.4c-7.1-4.1-7.1-14.3,0-18.4l52.2-30.4
					c3.3-1.9,7.4-1.9,10.7,0l52.7,30.4C363,431.1,363.1,441.3,356,445.4z"/>
			</g>
		</g>
		<g class="st58">
			<g>
				<path class="st2" d="M356,442.8l-52.2,30.4c-3.3,1.9-7.4,1.9-10.7,0l-52.7-30.4c-7.1-4.1-7.1-14.3,0-18.4l52.2-30.4
					c3.3-1.9,7.4-1.9,10.7,0l52.7,30.4C363,428.4,363.1,438.7,356,442.8z"/>
			</g>
		</g>
		<g class="st59">
			<g>
				<path class="st2" d="M356,440.1l-52.2,30.4c-3.3,1.9-7.4,1.9-10.7,0l-52.7-30.4c-7.1-4.1-7.1-14.3,0-18.4l52.2-30.4
					c3.3-1.9,7.4-1.9,10.7,0l52.7,30.4C363,425.8,363.1,436,356,440.1z"/>
			</g>
		</g>
		<g class="st60">
			<g>
				<path class="st2" d="M356,437.5l-52.2,30.4c-3.3,1.9-7.4,1.9-10.7,0l-52.7-30.4c-7.1-4.1-7.1-14.3,0-18.4l52.2-30.4
					c3.3-1.9,7.4-1.9,10.7,0l52.7,30.4C363,423.2,363.1,433.4,356,437.5z"/>
			</g>
		</g>
		<g class="st61">
			<g>
				<path class="st2" d="M356,434.9l-52.2,30.4c-3.3,1.9-7.4,1.9-10.7,0l-52.7-30.4c-7.1-4.1-7.1-14.3,0-18.4l52.2-30.4
					c3.3-1.9,7.4-1.9,10.7,0l52.7,30.4C363,420.6,363.1,430.8,356,434.9z"/>
			</g>
		</g>
		<g class="st62">
			<g>
				<path class="st2" d="M356,432.3l-52.2,30.4c-3.3,1.9-7.4,1.9-10.7,0l-52.7-30.4c-7.1-4.1-7.1-14.3,0-18.4l52.2-30.4
					c3.3-1.9,7.4-1.9,10.7,0l52.7,30.4C363,418,363.1,428.2,356,432.3z"/>
			</g>
		</g>
		<g class="st63">
			<g>
				<path class="st2" d="M356,429.7L303.7,460c-3.3,1.9-7.4,1.9-10.7,0l-52.7-30.4c-7.1-4.1-7.1-14.3,0-18.4l52.2-30.4
					c3.3-1.9,7.4-1.9,10.7,0l52.7,30.4C363,415.3,363.1,425.5,356,429.7z"/>
			</g>
		</g>
		<g class="st64">
			<g>
				<path class="st2" d="M356,427l-52.2,30.4c-3.3,1.9-7.4,1.9-10.7,0L240.4,427c-7.1-4.1-7.1-14.3,0-18.4l52.2-30.4
					c3.3-1.9,7.4-1.9,10.7,0l52.7,30.4C363,412.7,363.1,422.9,356,427z"/>
			</g>
		</g>
		<g class="st65">
			<g>
				<path class="st2" d="M356,424.4l-52.2,30.4c-3.3,1.9-7.4,1.9-10.7,0l-52.7-30.4c-7.1-4.1-7.1-14.3,0-18.4l52.2-30.4
					c3.3-1.9,7.4-1.9,10.7,0l52.7,30.4C363,410.1,363.1,420.3,356,424.4z"/>
			</g>
		</g>
		<g class="st66">
			<g>
				<path class="st2" d="M356,421.8l-52.2,30.4c-3.3,1.9-7.4,1.9-10.7,0l-52.7-30.4c-7.1-4.1-7.1-14.3,0-18.4l52.2-30.4
					c3.3-1.9,7.4-1.9,10.7,0l52.7,30.4C363,407.5,363.1,417.7,356,421.8z"/>
			</g>
		</g>
		<g class="st67">
			<g>
				<path class="st2" d="M356,419.2l-52.2,30.4c-3.3,1.9-7.4,1.9-10.7,0l-52.7-30.4c-7.1-4.1-7.1-14.3,0-18.4l52.2-30.4
					c3.3-1.9,7.4-1.9,10.7,0l52.7,30.4C363,404.8,363.1,415,356,419.2z"/>
			</g>
		</g>
		<g class="st68">
			<g>
				<path class="st2" d="M356,416.5l-52.2,30.4c-3.3,1.9-7.4,1.9-10.7,0l-52.7-30.4c-7.1-4.1-7.1-14.3,0-18.4l52.2-30.4
					c3.3-1.9,7.4-1.9,10.7,0l52.7,30.4C363,402.2,363.1,412.4,356,416.5z"/>
			</g>
		</g>
		<g class="st69">
			<g>
				<path class="st2" d="M356,413.9l-52.2,30.4c-3.3,1.9-7.4,1.9-10.7,0l-52.7-30.4c-7.1-4.1-7.1-14.3,0-18.4l52.2-30.4
					c3.3-1.9,7.4-1.9,10.7,0l52.7,30.4C363,399.6,363.1,409.8,356,413.9z"/>
			</g>
		</g>
		<g class="st70">
			<g>
				<path class="st2" d="M356,411.3l-52.2,30.4c-3.3,1.9-7.4,1.9-10.7,0l-52.7-30.4c-7.1-4.1-7.1-14.3,0-18.4l52.2-30.4
					c3.3-1.9,7.4-1.9,10.7,0l52.7,30.4C363,397,363.1,407.2,356,411.3z"/>
			</g>
		</g>
		<g class="st71">
			<g>
				<path class="st2" d="M356,408.7L303.7,439c-3.3,1.9-7.4,1.9-10.7,0l-52.7-30.4c-7.1-4.1-7.1-14.3,0-18.4l52.2-30.4
					c3.3-1.9,7.4-1.9,10.7,0l52.7,30.4C363,394.3,363.1,404.6,356,408.7z"/>
			</g>
		</g>
		<g class="st72">
			<g>
				<path class="st2" d="M356,406l-52.2,30.4c-3.3,1.9-7.4,1.9-10.7,0L240.4,406c-7.1-4.1-7.1-14.3,0-18.4l52.2-30.4
					c3.3-1.9,7.4-1.9,10.7,0l52.7,30.4C363,391.7,363.1,401.9,356,406z"/>
			</g>
		</g>
		<g class="st73">
			<g>
				<path class="st2" d="M356,403.4l-52.2,30.4c-3.3,1.9-7.4,1.9-10.7,0l-52.7-30.4c-7.1-4.1-7.1-14.3,0-18.4l52.2-30.4
					c3.3-1.9,7.4-1.9,10.7,0l52.7,30.4C363,389.1,363.1,399.3,356,403.4z"/>
			</g>
		</g>
		<g class="st74">
			<g>
				<path class="st2" d="M356,400.8l-52.2,30.4c-3.3,1.9-7.4,1.9-10.7,0l-52.7-30.4c-7.1-4.1-7.1-14.3,0-18.4l52.2-30.4
					c3.3-1.9,7.4-1.9,10.7,0l52.7,30.4C363,386.5,363.1,396.7,356,400.8z"/>
			</g>
		</g>
		<g class="st75">
			<g>
				<path class="st2" d="M356,398.2l-52.2,30.4c-3.3,1.9-7.4,1.9-10.7,0l-52.7-30.4c-7.1-4.1-7.1-14.3,0-18.4l52.2-30.4
					c3.3-1.9,7.4-1.9,10.7,0l52.7,30.4C363,383.8,363.1,394.1,356,398.2z"/>
			</g>
		</g>
		<g class="st76">
			<g>
				<path class="st2" d="M356,395.5l-52.2,30.4c-3.3,1.9-7.4,1.9-10.7,0l-52.7-30.4c-7.1-4.1-7.1-14.3,0-18.4l52.2-30.4
					c3.3-1.9,7.4-1.9,10.7,0l52.7,30.4C363,381.2,363.1,391.4,356,395.5z"/>
			</g>
		</g>
		<g class="st77">
			<g>
				<path class="st2" d="M356,392.9l-52.2,30.4c-3.3,1.9-7.4,1.9-10.7,0l-52.7-30.4c-7.1-4.1-7.1-14.3,0-18.4l52.2-30.4
					c3.3-1.9,7.4-1.9,10.7,0l52.7,30.4C363,378.6,363.1,388.8,356,392.9z"/>
			</g>
		</g>
		<g class="st78">
			<g>
				<path class="st2" d="M356,390.3l-52.2,30.4c-3.3,1.9-7.4,1.9-10.7,0l-52.7-30.4c-7.1-4.1-7.1-14.3,0-18.4l52.2-30.4
					c3.3-1.9,7.4-1.9,10.7,0l52.7,30.4C363,376,363.1,386.2,356,390.3z"/>
			</g>
		</g>
		<g class="st79">
			<g>
				<path class="st2" d="M356,387.7L303.7,418c-3.3,1.9-7.4,1.9-10.7,0l-52.7-30.4c-7.1-4.1-7.1-14.3,0-18.4l52.2-30.4
					c3.3-1.9,7.4-1.9,10.7,0l52.7,30.4C363,373.4,363.1,383.6,356,387.7z"/>
			</g>
		</g>
		<g class="st80">
			<g>
				<path class="st2" d="M356,385.1l-52.2,30.4c-3.3,1.9-7.4,1.9-10.7,0L240.4,385c-7.1-4.1-7.1-14.3,0-18.4l52.2-30.4
					c3.3-1.9,7.4-1.9,10.7,0l52.7,30.4C363,370.7,363.1,380.9,356,385.1z"/>
			</g>
		</g>
		<g class="st81">
			<g>
				<path class="st2" d="M356,382.4l-52.2,30.4c-3.3,1.9-7.4,1.9-10.7,0l-52.7-30.4c-7.1-4.1-7.1-14.3,0-18.4l52.2-30.4
					c3.3-1.9,7.4-1.9,10.7,0l52.7,30.4C363,368.1,363.1,378.3,356,382.4z"/>
			</g>
		</g>
		<g class="st82">
			<g>
				<path class="st2" d="M356,379.8l-52.2,30.4c-3.3,1.9-7.4,1.9-10.7,0l-52.7-30.4c-7.1-4.1-7.1-14.3,0-18.4l52.2-30.4
					c3.3-1.9,7.4-1.9,10.7,0l52.7,30.4C363,365.5,363.1,375.7,356,379.8z"/>
			</g>
		</g>
		<g class="st83">
			<g>
				<path class="st2" d="M356,377.2l-52.2,30.4c-3.3,1.9-7.4,1.9-10.7,0l-52.7-30.4c-7.1-4.1-7.1-14.3,0-18.4l52.2-30.4
					c3.3-1.9,7.4-1.9,10.7,0l52.7,30.4C363,362.9,363.1,373.1,356,377.2z"/>
			</g>
		</g>
		<g class="st84">
			<g>
				<path class="st2" d="M356,374.6l-52.2,30.4c-3.3,1.9-7.4,1.9-10.7,0l-52.7-30.4c-7.1-4.1-7.1-14.3,0-18.4l52.2-30.4
					c3.3-1.9,7.4-1.9,10.7,0l52.7,30.4C363,360.2,363.1,370.5,356,374.6z"/>
			</g>
		</g>
		<g class="st85">
			<g>
				<path class="st2" d="M356,371.9l-52.2,30.4c-3.3,1.9-7.4,1.9-10.7,0l-52.7-30.4c-7.1-4.1-7.1-14.3,0-18.4l52.2-30.4
					c3.3-1.9,7.4-1.9,10.7,0l52.7,30.4C363,357.6,363.1,367.8,356,371.9z"/>
			</g>
		</g>
		<g class="st86">
			<g>
				<path class="st2" d="M356,369.3l-52.2,30.4c-3.3,1.9-7.4,1.9-10.7,0l-52.7-30.4c-7.1-4.1-7.1-14.3,0-18.4l52.2-30.4
					c3.3-1.9,7.4-1.9,10.7,0l52.7,30.4C363,355,363.1,365.2,356,369.3z"/>
			</g>
		</g>
		<g class="st87">
			<g>
				<path class="st2" d="M356,366.7l-52.2,30.4c-3.3,1.9-7.4,1.9-10.7,0l-52.7-30.4c-7.1-4.1-7.1-14.3,0-18.4l52.2-30.4
					c3.3-1.9,7.4-1.9,10.7,0l52.7,30.4C363,352.4,363.1,362.6,356,366.7z"/>
			</g>
		</g>
		<g class="st88">
			<g>
				<path class="st2" d="M356,364.1l-52.2,30.4c-3.3,1.9-7.4,1.9-10.7,0L240.4,364c-7.1-4.1-7.1-14.3,0-18.4l52.2-30.4
					c3.3-1.9,7.4-1.9,10.7,0l52.7,30.4C363,349.7,363.1,360,356,364.1z"/>
			</g>
		</g>
		<g class="st89">
			<g>
				<path class="st2" d="M356,361.4l-52.2,30.4c-3.3,1.9-7.4,1.9-10.7,0l-52.7-30.4c-7.1-4.1-7.1-14.3,0-18.4l52.2-30.4
					c3.3-1.9,7.4-1.9,10.7,0l52.7,30.4C363,347.1,363.1,357.3,356,361.4z"/>
			</g>
		</g>
		<g class="st90">
			<g>
				<path class="st2" d="M356,358.8l-52.2,30.4c-3.3,1.9-7.4,1.9-10.7,0l-52.7-30.4c-7.1-4.1-7.1-14.3,0-18.4l52.2-30.3
					c3.3-1.9,7.4-1.9,10.7,0l52.7,30.4C363,344.5,363.1,354.7,356,358.8z"/>
			</g>
		</g>
		<g class="st91">
			<g>
				<path class="st2" d="M356,356.2l-52.2,30.4c-3.3,1.9-7.4,1.9-10.7,0l-52.7-30.4c-7.1-4.1-7.1-14.3,0-18.4l52.2-30.3
					c3.3-1.9,7.4-1.9,10.7,0l52.7,30.4C363,341.9,363.1,352.1,356,356.2z"/>
			</g>
		</g>
		<g class="st92">
			<g>
				<path class="st2" d="M356,353.6l-52.2,30.4c-3.3,1.9-7.4,1.9-10.7,0l-52.7-30.4c-7.1-4.1-7.1-14.3,0-18.4l52.2-30.3
					c3.3-1.9,7.4-1.9,10.7,0l52.7,30.4C363,339.3,363.1,349.5,356,353.6z"/>
			</g>
		</g>
		<g class="st93">
			<g>
				<path class="st2" d="M356,351l-52.2,30.4c-3.3,1.9-7.4,1.9-10.7,0l-52.7-30.4c-7.1-4.1-7.1-14.3,0-18.4l52.2-30.3
					c3.3-1.9,7.4-1.9,10.7,0l52.7,30.4C363,336.6,363.1,346.8,356,351z"/>
			</g>
		</g>
		<g class="st94">
			<g>
				<path class="st2" d="M356,348.3l-52.2,30.4c-3.3,1.9-7.4,1.9-10.7,0l-52.7-30.4c-7.1-4.1-7.1-14.3,0-18.4l52.2-30.3
					c3.3-1.9,7.4-1.9,10.7,0l52.7,30.4C363,334,363.1,344.2,356,348.3z"/>
			</g>
		</g>
		<g class="st95">
			<g>
				<path class="st2" d="M356,345.7l-52.2,30.4c-3.3,1.9-7.4,1.9-10.7,0l-52.7-30.4c-7.1-4.1-7.1-14.3,0-18.4l52.2-30.3
					c3.3-1.9,7.4-1.9,10.7,0l52.7,30.4C363,331.4,363.1,341.6,356,345.7z"/>
			</g>
		</g>
		<g class="st96">
			<g>
				<path class="st2" d="M356,343.1l-52.2,30.4c-3.3,1.9-7.4,1.9-10.7,0l-52.7-30.4c-7.1-4.1-7.1-14.3,0-18.4l52.2-30.3
					c3.3-1.9,7.4-1.9,10.7,0l52.7,30.4C363,328.8,363.1,339,356,343.1z"/>
			</g>
		</g>
		<g class="st97">
			<g>
				<path class="st2" d="M356,340.5l-52.2,30.4c-3.3,1.9-7.4,1.9-10.7,0l-52.7-30.4c-7.1-4.1-7.1-14.3,0-18.4l52.2-30.3
					c3.3-1.9,7.4-1.9,10.7,0l52.7,30.4C363,326.1,363.1,336.4,356,340.5z"/>
			</g>
		</g>
		<g class="st98">
			<g>
				<path class="st2" d="M356,337.8l-52.2,30.4c-3.3,1.9-7.4,1.9-10.7,0l-52.7-30.4c-7.1-4.1-7.1-14.3,0-18.4l52.2-30.3
					c3.3-1.9,7.4-1.9,10.7,0l52.7,30.4C363,323.5,363.1,333.7,356,337.8z"/>
			</g>
		</g>
		<g class="st99">
			<g>
				<path class="st2" d="M356,335.2l-52.2,30.4c-3.3,1.9-7.4,1.9-10.7,0l-52.7-30.4c-7.1-4.1-7.1-14.3,0-18.4l52.2-30.3
					c3.3-1.9,7.4-1.9,10.7,0l52.7,30.4C363,320.9,363.1,331.1,356,335.2z"/>
			</g>
		</g>
		<g class="st100">
			<g>
				<path class="st2" d="M356,332.6L303.7,363c-3.3,1.9-7.4,1.9-10.7,0l-52.7-30.4c-7.1-4.1-7.1-14.3,0-18.4l52.2-30.3
					c3.3-1.9,7.4-1.9,10.7,0l52.7,30.4C363,318.3,363.1,328.5,356,332.6z"/>
			</g>
		</g>
		<g class="st101">
			<g>
				<path class="st2" d="M356,330l-52.2,30.4c-3.3,1.9-7.4,1.9-10.7,0l-52.7-30.4c-7.1-4.1-7.1-14.3,0-18.4l52.2-30.3
					c3.3-1.9,7.4-1.9,10.7,0l52.7,30.4C363,315.6,363.1,325.9,356,330z"/>
			</g>
		</g>
		<g class="st102">
			<g>
				<path class="st2" d="M356,327.3l-52.2,30.4c-3.3,1.9-7.4,1.9-10.7,0l-52.7-30.4c-7.1-4.1-7.1-14.3,0-18.4l52.2-30.3
					c3.3-1.9,7.4-1.9,10.7,0l52.7,30.4C363,313,363.1,323.2,356,327.3z"/>
			</g>
		</g>
		<g class="st103">
			<g>
				<path class="st2" d="M356,324.7l-52.2,30.4c-3.3,1.9-7.4,1.9-10.7,0l-52.7-30.4c-7.1-4.1-7.1-14.3,0-18.4l52.2-30.3
					c3.3-1.9,7.4-1.9,10.7,0l52.7,30.4C363,310.4,363.1,320.6,356,324.7z"/>
			</g>
		</g>
		<g class="st104">
			<g>
				<path class="st2" d="M356,322.1l-52.2,30.4c-3.3,1.9-7.4,1.9-10.7,0l-52.7-30.4c-7.1-4.1-7.1-14.3,0-18.4l52.2-30.3
					c3.3-1.9,7.4-1.9,10.7,0l52.7,30.4C363,307.8,363.1,318,356,322.1z"/>
			</g>
		</g>
		<g class="st105">
			<g>
				<path class="st2" d="M356,319.5l-52.2,30.4c-3.3,1.9-7.4,1.9-10.7,0l-52.7-30.4c-7.1-4.1-7.1-14.3,0-18.4l52.2-30.3
					c3.3-1.9,7.4-1.9,10.7,0l52.7,30.4C363,305.1,363.1,315.4,356,319.5z"/>
			</g>
		</g>
		<g class="st106">
			<g>
				<path class="st2" d="M356,316.8l-52.2,30.4c-3.3,1.9-7.4,1.9-10.7,0l-52.7-30.4c-7.1-4.1-7.1-14.3,0-18.4l52.2-30.3
					c3.3-1.9,7.4-1.9,10.7,0l52.7,30.4C363,302.5,363.1,312.7,356,316.8z"/>
			</g>
		</g>
		<g class="st107">
			<g>
				<path class="st2" d="M356,314.2l-52.2,30.4c-3.3,1.9-7.4,1.9-10.7,0l-52.7-30.4c-7.1-4.1-7.1-14.3,0-18.4l52.2-30.3
					c3.3-1.9,7.4-1.9,10.7,0l52.7,30.4C363,299.9,363.1,310.1,356,314.2z"/>
			</g>
		</g>
		<g class="st108">
			<g>
				<path class="st2" d="M356,311.6L303.7,342c-3.3,1.9-7.4,1.9-10.7,0l-52.7-30.4c-7.1-4.1-7.1-14.3,0-18.4l52.2-30.3
					c3.3-1.9,7.4-1.9,10.7,0l52.7,30.4C363,297.3,363.1,307.5,356,311.6z"/>
			</g>
		</g>
		<g class="st109">
			<g>
				<path class="st2" d="M356,309l-52.2,30.4c-3.3,1.9-7.4,1.9-10.7,0l-52.7-30.4c-7.1-4.1-7.1-14.3,0-18.4l52.2-30.3
					c3.3-1.9,7.4-1.9,10.7,0l52.7,30.4C363,294.7,363.1,304.9,356,309z"/>
			</g>
		</g>
		<g class="st110">
			<g>
				<path class="st2" d="M356,306.4l-52.2,30.4c-3.3,1.9-7.4,1.9-10.7,0l-52.7-30.4c-7.1-4.1-7.1-14.3,0-18.4l52.2-30.3
					c3.3-1.9,7.4-1.9,10.7,0l52.7,30.4C363,292,363.1,302.3,356,306.4z"/>
			</g>
		</g>
		<g class="st111">
			<g>
				<path class="st2" d="M356,303.7l-52.2,30.4c-3.3,1.9-7.4,1.9-10.7,0l-52.7-30.4c-7.1-4.1-7.1-14.3,0-18.4l52.2-30.3
					c3.3-1.9,7.4-1.9,10.7,0l52.7,30.4C363,289.4,363.1,299.6,356,303.7z"/>
			</g>
		</g>
		<g class="st112">
			<g>
				<path class="st2" d="M356,301.1l-52.2,30.4c-3.3,1.9-7.4,1.9-10.7,0l-52.7-30.4c-7.1-4.1-7.1-14.3,0-18.4l52.2-30.3
					c3.3-1.9,7.4-1.9,10.7,0l52.7,30.4C363,286.8,363.1,297,356,301.1z"/>
			</g>
		</g>
		<g class="st113">
			<g>
				<path class="st2" d="M356,298.5l-52.2,30.4c-3.3,1.9-7.4,1.9-10.7,0l-52.7-30.4c-7.1-4.1-7.1-14.3,0-18.4l52.2-30.3
					c3.3-1.9,7.4-1.9,10.7,0l52.7,30.4C363,284.2,363.1,294.4,356,298.5z"/>
			</g>
		</g>
		<g class="st114">
			<g>
				<path class="st2" d="M356,295.9l-52.2,30.4c-3.3,1.9-7.4,1.9-10.7,0l-52.7-30.4c-7.1-4.1-7.1-14.3,0-18.4l52.2-30.3
					c3.3-1.9,7.4-1.9,10.7,0l52.7,30.4C363,281.5,363.1,291.8,356,295.9z"/>
			</g>
		</g>
		<g class="st115">
			<g>
				<path class="st2" d="M356,293.2l-52.2,30.4c-3.3,1.9-7.4,1.9-10.7,0l-52.7-30.4c-7.1-4.1-7.1-14.3,0-18.4l52.2-30.3
					c3.3-1.9,7.4-1.9,10.7,0l52.7,30.4C363,278.9,363.1,289.1,356,293.2z"/>
			</g>
		</g>
		<g class="st116">
			<g>
				<path class="st2" d="M356,290.6L303.7,321c-3.3,1.9-7.4,1.9-10.7,0l-52.7-30.4c-7.1-4.1-7.1-14.3,0-18.4l52.2-30.3
					c3.3-1.9,7.4-1.9,10.7,0l52.7,30.4C363,276.3,363.1,286.5,356,290.6z"/>
			</g>
		</g>
		<g class="st117">
			<g>
				<path class="st2" d="M356,288l-52.2,30.4c-3.3,1.9-7.4,1.9-10.7,0L240.4,288c-7.1-4.1-7.1-14.3,0-18.4l52.2-30.3
					c3.3-1.9,7.4-1.9,10.7,0l52.7,30.4C363,273.7,363.1,283.9,356,288z"/>
			</g>
		</g>
		<g class="st118">
			<g>
				<path class="st2" d="M356,285.4l-52.2,30.4c-3.3,1.9-7.4,1.9-10.7,0l-52.7-30.4c-7.1-4.1-7.1-14.3,0-18.4l52.2-30.3
					c3.3-1.9,7.4-1.9,10.7,0l52.7,30.4C363,271,363.1,281.3,356,285.4z"/>
			</g>
		</g>
		<g class="st119">
			<g>
				<path class="st2" d="M356,282.7l-52.2,30.4c-3.3,1.9-7.4,1.9-10.7,0l-52.7-30.4c-7.1-4.1-7.1-14.3,0-18.4l52.2-30.3
					c3.3-1.9,7.4-1.9,10.7,0l52.7,30.4C363,268.4,363.1,278.6,356,282.7z"/>
			</g>
		</g>
		<g class="st120">
			<g>
				<path class="st2" d="M356,280.1l-52.2,30.4c-3.3,1.9-7.4,1.9-10.7,0l-52.7-30.4c-7.1-4.1-7.1-14.3,0-18.4l52.2-30.3
					c3.3-1.9,7.4-1.9,10.7,0l52.7,30.4C363,265.8,363.1,276,356,280.1z"/>
			</g>
		</g>
		<g class="st121">
			<g>
				<path class="st2" d="M356,277.5l-52.2,30.4c-3.3,1.9-7.4,1.9-10.7,0l-52.7-30.4c-7.1-4.1-7.1-14.3,0-18.4l52.2-30.3
					c3.3-1.9,7.4-1.9,10.7,0l52.7,30.4C363,263.2,363.1,273.4,356,277.5z"/>
			</g>
		</g>
		<g class="st122">
			<g>
				<path class="st2" d="M356,274.9l-52.2,30.4c-3.3,1.9-7.4,1.9-10.7,0l-52.7-30.4c-7.1-4.1-7.1-14.3,0-18.4l52.2-30.3
					c3.3-1.9,7.4-1.9,10.7,0l52.7,30.4C363,260.6,363.1,270.8,356,274.9z"/>
			</g>
		</g>
		<g>
			<g>
				<path class="st2" d="M356,272.3l-52.2,30.4c-3.3,1.9-7.4,1.9-10.7,0l-52.7-30.4c-7.1-4.1-7.1-14.3,0-18.4l52.2-30.3
					c3.3-1.9,7.4-1.9,10.7,0l52.7,30.4C363,257.9,363.1,268.1,356,272.3z"/>
			</g>
		</g>
	</g>
	<g>
		<g>
			<path class="st2" d="M356,272.3l-52.3,30.4c-3.3,1.9-7.4,1.9-10.7,0l-52.7-30.4c-7.1-4.1-7.1-14.3,0-18.4l52.2-30.4
				c3.3-1.9,7.4-1.9,10.7,0l52.7,30.4C363,258,363.1,268.2,356,272.3z"/>
		</g>
	</g>
</g>
</svg>
