<?xml version="1.0" encoding="utf-8"?>
<!-- Generator: Adobe Illustrator 21.1.0, SVG Export Plug-In . SVG Version: 6.00 Build 0)  -->
<svg version="1.1" id="Layer_1" xmlns="http://www.w3.org/2000/svg" xmlns:xlink="http://www.w3.org/1999/xlink" x="0px" y="0px"
	 viewBox="0 0 1007.2 841.9" style="enable-background:new 0 0 1007.2 841.9;" xml:space="preserve">
<style type="text/css">
	.st0{opacity:0.95;}
	.st1{fill:#F7F5F7;}
	.st2{fill:url(#SVGID_1_);}
	.st3{fill:url(#SVGID_2_);}
	.st4{fill:url(#SVGID_3_);}
</style>
<g class="st0">
	<g>
		<polygon class="st1" points="639.6,548 639.6,560 542.4,503.8 542.4,491.9 		"/>
	</g>
	<g>
		<polygon class="st1" points="639.8,500.7 639.7,512.6 542.5,456.5 542.6,444.6 		"/>
	</g>
	<linearGradient id="SVGID_1_" gradientUnits="userSpaceOnUse" x1="742.5957" y1="860.118" x2="353.8484" y2="290.6031">
		<stop  offset="0" style="stop-color:#F26A25"/>
		<stop  offset="1" style="stop-color:#FCD03C"/>
	</linearGradient>
	<path class="st2" d="M352.2,298.2l303,174.9l-0.7,248l-303-174.9L352.2,298.2z M521.7,529.6l0.3-96.7l-142.9-82.5l-0.5,164.2
		l142.9,82.5L521.7,529.6L521.7,529.6z M639.6,560l0-11.9l-97.2-56.1l0,11.9L639.6,560L639.6,560z M639.7,512.6l0-11.9l-97.2-56.1
		l0,11.9L639.7,512.6L639.7,512.6z M639.7,537.5l0-11.9l-97.2-56.1l0,11.9L639.7,537.5L639.7,537.5z M604.1,561.8l0-11.9l-61.8-35.7
		l0,11.9L604.1,561.8L604.1,561.8z"/>
	<g>
		<polygon class="st1" points="604.1,550 604.1,561.8 542.3,526.2 542.4,514.3 		"/>
	</g>
	<linearGradient id="SVGID_2_" gradientUnits="userSpaceOnUse" x1="351.8956" y1="83.5158" x2="707.6022" y2="874.6223">
		<stop  offset="0" style="stop-color:#93C2E8"/>
		<stop  offset="1" style="stop-color:#4386C6"/>
	</linearGradient>
	<path class="st3" d="M328.6,76L680,278.8l-1.4,487.1L327.3,563.1L328.6,76z M654.5,721.1l0.7-248l-303-174.9l-0.7,248L654.5,721.1
		L654.5,721.1z"/>
	<linearGradient id="SVGID_3_" gradientUnits="userSpaceOnUse" x1="376.0492" y1="328.844" x2="503.3654" y2="547.5171">
		<stop  offset="0" style="stop-color:#93C2E8"/>
		<stop  offset="1" style="stop-color:#4386C6"/>
	</linearGradient>
	<path class="st4" d="M379.1,350.4l142.9,82.5l-0.3,96.7l-27.9-64.4l-38.5,52.6L417.2,444l-38.5,35.9L379.1,350.4z M446.2,431.8
		c5.7,3.3,10.4,0.7,10.4-5.9c0-6.5-4.6-14.6-10.3-17.8c-5.7-3.3-10.4-0.6-10.4,5.9C435.9,420.6,440.5,428.5,446.2,431.8L446.2,431.8
		z"/>
	<g>
		<path class="st1" d="M446.3,408c5.7,3.3,10.3,11.3,10.3,17.8c0,6.6-4.7,9.2-10.4,5.9c-5.7-3.3-10.3-11.2-10.3-17.8
			C436,407.4,440.6,404.8,446.3,408z"/>
	</g>
	<polygon class="st1" points="379.1,350.4 378.7,479.9 417.2,444 455.3,517.8 493.8,465.2 521.7,529.6 521.5,597.1 378.6,514.6 	"/>
	<g>
		<polygon class="st1" points="639.7,525.6 639.7,537.5 542.5,481.4 542.5,469.5 		"/>
	</g>
	<g>
		<g>
			<polygon class="st1" points="471.6,281.5 471.5,293.4 374.3,237.3 374.4,225.4 			"/>
		</g>
		<g>
			<polygon class="st1" points="471.7,234.1 471.7,246.1 374.5,190 374.5,178 			"/>
		</g>
		<g>
			<polygon class="st1" points="436.1,283.4 436,295.3 374.3,259.7 374.3,247.8 			"/>
		</g>
		<g>
			<polygon class="st1" points="471.6,259.1 471.6,271 374.4,214.9 374.4,203 			"/>
		</g>
	</g>
	<g>
		<g>
			<polygon class="st1" points="632.8,366.4 632.8,378.4 535.6,322.3 535.6,310.3 			"/>
		</g>
		<g>
			<polygon class="st1" points="633,319.1 632.9,331 535.7,274.9 535.8,263 			"/>
		</g>
		<g>
			<polygon class="st1" points="597.3,368.4 597.3,380.3 535.5,344.6 535.6,332.7 			"/>
		</g>
		<g>
			<polygon class="st1" points="632.9,344.1 632.9,356 535.7,299.8 535.7,288 			"/>
		</g>
	</g>
</g>
</svg>
