<?xml version="1.0" encoding="utf-8"?>
<!-- Generator: Adobe Illustrator 21.1.0, SVG Export Plug-In . SVG Version: 6.00 Build 0)  -->
<svg version="1.1" id="Layer_1" xmlns="http://www.w3.org/2000/svg" xmlns:xlink="http://www.w3.org/1999/xlink" x="0px" y="0px"
	 viewBox="0 0 777 1061.9" style="enable-background:new 0 0 777 1061.9;" xml:space="preserve">
<style type="text/css">
	.st0{opacity:0.9;}
	.st1{fill-rule:evenodd;clip-rule:evenodd;fill:#FFFFFF;}
	.st2{fill-rule:evenodd;clip-rule:evenodd;fill:url(#SVGID_1_);}
	.st3{fill-rule:evenodd;clip-rule:evenodd;fill:#5362AD;}
	.st4{opacity:0.9;fill-rule:evenodd;clip-rule:evenodd;fill:#F2F3FA;}
	.st5{opacity:0.9;fill-rule:evenodd;clip-rule:evenodd;fill:url(#SVGID_2_);}
	.st6{opacity:0.2;fill-rule:evenodd;clip-rule:evenodd;fill:#FFFFFF;}
	.st7{opacity:0.9;fill-rule:evenodd;clip-rule:evenodd;fill:#FFFFFF;}
	.st8{fill-rule:evenodd;clip-rule:evenodd;fill:#F2F3FA;}
	.st9{fill-rule:evenodd;clip-rule:evenodd;fill:url(#SVGID_3_);}
	.st10{fill-rule:evenodd;clip-rule:evenodd;fill:#D2E5F6;}
	.st11{fill-rule:evenodd;clip-rule:evenodd;fill:url(#SVGID_4_);}
	.st12{fill-rule:evenodd;clip-rule:evenodd;fill:url(#SVGID_5_);}
	.st13{opacity:0.5;fill-rule:evenodd;clip-rule:evenodd;fill:#5AA2D9;}
	.st14{opacity:0.5;fill-rule:evenodd;clip-rule:evenodd;fill:#6669B0;}
	.st15{fill-rule:evenodd;clip-rule:evenodd;fill:url(#SVGID_6_);}
	.st16{opacity:0.9;fill-rule:evenodd;clip-rule:evenodd;fill:url(#SVGID_7_);}
	.st17{opacity:0.9;fill-rule:evenodd;clip-rule:evenodd;fill:url(#SVGID_8_);}
	.st18{opacity:0.9;fill-rule:evenodd;clip-rule:evenodd;fill:url(#SVGID_9_);}
	.st19{opacity:0.9;fill-rule:evenodd;clip-rule:evenodd;fill:#2AC1DB;}
</style>
<g class="st0">
	<path class="st1" d="M200.3,123c0-14.2,4.9-24.2,12.9-29.1c8.4-5.2,20.1-4.6,33.1,2.9l261.4,149.9c25.3,14.6,45.8,50.1,45.7,79.2
		l-1.1,638.6c-0.1,29.1-20.7,40.8-46,26.2l-261.4-150c-25.3-14.6-45.8-50.1-45.7-79.2L200.3,123z"/>
	<linearGradient id="SVGID_1_" gradientUnits="userSpaceOnUse" x1="287.373" y1="611.2669" x2="599.0595" y2="374.6162">
		<stop  offset="0" style="stop-color:#6569B0"/>
		<stop  offset="1" style="stop-color:#55ACE0"/>
	</linearGradient>
	<path class="st2" d="M200.3,123c0-14.2,4.9-24.2,12.9-29.1c8.4-5.2,20.1-4.6,33.1,2.9l261.4,149.9c25.3,14.6,45.8,50.1,45.7,79.2
		l-1.1,638.6c-0.1,29.1-20.7,40.8-46,26.2l-261.4-150c-25.3-14.6-45.8-50.1-45.7-79.2L200.3,123z"/>
</g>
<g class="st0">
	<path class="st3" d="M449.1,263.4c6.9,4,12.4,0.8,12.4-7.1c0-7.9-5.5-17.5-12.4-21.4c-6.8-4-12.4-0.8-12.4,7.1
		C436.7,249.9,442.3,259.5,449.1,263.4z"/>
	<path class="st3" d="M318.4,172.1c0-2.1,1.5-3,3.4-1.9c27.2,15.4,71.7,40.4,98.9,55.8c1.9,1.1,3.4,3.8,3.4,5.9l0,4.2
		c0,2.1-1.5,3-3.4,1.9c-27.2-15.3-71.7-40.4-98.9-55.8c-1.9-1.1-3.4-3.8-3.4-5.9L318.4,172.1z"/>
</g>
<path class="st4" d="M142.6,183c0-6.7-2.4-10.9,0.5-14.6c1.8-2.3,8.2-5.2,10.9-6.1c5.2-1.8,11.9-0.9,19.1,3.3L381.6,287
	c16.8,9.7,30.4,33.2,30.3,52.5l-0.7,96.8c0,6-1.3,13.6-5.9,17.8c-3.3,3-9,6-13.2,6.3c-4.4,0.4-6.1-3.7-11.4-6.8L172.2,332.3
	c-16.8-9.7-30.4-33.2-30.3-52.5L142.6,183z"/>
<linearGradient id="SVGID_2_" gradientUnits="userSpaceOnUse" x1="306.2292" y1="273.6064" x2="228.8284" y2="361.757">
	<stop  offset="0" style="stop-color:#4786C6"/>
	<stop  offset="1" style="stop-color:#3DC2D3"/>
</linearGradient>
<path class="st5" d="M137.8,185.9c0.1-19.3,13.7-27.1,30.5-17.4l208.5,121.4c16.8,9.7,30.4,33.2,30.3,52.5l-0.7,96.8
	c-0.1,19.3-13.7,27.1-30.5,17.4L167.4,335.2c-16.8-9.7-30.4-33.2-30.3-52.5L137.8,185.9z"/>
<g class="st0">
	<path class="st6" d="M234.3,274.6c0-5.1,3.7-7.2,8.1-4.5l135.8,77.1c4.5,2.7,8.1,9,8.1,14.1l0,10.2c0,5.1-3.7,7.2-8.1,4.5
		l-135.8-77.1c-4.5-2.7-8.1-9-8.1-14.1L234.3,274.6z"/>
	<path class="st6" d="M234.3,312.1c0-3,2.2-4.2,4.8-2.7l80.2,45.5c2.6,1.6,4.8,5.3,4.8,8.4v6c0,3-2.2,4.2-4.8,2.7l-80.2-45.5
		c-2.6-1.6-4.8-5.3-4.8-8.4L234.3,312.1z"/>
</g>
<path class="st7" d="M187.1,281.9c-8.4-4.8-15.7-16.3-16.3-25.5c-0.6-9.2,5.6-12.8,14-8c8.4,4.8,15.7,16.3,16.3,25.5
	C201.8,283.1,195.5,286.7,187.1,281.9L187.1,281.9z M218.3,279l-5.4-3.1c-1-5.1-3-10.4-5.7-15.5l3.6-2c-2-3.7-4.3-7.3-6.9-10.8
	l-3.6,2c-3.5-4.6-7.6-8.7-11.9-11.9l-0.4-6c-1.5-1.1-3-2.1-4.5-3c-1.5-0.9-3-1.6-4.5-2.3l0.4,6c-4.2-1.7-8-2.1-11.1-1.4l-4.1-6.5
	c-2.3,0.6-4.3,1.8-5.9,3.4l4.1,6.5c-2.1,2.3-3.5,5.7-3.9,10l-5.4-3.1c-0.1,1.5-0.1,3.1,0,4.8c0.1,1.7,0.3,3.4,0.7,5.2l5.4,3.1
	c1,5.1,3,10.4,5.7,15.5l-3.6,2c2,3.7,4.3,7.3,6.9,10.8l3.6-2c3.5,4.6,7.6,8.7,11.9,11.9l0.4,6c1.5,1.1,3,2.1,4.5,3
	c1.5,0.9,3,1.6,4.5,2.3l-0.4-6c4.2,1.7,8,2.1,11.1,1.4l4.2,6.5c2.3-0.6,4.3-1.8,5.9-3.4l-4.2-6.5c2.1-2.3,3.5-5.7,3.9-10l5.4,3.1
	c0.1-1.5,0.1-3.1,0-4.8C218.8,282.5,218.6,280.7,218.3,279z"/>
<g class="st0">
	<g>
		<path class="st8" d="M471.3,321.3c0-6.7-1.5-10.9,1.4-14.6c2.2-2.8,7.4-5.2,10.1-6.1c5.2-1.8,11.9-0.9,19.1,3.3l66.6,37.8
			c16.8,9.7,30.4,33.2,30.3,52.5l-0.7,48c0,6-1.3,13.6-5.9,17.8c-3.3,3-9,6-13.2,6.3c-4.4,0.4-6.1-3.7-11.4-6.8l-66.6-37.8
			c-16.8-9.7-30.4-33.2-30.3-52.5L471.3,321.3z"/>
		<linearGradient id="SVGID_3_" gradientUnits="userSpaceOnUse" x1="557.5779" y1="338.9335" x2="517.8011" y2="404.281">
			<stop  offset="0" style="stop-color:#E894BF"/>
			<stop  offset="1" style="stop-color:#7A6DB2"/>
		</linearGradient>
		<path class="st9" d="M466.4,324.2c0.1-19.3,13.7-27.1,30.5-17.4l66.6,37.8c16.8,9.7,30.4,33.2,30.3,52.5l-0.7,48
			c-0.1,19.3-13.7,27.1-30.5,17.4L496,424.7c-16.8-9.7-30.4-33.2-30.3-52.5L466.4,324.2z"/>
		<g>
			<polygon class="st1" points="543.4,370 581.9,411.4 581.9,422 543.3,419 543.3,406.6 570.3,409.9 543.4,382.4 			"/>
			<path class="st1" d="M537.8,358.4c0.7,1.1,1,2.3,1,3.5c0,0.9-0.3,2.4-0.8,4.5L527.1,411c-0.3,1.5-0.7,2.6-0.9,3.4
				c-0.3,0.8-0.7,1.3-1.3,1.6c-0.5,0.2-1.3,0.1-2.4-0.5c-2.6-1.5-3.9-3.6-3.9-6.1c0-0.7,0.3-2.2,0.8-4.6l10.8-44.6
				c0.5-2.4,1.1-3.9,1.6-4.6c0.5-0.7,1.5-0.6,3,0.2C536.1,356.4,537.1,357.3,537.8,358.4z"/>
			<polygon class="st1" points="475.4,360.6 475.5,349.9 514.1,352.9 514.1,365.5 487.2,361.9 514,389.6 514,402 			"/>
		</g>
	</g>
</g>
<g class="st0">
	<g>
		<path class="st8" d="M441.1,448.4c2.4-4.1,10.3-7.3,15-8.2c5.4-1.1,12.2,0.4,19.8,4.8c19.7,11.4,36.9,38.3,38.5,60.1
			c0.4,6.5-0.4,11.8-2.7,15.7c-2.1,3.6-10.4,9-14.7,9.9C471.7,538,434,460.3,441.1,448.4z"/>
		<g>
			<path class="st10" d="M475.3,526.4c-19.7-11.4-36.9-38.3-38.5-60.1c-1.5-21.8,13.3-30.2,33-18.8c19.7,11.4,36.9,38.3,38.5,60.1
				C509.8,529.4,495.1,537.8,475.3,526.4z"/>
			<polygon class="st1" points="485,471.4 490.2,474 467,509.4 446.5,479 453.3,481.6 464.1,491.9 			"/>
		</g>
	</g>
</g>
<g class="st0">
	<linearGradient id="SVGID_4_" gradientUnits="userSpaceOnUse" x1="498.4399" y1="581.9977" x2="473.4027" y2="777.9318">
		<stop  offset="0" style="stop-color:#D2E6F7"/>
		<stop  offset="1" style="stop-color:#EBEEF8"/>
	</linearGradient>
	<path class="st11" d="M344.8,502c0-4.6-3.6-8.4-2-11.4c1.7-3.2,8.9-5.2,12-6.2c4.4-1.4,9.9-0.6,15.8,2.9l242.8,140.1
		c14.2,8.2,25.7,28.1,25.6,44.4L638.3,797c0,8-2.8,13.6-7.3,16.4c-2.8,1.7-10.5,4.7-14.3,4.1c-2.7-0.5-1.2-4-4.2-5.7L369.7,671.5
		c-14.2-8.2-25.7-28.1-25.6-44.4L344.8,502z"/>
	<path class="st1" d="M338.4,504.3c0-16.3,11.6-22.9,25.8-14.7L607,629.8c14.2,8.2,25.7,28.1,25.6,44.4L632,799.3
		c0,16.3-11.6,22.9-25.8,14.7L363.4,673.8c-14.2-8.2-25.7-28.1-25.6-44.4L338.4,504.3z"/>
	<g>
		<linearGradient id="SVGID_5_" gradientUnits="userSpaceOnUse" x1="384.5336" y1="608.8683" x2="405.774" y2="582.8574">
			<stop  offset="0" style="stop-color:#6569B0"/>
			<stop  offset="1" style="stop-color:#55ACE0"/>
		</linearGradient>
		<path class="st12" d="M390.9,554c-22.7-13.1-41.1-2.6-41.2,23.5c-0.1,26.1,18.2,57.8,40.9,70.9c22.7,13.1,41.1,2.6,41.2-23.5
			C431.9,598.9,413.6,567.1,390.9,554z"/>
		<polygon class="st1" points="373.3,565.7 373.3,612.9 414,616.2 		"/>
	</g>
	<g>
		<path class="st13" d="M439.1,590c0-3.3,2.4-4.7,5.3-2.9l165.4,94.7c2.9,1.7,5.3,5.9,5.3,9.2l0,6.6c0,3.3-2.4,4.7-5.3,2.9
			l-165.4-94.8c-2.9-1.7-5.3-5.9-5.3-9.2L439.1,590z"/>
		<path class="st14" d="M439.1,628.5c0-3.3,2.4-4.7,5.3-2.9l165.4,94.7c2.9,1.7,5.3,5.9,5.3,9.2l0,6.6c0,3.3-2.4,4.7-5.3,2.9
			l-165.4-94.8c-2.9-1.7-5.3-5.9-5.3-9.2L439.1,628.5z"/>
		<path class="st14" d="M439.1,665.8c0-3.3,2.4-4.7,5.3-2.9l165.4,94.7c2.9,1.7,5.3,5.9,5.3,9.2l0,6.6c0,3.3-2.4,4.7-5.3,2.9
			l-165.4-94.8c-2.9-1.7-5.3-5.9-5.3-9.2L439.1,665.8z"/>
	</g>
</g>
<g class="st0">
	<g>
		<path class="st8" d="M119.9,469.2c0-6.7-1.5-10.9,1.4-14.6c2.2-2.8,7.4-5.2,10.1-6.1c5.2-1.8,11.9-0.9,19.1,3.3l88.8,50.2
			c16.8,9.7,30.4,33.2,30.3,52.5l-0.7,82.2c0,6-1.3,13.6-5.9,17.8c-3.3,3-9,6-13.2,6.3c-4.4,0.4-6.1-3.7-11.4-6.8l-88.8-50.2
			c-16.8-9.7-30.4-33.2-30.3-52.5L119.9,469.2z"/>
		<linearGradient id="SVGID_6_" gradientUnits="userSpaceOnUse" x1="224.8935" y1="492.1579" x2="179.9602" y2="572.9199">
			<stop  offset="0" style="stop-color:#E894BF"/>
			<stop  offset="1" style="stop-color:#7A6DB2"/>
		</linearGradient>
		<path class="st15" d="M115.1,472c0.1-19.3,13.7-27.1,30.5-17.4l88.8,50.2c16.8,9.7,30.4,33.2,30.3,52.5l-0.7,82.2
			c-0.1,19.3-13.7,27.1-30.5,17.4l-88.8-50.2c-16.8-9.7-30.4-33.2-30.3-52.5L115.1,472z"/>
		<path class="st1" d="M208.6,543.5l0,16.7l8.3,4.8c5,2.9,8.1,4.5,9.3,5c2.2,1,3.8,1.2,5.1,0.4c1.3-0.7,1.9-2.3,1.9-4.5
			c0-2.3-0.5-4.4-1.6-6.4c-1-2-2.7-3.8-4.8-5.3c-1.3-0.8-4.9-3.1-11-6.6L208.6,543.5L208.6,543.5z M148.2,540.4l17.3,10l-8.8-32
			L148.2,540.4L148.2,540.4z M150.1,497.5l13.6,7.8l25.1,87.3l-13.7-7.9l-5.5-19.7l-25.4-14.7l-5.2,13.6l-13.6-7.8L150.1,497.5
			L150.1,497.5z M233.7,603c1.1-0.9,1.8-2.6,1.8-5.2c0-2.2-0.4-4.2-1.3-6.3c-0.9-2.1-2.3-3.9-3.9-5.6c-1.8-1.8-5.5-4.3-11.4-7.7
			l-10.3-6l-0.1,19.6l11.9,6.9c4.6,2.7,7.5,4.2,8.8,4.6C231,603.9,232.6,603.9,233.7,603L233.7,603z M245.7,593.4
			c2,4.3,3,8.5,3,12.7c0,3.3-0.6,6.2-2,8.6c-1.4,2.3-3.1,3.8-5.5,4.3c-2.4,0.6-5.2,0.1-8.7-1.5c-2.1-1-7.2-3.7-15.3-8.4l-21.6-12.5
			l0.2-72.7l25.3,14.6c5,2.9,8.8,5.3,11.2,7.2c2.5,1.9,4.7,4.2,6.7,6.9c1.9,2.7,3.5,5.7,4.8,8.9c1.4,3.3,2,6.4,2,9.5
			c0,3.5-0.9,6.1-2.4,8c-1.6,2-3.8,2.9-6.5,2.6C240.7,585.1,243.6,589.1,245.7,593.4z"/>
	</g>
</g>
<linearGradient id="SVGID_7_" gradientUnits="userSpaceOnUse" x1="376.7431" y1="932.4667" x2="368.7281" y2="730.4939">
	<stop  offset="0" style="stop-color:#D2E6F7"/>
	<stop  offset="1" style="stop-color:#EBEEF8"/>
</linearGradient>
<path class="st16" d="M255.8,683.6l8.1-4.1c2-0.9,4.7-0.7,7.7,1c66.8,38.3,133.4,78,200.2,116.3c6.3,3.6,11.4,12.5,11.4,19.7
	l0.3,108.4c0,3-0.9,5.3-2.4,6.6c-1.5,1.3-7.4,3.9-9.5,5c-66.8-38.3-133-83.1-199.7-121.4c-6.3-3.6-11.4-12.5-11.4-19.7L255.8,683.6z
	"/>
<linearGradient id="SVGID_8_" gradientUnits="userSpaceOnUse" x1="376.6265" y1="773.1736" x2="350.0111" y2="850.0073">
	<stop  offset="0" style="stop-color:#D2E6F7"/>
	<stop  offset="1" style="stop-color:#EBEEF8"/>
</linearGradient>
<path class="st17" d="M252.2,691.1c0-7.2,5.1-10.2,11.4-6.5c66.8,38.3,133.4,78,200.2,116.3c6.3,3.6,11.4,12.5,11.4,19.7l0.3,108.4
	c0,7.2-5.2,10.2-11.5,6.5c-66.8-38.3-133.4-78-200.2-116.3c-6.3-3.6-11.4-12.5-11.4-19.7L252.2,691.1z"/>
<linearGradient id="SVGID_9_" gradientUnits="userSpaceOnUse" x1="367.7772" y1="782.6559" x2="348.9398" y2="822.5912">
	<stop  offset="0" style="stop-color:#4786C6"/>
	<stop  offset="1" style="stop-color:#3DC2D3"/>
</linearGradient>
<path class="st18" d="M263.7,704c0-3,2.1-4.2,4.7-2.7c63.6,36.5,127.2,73,190.7,109.4c2.6,1.5,4.7,5.2,4.7,8.2l0.1,58.9
	c0,3-2.1,4.2-4.7,2.7c-63.6-36.5-127.2-68.1-190.7-104.6c-2.6-1.5-4.7-5.2-4.7-8.2L263.7,704z"/>
<path class="st19" d="M270.9,793.5c0-3.3,2.4-4.7,5.3-2.9l165.4,94.7c2.9,1.7,5.3,5.9,5.3,9.2l0,6.6c0,3.3-2.4,4.7-5.3,2.9
	l-165.4-94.8c-2.9-1.7-5.3-5.9-5.3-9.2L270.9,793.5z"/>
</svg>
