<?xml version="1.0" encoding="utf-8"?>
<!-- Generator: Adobe Illustrator 21.1.0, SVG Export Plug-In . SVG Version: 6.00 Build 0)  -->
<svg version="1.1" id="Layer_1" xmlns="http://www.w3.org/2000/svg" xmlns:xlink="http://www.w3.org/1999/xlink" x="0px" y="0px"
	 viewBox="0 0 1007.2 841.9" style="enable-background:new 0 0 1007.2 841.9;" xml:space="preserve">
<style type="text/css">
	.st0{opacity:0.9;}
	.st1{fill:url(#SVGID_1_);}
	.st2{fill:url(#SVGID_2_);}
	.st3{clip-path:url(#SVGID_5_);enable-background:new    ;}
	.st4{fill:url(#SVGID_6_);}
	.st5{fill:url(#SVGID_7_);}
	.st6{fill:url(#SVGID_8_);}
	.st7{fill:url(#SVGID_9_);}
	.st8{fill:url(#SVGID_10_);}
	.st9{fill:url(#SVGID_11_);}
	.st10{fill:url(#SVGID_12_);}
	.st11{fill:url(#SVGID_13_);}
	.st12{clip-path:url(#SVGID_16_);enable-background:new    ;}
	.st13{fill:url(#SVGID_17_);}
	.st14{fill:url(#SVGID_18_);}
	.st15{fill:url(#SVGID_19_);}
	.st16{fill:url(#SVGID_20_);}
	.st17{fill:url(#SVGID_21_);}
	.st18{fill:url(#SVGID_22_);}
	.st19{fill:url(#SVGID_23_);}
	.st20{fill:url(#SVGID_24_);}
	.st21{fill:url(#SVGID_25_);}
	.st22{fill:url(#SVGID_26_);}
	.st23{fill:url(#SVGID_27_);}
	.st24{fill:url(#SVGID_28_);}
	.st25{fill:url(#SVGID_29_);}
	.st26{fill:url(#SVGID_30_);}
	.st27{opacity:0.8;}
	.st28{fill:#F7F5F7;}
	.st29{opacity:0.7;}
	.st30{fill:url(#SVGID_31_);}
	.st31{filter:url(#Adobe_OpacityMaskFilter);}
	.st32{filter:url(#Adobe_OpacityMaskFilter_1_);}
	.st33{mask:url(#SVGID_32_);fill:url(#SVGID_33_);}
	.st34{fill:url(#SVGID_34_);}
	.st35{filter:url(#Adobe_OpacityMaskFilter_2_);}
	.st36{filter:url(#Adobe_OpacityMaskFilter_3_);}
	.st37{mask:url(#SVGID_35_);fill:url(#SVGID_36_);}
	.st38{fill:url(#SVGID_37_);}
	.st39{filter:url(#Adobe_OpacityMaskFilter_4_);}
	.st40{filter:url(#Adobe_OpacityMaskFilter_5_);}
	.st41{mask:url(#SVGID_38_);fill:url(#SVGID_39_);}
	.st42{fill:url(#SVGID_40_);}
	.st43{filter:url(#Adobe_OpacityMaskFilter_6_);}
	.st44{filter:url(#Adobe_OpacityMaskFilter_7_);}
	.st45{mask:url(#SVGID_41_);fill:url(#SVGID_42_);}
	.st46{fill:url(#SVGID_43_);}
	.st47{filter:url(#Adobe_OpacityMaskFilter_8_);}
	.st48{filter:url(#Adobe_OpacityMaskFilter_9_);}
	.st49{mask:url(#SVGID_44_);fill:url(#SVGID_45_);}
	.st50{fill:url(#SVGID_46_);}
	.st51{fill:url(#SVGID_47_);}
	.st52{filter:url(#Adobe_OpacityMaskFilter_10_);}
	.st53{filter:url(#Adobe_OpacityMaskFilter_11_);}
	.st54{mask:url(#SVGID_48_);fill:url(#SVGID_49_);}
	.st55{fill:url(#SVGID_50_);}
	.st56{filter:url(#Adobe_OpacityMaskFilter_12_);}
	.st57{filter:url(#Adobe_OpacityMaskFilter_13_);}
	.st58{mask:url(#SVGID_51_);fill:url(#SVGID_52_);}
	.st59{fill:url(#SVGID_53_);}
	.st60{filter:url(#Adobe_OpacityMaskFilter_14_);}
	.st61{filter:url(#Adobe_OpacityMaskFilter_15_);}
	.st62{mask:url(#SVGID_54_);fill:url(#SVGID_55_);}
	.st63{fill:url(#SVGID_56_);}
	.st64{filter:url(#Adobe_OpacityMaskFilter_16_);}
	.st65{filter:url(#Adobe_OpacityMaskFilter_17_);}
	.st66{mask:url(#SVGID_57_);fill:url(#SVGID_58_);}
	.st67{fill:url(#SVGID_59_);}
	.st68{filter:url(#Adobe_OpacityMaskFilter_18_);}
	.st69{filter:url(#Adobe_OpacityMaskFilter_19_);}
	.st70{mask:url(#SVGID_60_);fill:url(#SVGID_61_);}
	.st71{fill:url(#SVGID_62_);}
	.st72{fill:url(#SVGID_63_);}
	.st73{filter:url(#Adobe_OpacityMaskFilter_20_);}
	.st74{filter:url(#Adobe_OpacityMaskFilter_21_);}
	.st75{mask:url(#SVGID_64_);fill:url(#SVGID_65_);}
	.st76{fill:url(#SVGID_66_);}
	.st77{filter:url(#Adobe_OpacityMaskFilter_22_);}
	.st78{filter:url(#Adobe_OpacityMaskFilter_23_);}
	.st79{mask:url(#SVGID_67_);fill:url(#SVGID_68_);}
	.st80{fill:url(#SVGID_69_);}
	.st81{filter:url(#Adobe_OpacityMaskFilter_24_);}
	.st82{filter:url(#Adobe_OpacityMaskFilter_25_);}
	.st83{mask:url(#SVGID_70_);fill:url(#SVGID_71_);}
	.st84{fill:url(#SVGID_72_);}
	.st85{filter:url(#Adobe_OpacityMaskFilter_26_);}
	.st86{filter:url(#Adobe_OpacityMaskFilter_27_);}
	.st87{mask:url(#SVGID_73_);fill:url(#SVGID_74_);}
	.st88{fill:url(#SVGID_75_);}
</style>
<g>
	<g class="st0">
		<linearGradient id="SVGID_1_" gradientUnits="userSpaceOnUse" x1="220.5712" y1="46.9189" x2="668.8519" y2="652.9566">
			<stop  offset="0" style="stop-color:#93C2E8"/>
			<stop  offset="1" style="stop-color:#4386C6"/>
		</linearGradient>
		<path class="st1" d="M731.4,373.7c12.5,7.2,22.6,24.7,22.5,39L753,734.9c0,14.3-10.2,20.1-22.7,12.9L275.8,485.4
			c-12.5-7.2-22.6-24.7-22.5-39l0.9-322.2c0-14.3,10.2-20.1,22.7-12.9L731.4,373.7z"/>
	</g>
	<g>
		<g>
			<linearGradient id="SVGID_2_" gradientUnits="userSpaceOnUse" x1="390.8122" y1="382.2243" x2="331.3545" y2="289.0853">
				<stop  offset="0" style="stop-color:#F26A25"/>
				<stop  offset="1" style="stop-color:#FCD03C"/>
			</linearGradient>
			<polygon class="st2" points="344.2,294.9 360.7,285.3 383.3,384.8 366.8,394.4 			"/>
		</g>
		<g>
			<defs>
				<path id="SVGID_3_" d="M312.4,298.8l16.5-9.6c8.8-5.1,19.6-6.5,31.8-3.9l-16.5,9.6C332.1,292.2,321.2,293.7,312.4,298.8z"/>
			</defs>
			<linearGradient id="SVGID_4_" gradientUnits="userSpaceOnUse" x1="299.2746" y1="292.4481" x2="379.3523" y2="289.6987">
				<stop  offset="0" style="stop-color:#F26A25"/>
				<stop  offset="1" style="stop-color:#FCD03C"/>
			</linearGradient>
			<use xlink:href="#SVGID_3_"  style="overflow:visible;fill:url(#SVGID_4_);"/>
			<clipPath id="SVGID_5_">
				<use xlink:href="#SVGID_3_"  style="overflow:visible;"/>
			</clipPath>
			<g class="st3">
				<linearGradient id="SVGID_6_" gradientUnits="userSpaceOnUse" x1="299.306" y1="293.3471" x2="379.3798" y2="290.5978">
					<stop  offset="0" style="stop-color:#F26A25"/>
					<stop  offset="1" style="stop-color:#FCD03C"/>
				</linearGradient>
				<path class="st4" d="M312.4,298.8l16.5-9.6c2-1.2,4.2-2.2,6.4-2.9l-16.5,9.6C316.6,296.6,314.5,297.6,312.4,298.8L312.4,298.8z"
					/>
				<linearGradient id="SVGID_7_" gradientUnits="userSpaceOnUse" x1="299.2371" y1="291.368" x2="379.3135" y2="288.6186">
					<stop  offset="0" style="stop-color:#F26A25"/>
					<stop  offset="1" style="stop-color:#FCD03C"/>
				</linearGradient>
				<path class="st5" d="M318.8,295.8l16.5-9.6c1.7-0.6,3.4-1.1,5.2-1.4l-16.5,9.6C322.3,294.8,320.5,295.2,318.8,295.8L318.8,295.8
					z"/>
				<linearGradient id="SVGID_8_" gradientUnits="userSpaceOnUse" x1="299.2054" y1="290.5045" x2="379.2859" y2="287.7549">
					<stop  offset="0" style="stop-color:#F26A25"/>
					<stop  offset="1" style="stop-color:#FCD03C"/>
				</linearGradient>
				<path class="st6" d="M324.1,294.4l16.5-9.6c1.4-0.3,2.9-0.5,4.4-0.6l-16.5,9.6C327,293.9,325.5,294.1,324.1,294.4L324.1,294.4z"
					/>
				<linearGradient id="SVGID_9_" gradientUnits="userSpaceOnUse" x1="299.1974" y1="290.2281" x2="379.2744" y2="287.4787">
					<stop  offset="0" style="stop-color:#F26A25"/>
					<stop  offset="1" style="stop-color:#FCD03C"/>
				</linearGradient>
				<path class="st7" d="M328.5,293.8l16.5-9.6c1.3-0.1,2.6-0.2,3.9-0.2l-16.5,9.6C331.1,293.6,329.8,293.6,328.5,293.8L328.5,293.8
					z"/>
				<linearGradient id="SVGID_10_" gradientUnits="userSpaceOnUse" x1="299.2028" y1="290.3355" x2="379.2782" y2="287.5861">
					<stop  offset="0" style="stop-color:#F26A25"/>
					<stop  offset="1" style="stop-color:#FCD03C"/>
				</linearGradient>
				<path class="st8" d="M332.4,293.6l16.5-9.6c1.2,0,2.4,0,3.7,0.1l-16.5,9.6C334.8,293.6,333.6,293.6,332.4,293.6L332.4,293.6z"/>
				<linearGradient id="SVGID_11_" gradientUnits="userSpaceOnUse" x1="299.2146" y1="290.696" x2="379.291" y2="287.9466">
					<stop  offset="0" style="stop-color:#F26A25"/>
					<stop  offset="1" style="stop-color:#FCD03C"/>
				</linearGradient>
				<path class="st9" d="M336.1,293.7l16.5-9.6c1.1,0.1,2.3,0.2,3.5,0.4l-16.5,9.6C338.3,293.9,337.2,293.8,336.1,293.7L336.1,293.7
					z"/>
				<linearGradient id="SVGID_12_" gradientUnits="userSpaceOnUse" x1="299.2346" y1="291.2587" x2="379.3121" y2="288.5093">
					<stop  offset="0" style="stop-color:#F26A25"/>
					<stop  offset="1" style="stop-color:#FCD03C"/>
				</linearGradient>
				<path class="st10" d="M339.5,294.1l16.5-9.6c1.1,0.1,2.2,0.3,3.3,0.5l-16.5,9.6C341.7,294.4,340.6,294.2,339.5,294.1
					L339.5,294.1z"/>
				<linearGradient id="SVGID_13_" gradientUnits="userSpaceOnUse" x1="299.247" y1="291.7552" x2="379.3293" y2="289.0056">
					<stop  offset="0" style="stop-color:#F26A25"/>
					<stop  offset="1" style="stop-color:#FCD03C"/>
				</linearGradient>
				<path class="st11" d="M342.8,294.6l16.5-9.6c0.5,0.1,0.9,0.2,1.4,0.3l-16.5,9.6C343.7,294.8,343.3,294.7,342.8,294.6
					L342.8,294.6z"/>
			</g>
		</g>
		<g>
			<defs>
				<path id="SVGID_14_" d="M437.7,476.4l-16.5,9.6c13.8-8,22.3-25,22.4-49.3c0-2.1,0-4.3-0.2-6.5l16.5-9.6c0.1,2.2,0.2,4.3,0.2,6.5
					C460,451.4,451.5,468.4,437.7,476.4z"/>
			</defs>
			<linearGradient id="SVGID_15_" gradientUnits="userSpaceOnUse" x1="456.8928" y1="464.3444" x2="339.3523" y2="384.9531">
				<stop  offset="0" style="stop-color:#F26A25"/>
				<stop  offset="1" style="stop-color:#FCD03C"/>
			</linearGradient>
			<use xlink:href="#SVGID_14_"  style="overflow:visible;fill:url(#SVGID_15_);"/>
			<clipPath id="SVGID_16_">
				<use xlink:href="#SVGID_14_"  style="overflow:visible;"/>
			</clipPath>
			<g class="st12">
				<linearGradient id="SVGID_17_" gradientUnits="userSpaceOnUse" x1="472.6795" y1="440.9708" x2="355.1411" y2="361.5808">
					<stop  offset="0" style="stop-color:#F26A25"/>
					<stop  offset="1" style="stop-color:#FCD03C"/>
				</linearGradient>
				<path class="st13" d="M443.5,430.2l16.5-9.6c0.1,0.9,0.1,1.8,0.1,2.8l-16.5,9.6C443.5,432.1,443.5,431.2,443.5,430.2
					L443.5,430.2z"/>
				<linearGradient id="SVGID_18_" gradientUnits="userSpaceOnUse" x1="471.1537" y1="443.2311" x2="353.6134" y2="363.8398">
					<stop  offset="0" style="stop-color:#F26A25"/>
					<stop  offset="1" style="stop-color:#FCD03C"/>
				</linearGradient>
				<path class="st14" d="M443.6,433l16.5-9.6c0,1.2,0.1,2.5,0,3.7c0,0.1,0,0.1,0,0.2l-16.5,9.6c0-0.1,0-0.1,0-0.2
					C443.6,435.5,443.6,434.2,443.6,433L443.6,433z"/>
				<linearGradient id="SVGID_19_" gradientUnits="userSpaceOnUse" x1="469.373" y1="445.869" x2="351.8264" y2="366.4735">
					<stop  offset="0" style="stop-color:#F26A25"/>
					<stop  offset="1" style="stop-color:#FCD03C"/>
				</linearGradient>
				<path class="st15" d="M443.6,436.9l16.5-9.6c0,1.3,0,2.5-0.1,3.7l-16.5,9.6C443.6,439.4,443.6,438.2,443.6,436.9L443.6,436.9z"
					/>
				<linearGradient id="SVGID_20_" gradientUnits="userSpaceOnUse" x1="467.6237" y1="448.4601" x2="350.0793" y2="369.066">
					<stop  offset="0" style="stop-color:#F26A25"/>
					<stop  offset="1" style="stop-color:#FCD03C"/>
				</linearGradient>
				<path class="st16" d="M443.5,440.7l16.5-9.6c-0.1,1.2-0.1,2.4-0.2,3.6l-16.5,9.6C443.4,443.1,443.5,441.9,443.5,440.7
					L443.5,440.7z"/>
				<linearGradient id="SVGID_21_" gradientUnits="userSpaceOnUse" x1="465.8271" y1="451.113" x2="348.3005" y2="371.7311">
					<stop  offset="0" style="stop-color:#F26A25"/>
					<stop  offset="1" style="stop-color:#FCD03C"/>
				</linearGradient>
				<path class="st17" d="M443.3,444.3l16.5-9.6c-0.1,1.3-0.2,2.5-0.4,3.7l-16.5,9.6C443.1,446.8,443.2,445.5,443.3,444.3
					L443.3,444.3z"/>
				<linearGradient id="SVGID_22_" gradientUnits="userSpaceOnUse" x1="463.975" y1="453.8608" x2="346.4313" y2="374.4673">
					<stop  offset="0" style="stop-color:#F26A25"/>
					<stop  offset="1" style="stop-color:#FCD03C"/>
				</linearGradient>
				<path class="st18" d="M442.9,448l16.5-9.6c-0.2,1.2-0.3,2.5-0.5,3.7l-16.5,9.6C442.6,450.4,442.8,449.2,442.9,448L442.9,448z"/>
				<linearGradient id="SVGID_23_" gradientUnits="userSpaceOnUse" x1="462.0493" y1="456.7135" x2="344.5008" y2="377.3168">
					<stop  offset="0" style="stop-color:#F26A25"/>
					<stop  offset="1" style="stop-color:#FCD03C"/>
				</linearGradient>
				<path class="st19" d="M442.4,451.6l16.5-9.6c-0.2,1.3-0.5,2.5-0.8,3.8l-16.5,9.6C441.9,454.2,442.2,452.9,442.4,451.6
					L442.4,451.6z"/>
				<linearGradient id="SVGID_24_" gradientUnits="userSpaceOnUse" x1="459.9874" y1="459.7604" x2="342.4587" y2="380.377">
					<stop  offset="0" style="stop-color:#F26A25"/>
					<stop  offset="1" style="stop-color:#FCD03C"/>
				</linearGradient>
				<path class="st20" d="M441.6,455.4l16.5-9.6c-0.3,1.3-0.6,2.6-1,3.9l-16.5,9.6C441,458,441.3,456.7,441.6,455.4L441.6,455.4z"/>
				<linearGradient id="SVGID_25_" gradientUnits="userSpaceOnUse" x1="457.7717" y1="463.0441" x2="340.2253" y2="383.6487">
					<stop  offset="0" style="stop-color:#F26A25"/>
					<stop  offset="1" style="stop-color:#FCD03C"/>
				</linearGradient>
				<path class="st21" d="M440.6,459.3l16.5-9.6c-0.4,1.4-0.9,2.7-1.3,4l-16.5,9.6C439.7,462.1,440.2,460.7,440.6,459.3L440.6,459.3
					z"/>
				<linearGradient id="SVGID_26_" gradientUnits="userSpaceOnUse" x1="455.3212" y1="466.6689" x2="337.7929" y2="387.2858">
					<stop  offset="0" style="stop-color:#F26A25"/>
					<stop  offset="1" style="stop-color:#FCD03C"/>
				</linearGradient>
				<path class="st22" d="M439.3,463.4l16.5-9.6c-0.6,1.5-1.2,3-1.8,4.4l-16.5,9.6C438.1,466.3,438.7,464.9,439.3,463.4L439.3,463.4
					z"/>
				<linearGradient id="SVGID_27_" gradientUnits="userSpaceOnUse" x1="452.3501" y1="471.0707" x2="334.806" y2="391.6769">
					<stop  offset="0" style="stop-color:#F26A25"/>
					<stop  offset="1" style="stop-color:#FCD03C"/>
				</linearGradient>
				<path class="st23" d="M437.4,467.7l16.5-9.6c-0.9,1.9-1.8,3.6-2.9,5.3l-16.5,9.6C435.6,471.3,436.5,469.6,437.4,467.7
					L437.4,467.7z"/>
				<linearGradient id="SVGID_28_" gradientUnits="userSpaceOnUse" x1="445.5825" y1="481.0906" x2="328.0341" y2="401.694">
					<stop  offset="0" style="stop-color:#F26A25"/>
					<stop  offset="1" style="stop-color:#FCD03C"/>
				</linearGradient>
				<path class="st24" d="M434.5,473l16.5-9.6c-3.6,5.6-8,9.9-13.3,13l-16.5,9.6C426.5,482.9,431,478.6,434.5,473L434.5,473z"/>
			</g>
		</g>
		<g>
			<linearGradient id="SVGID_29_" gradientUnits="userSpaceOnUse" x1="379.9182" y1="385.9854" x2="601.5951" y2="528.6149">
				<stop  offset="0" style="stop-color:#F26A25"/>
				<stop  offset="1" style="stop-color:#FCD03C"/>
			</linearGradient>
			<polygon class="st25" points="366.8,394.4 383.3,384.8 459.9,420.7 443.5,430.2 			"/>
		</g>
		<g>
			<linearGradient id="SVGID_30_" gradientUnits="userSpaceOnUse" x1="434.5971" y1="449.2547" x2="269.6285" y2="322.435">
				<stop  offset="0" style="stop-color:#F26A25"/>
				<stop  offset="1" style="stop-color:#FCD03C"/>
			</linearGradient>
			<path class="st26" d="M344.2,294.9l22.6,99.5l76.6,35.9c0.1,2.2,0.2,4.3,0.2,6.5c-0.1,48.7-34.6,68.4-77,43.9
				c-42.4-24.5-76.7-83.8-76.6-132.6C290.1,308.4,312.9,288,344.2,294.9z"/>
		</g>
	</g>
	<g class="st27">
		<polygon class="st28" points="429.1,267.3 429.1,275.2 277.3,187.5 277.3,179.6 		"/>
	</g>
	<g>
		<g class="st29">
			<linearGradient id="SVGID_31_" gradientUnits="userSpaceOnUse" x1="604.6589" y1="666.2216" x2="635.811" y2="615.5994">
				<stop  offset="2.000000e-02" style="stop-color:#56144D"/>
				<stop  offset="1" style="stop-color:#5968B0"/>
			</linearGradient>
			<path class="st30" d="M557.1,549.1c12.7,7.3,10.7,54.3,20.5,60.7c3.1,1.8,5.3-1.8,7.7-5.2c2.5-3.4,5.2-6.6,9.3-4.3
				c0.9,0.5,1.9,1.3,2.9,2.5c9.2,10,9.4,40.8,17.7,45.6c1,0.6,2.2,0.8,3.5,0.5c11.9-2.7,8.7-58.7,20.3-52
				c12.8,7.9,6.9,62.4,18.1,68.9c0.7,0.4,1.4,0.6,2.1,0.6c14.1,0.7,12.7-12.2,18.2-11.6c0.4,0,0.8,0.2,1.2,0.4
				c5,2.9,6,20.4,17.5,30.9c10,9.1,17.7,18.1,19.1,29c-32.9-19.8-194.2-113.7-202.7-118.7c0.4-13.5,6.3-23.1,11.9-19.8
				c0.2,0.1,0.3,0.2,0.5,0.3c6.9,4.9,9.3,26.6,12.9,28.7c0.4,0.2,0.8,0.2,1.2,0c4.4-2.6,5-61,16.6-57.1
				C556.2,548.7,556.7,548.9,557.1,549.1z"/>
		</g>
		<g>
			<defs>
				<filter id="Adobe_OpacityMaskFilter" filterUnits="userSpaceOnUse" x="521.1" y="525.6" width="2.3" height="75.6">
					<feFlood  style="flood-color:white;flood-opacity:1" result="back"/>
					<feBlend  in="SourceGraphic" in2="back" mode="normal"/>
				</filter>
			</defs>
			<mask maskUnits="userSpaceOnUse" x="521.1" y="525.6" width="2.3" height="75.6" id="SVGID_32_">
				<g class="st31">
					<defs>
						<filter id="Adobe_OpacityMaskFilter_1_" filterUnits="userSpaceOnUse" x="521.1" y="525.6" width="2.3" height="75.6">
							<feFlood  style="flood-color:white;flood-opacity:1" result="back"/>
							<feBlend  in="SourceGraphic" in2="back" mode="normal"/>
						</filter>
					</defs>
					<mask maskUnits="userSpaceOnUse" x="521.1" y="525.6" width="2.3" height="75.6" id="SVGID_32_">
						<g class="st32">
						</g>
					</mask>
					<linearGradient id="SVGID_33_" gradientUnits="userSpaceOnUse" x1="520.8741" y1="521.0259" x2="523.3273" y2="597.4243">
						<stop  offset="0" style="stop-color:#FFFFFF"/>
						<stop  offset="1" style="stop-color:#000000"/>
					</linearGradient>
					<polygon class="st33" points="523.4,526.8 523.2,601.3 521.1,600.1 521.3,525.6 					"/>
				</g>
			</mask>
			<linearGradient id="SVGID_34_" gradientUnits="userSpaceOnUse" x1="520.8741" y1="521.0259" x2="523.3273" y2="597.4243">
				<stop  offset="0" style="stop-color:#F7F5F7"/>
				<stop  offset="1" style="stop-color:#61C9DD"/>
			</linearGradient>
			<polygon class="st34" points="523.4,526.8 523.2,601.3 521.1,600.1 521.3,525.6 			"/>
		</g>
		<g>
			<defs>
				<filter id="Adobe_OpacityMaskFilter_2_" filterUnits="userSpaceOnUse" x="555.2" y="532.7" width="2.3" height="75.6">
					<feFlood  style="flood-color:white;flood-opacity:1" result="back"/>
					<feBlend  in="SourceGraphic" in2="back" mode="normal"/>
				</filter>
			</defs>
			<mask maskUnits="userSpaceOnUse" x="555.2" y="532.7" width="2.3" height="75.6" id="SVGID_35_">
				<g class="st35">
					<defs>
						<filter id="Adobe_OpacityMaskFilter_3_" filterUnits="userSpaceOnUse" x="555.2" y="532.7" width="2.3" height="75.6">
							<feFlood  style="flood-color:white;flood-opacity:1" result="back"/>
							<feBlend  in="SourceGraphic" in2="back" mode="normal"/>
						</filter>
					</defs>
					<mask maskUnits="userSpaceOnUse" x="555.2" y="532.7" width="2.3" height="75.6" id="SVGID_35_">
						<g class="st36">
						</g>
					</mask>
					<linearGradient id="SVGID_36_" gradientUnits="userSpaceOnUse" x1="554.9744" y1="528.0779" x2="557.4275" y2="604.4771">
						<stop  offset="0" style="stop-color:#FFFFFF"/>
						<stop  offset="1" style="stop-color:#000000"/>
					</linearGradient>
					<polygon class="st37" points="557.5,533.9 557.3,608.3 555.2,607.1 555.4,532.7 					"/>
				</g>
			</mask>
			<linearGradient id="SVGID_37_" gradientUnits="userSpaceOnUse" x1="554.9744" y1="528.0779" x2="557.4275" y2="604.4771">
				<stop  offset="0" style="stop-color:#F7F5F7"/>
				<stop  offset="1" style="stop-color:#61C9DD"/>
			</linearGradient>
			<polygon class="st38" points="557.5,533.9 557.3,608.3 555.2,607.1 555.4,532.7 			"/>
		</g>
		<g>
			<defs>
				<filter id="Adobe_OpacityMaskFilter_4_" filterUnits="userSpaceOnUse" x="591.6" y="561.9" width="2.3" height="75.6">
					<feFlood  style="flood-color:white;flood-opacity:1" result="back"/>
					<feBlend  in="SourceGraphic" in2="back" mode="normal"/>
				</filter>
			</defs>
			<mask maskUnits="userSpaceOnUse" x="591.6" y="561.9" width="2.3" height="75.6" id="SVGID_38_">
				<g class="st39">
					<defs>
						<filter id="Adobe_OpacityMaskFilter_5_" filterUnits="userSpaceOnUse" x="591.6" y="561.9" width="2.3" height="75.6">
							<feFlood  style="flood-color:white;flood-opacity:1" result="back"/>
							<feBlend  in="SourceGraphic" in2="back" mode="normal"/>
						</filter>
					</defs>
					<mask maskUnits="userSpaceOnUse" x="591.6" y="561.9" width="2.3" height="75.6" id="SVGID_38_">
						<g class="st40">
						</g>
					</mask>
					<linearGradient id="SVGID_39_" gradientUnits="userSpaceOnUse" x1="591.3915" y1="557.2828" x2="593.8446" y2="633.6827">
						<stop  offset="0" style="stop-color:#FFFFFF"/>
						<stop  offset="1" style="stop-color:#000000"/>
					</linearGradient>
					<polygon class="st41" points="593.9,563.1 593.7,637.5 591.6,636.3 591.8,561.9 					"/>
				</g>
			</mask>
			<linearGradient id="SVGID_40_" gradientUnits="userSpaceOnUse" x1="591.3915" y1="557.2828" x2="593.8446" y2="633.6827">
				<stop  offset="0" style="stop-color:#F7F5F7"/>
				<stop  offset="1" style="stop-color:#61C9DD"/>
			</linearGradient>
			<polygon class="st42" points="593.9,563.1 593.7,637.5 591.6,636.3 591.8,561.9 			"/>
		</g>
		<g>
			<defs>
				<filter id="Adobe_OpacityMaskFilter_6_" filterUnits="userSpaceOnUse" x="636.4" y="578.1" width="2.3" height="75.6">
					<feFlood  style="flood-color:white;flood-opacity:1" result="back"/>
					<feBlend  in="SourceGraphic" in2="back" mode="normal"/>
				</filter>
			</defs>
			<mask maskUnits="userSpaceOnUse" x="636.4" y="578.1" width="2.3" height="75.6" id="SVGID_41_">
				<g class="st43">
					<defs>
						<filter id="Adobe_OpacityMaskFilter_7_" filterUnits="userSpaceOnUse" x="636.4" y="578.1" width="2.3" height="75.6">
							<feFlood  style="flood-color:white;flood-opacity:1" result="back"/>
							<feBlend  in="SourceGraphic" in2="back" mode="normal"/>
						</filter>
					</defs>
					<mask maskUnits="userSpaceOnUse" x="636.4" y="578.1" width="2.3" height="75.6" id="SVGID_41_">
						<g class="st44">
						</g>
					</mask>
					<linearGradient id="SVGID_42_" gradientUnits="userSpaceOnUse" x1="636.1611" y1="573.4761" x2="638.6143" y2="649.876">
						<stop  offset="0" style="stop-color:#FFFFFF"/>
						<stop  offset="1" style="stop-color:#000000"/>
					</linearGradient>
					<polygon class="st45" points="638.7,579.3 638.5,653.7 636.4,652.5 636.6,578.1 					"/>
				</g>
			</mask>
			<linearGradient id="SVGID_43_" gradientUnits="userSpaceOnUse" x1="636.1611" y1="573.4761" x2="638.6143" y2="649.876">
				<stop  offset="0" style="stop-color:#F7F5F7"/>
				<stop  offset="1" style="stop-color:#61C9DD"/>
			</linearGradient>
			<polygon class="st46" points="638.7,579.3 638.5,653.7 636.4,652.5 636.6,578.1 			"/>
		</g>
		<g>
			<defs>
				<filter id="Adobe_OpacityMaskFilter_8_" filterUnits="userSpaceOnUse" x="677.3" y="611.7" width="2.3" height="75.6">
					<feFlood  style="flood-color:white;flood-opacity:1" result="back"/>
					<feBlend  in="SourceGraphic" in2="back" mode="normal"/>
				</filter>
			</defs>
			<mask maskUnits="userSpaceOnUse" x="677.3" y="611.7" width="2.3" height="75.6" id="SVGID_44_">
				<g class="st47">
					<defs>
						<filter id="Adobe_OpacityMaskFilter_9_" filterUnits="userSpaceOnUse" x="677.3" y="611.7" width="2.3" height="75.6">
							<feFlood  style="flood-color:white;flood-opacity:1" result="back"/>
							<feBlend  in="SourceGraphic" in2="back" mode="normal"/>
						</filter>
					</defs>
					<mask maskUnits="userSpaceOnUse" x="677.3" y="611.7" width="2.3" height="75.6" id="SVGID_44_">
						<g class="st48">
						</g>
					</mask>
					<linearGradient id="SVGID_45_" gradientUnits="userSpaceOnUse" x1="677.1349" y1="607.1116" x2="679.588" y2="683.5115">
						<stop  offset="0" style="stop-color:#FFFFFF"/>
						<stop  offset="1" style="stop-color:#000000"/>
					</linearGradient>
					<polygon class="st49" points="679.7,612.9 679.4,687.4 677.3,686.1 677.5,611.7 					"/>
				</g>
			</mask>
			<linearGradient id="SVGID_46_" gradientUnits="userSpaceOnUse" x1="677.1349" y1="607.1116" x2="679.588" y2="683.5115">
				<stop  offset="0" style="stop-color:#F7F5F7"/>
				<stop  offset="1" style="stop-color:#61C9DD"/>
			</linearGradient>
			<polygon class="st50" points="679.7,612.9 679.4,687.4 677.3,686.1 677.5,611.7 			"/>
		</g>
	</g>
	<g>
		<g class="st29">
			<linearGradient id="SVGID_47_" gradientUnits="userSpaceOnUse" x1="591.0519" y1="582.7847" x2="629.1083" y2="515.3211">
				<stop  offset="0" style="stop-color:#1E184E"/>
				<stop  offset="1" style="stop-color:#4386C6"/>
			</linearGradient>
			<path class="st51" d="M623.9,475.5c11.4,6.6,7.1,52.2,20.6,60c0.4,0.2,0.9,0.5,1.3,0.6c1.9,0.7,3.6,1.5,5.1,2.4
				c7.5,4.3,10.7,10.7,13.5,17.2c0.3,0.7,0.6,1.1,1,1.4c4.5,2.6,14.3-26.8,22.9-22.1c10.3,5.9,20,60.4,20.5,63.2L518.1,488
				c0.5-0.7,10.5-14.2,29.6-4.1c23.2,12.3,20.4-24.8,29.5-23.5c0.4,0.1,0.8,0.2,1.2,0.4c4,2.3,7.1,13.2,10.6,24.3
				c3.5,11.1,7.3,22.4,12.9,25.7c0.2,0.1,0.5,0.3,0.8,0.4C614.9,516.6,613.9,469.8,623.9,475.5z"/>
		</g>
		<g>
			<defs>
				<filter id="Adobe_OpacityMaskFilter_10_" filterUnits="userSpaceOnUse" x="530.9" y="429.2" width="2.1" height="67.2">
					<feFlood  style="flood-color:white;flood-opacity:1" result="back"/>
					<feBlend  in="SourceGraphic" in2="back" mode="normal"/>
				</filter>
			</defs>
			<mask maskUnits="userSpaceOnUse" x="530.9" y="429.2" width="2.1" height="67.2" id="SVGID_48_">
				<g class="st52">
					<defs>
						<filter id="Adobe_OpacityMaskFilter_11_" filterUnits="userSpaceOnUse" x="530.9" y="429.2" width="2.1" height="67.2">
							<feFlood  style="flood-color:white;flood-opacity:1" result="back"/>
							<feBlend  in="SourceGraphic" in2="back" mode="normal"/>
						</filter>
					</defs>
					<mask maskUnits="userSpaceOnUse" x="530.9" y="429.2" width="2.1" height="67.2" id="SVGID_48_">
						<g class="st53">
						</g>
					</mask>
					<linearGradient id="SVGID_49_" gradientUnits="userSpaceOnUse" x1="530.7123" y1="425.1195" x2="532.8919" y2="492.9974">
						<stop  offset="0" style="stop-color:#FFFFFF"/>
						<stop  offset="1" style="stop-color:#000000"/>
					</linearGradient>
					<polygon class="st54" points="533,430.3 532.8,496.4 530.9,495.3 531.1,429.2 					"/>
				</g>
			</mask>
			<linearGradient id="SVGID_50_" gradientUnits="userSpaceOnUse" x1="530.7123" y1="425.1195" x2="532.8919" y2="492.9974">
				<stop  offset="0" style="stop-color:#F7F5F7"/>
				<stop  offset="1" style="stop-color:#61C9DD"/>
			</linearGradient>
			<polygon class="st55" points="533,430.3 532.8,496.4 530.9,495.3 531.1,429.2 			"/>
		</g>
		<g>
			<defs>
				<filter id="Adobe_OpacityMaskFilter_12_" filterUnits="userSpaceOnUse" x="576.9" y="445.4" width="2.1" height="67.2">
					<feFlood  style="flood-color:white;flood-opacity:1" result="back"/>
					<feBlend  in="SourceGraphic" in2="back" mode="normal"/>
				</filter>
			</defs>
			<mask maskUnits="userSpaceOnUse" x="576.9" y="445.4" width="2.1" height="67.2" id="SVGID_51_">
				<g class="st56">
					<defs>
						<filter id="Adobe_OpacityMaskFilter_13_" filterUnits="userSpaceOnUse" x="576.9" y="445.4" width="2.1" height="67.2">
							<feFlood  style="flood-color:white;flood-opacity:1" result="back"/>
							<feBlend  in="SourceGraphic" in2="back" mode="normal"/>
						</filter>
					</defs>
					<mask maskUnits="userSpaceOnUse" x="576.9" y="445.4" width="2.1" height="67.2" id="SVGID_51_">
						<g class="st57">
						</g>
					</mask>
					<linearGradient id="SVGID_52_" gradientUnits="userSpaceOnUse" x1="576.6833" y1="441.3127" x2="578.8629" y2="509.1915">
						<stop  offset="0" style="stop-color:#FFFFFF"/>
						<stop  offset="1" style="stop-color:#000000"/>
					</linearGradient>
					<polygon class="st58" points="578.9,446.5 578.7,512.6 576.9,511.5 577.1,445.4 					"/>
				</g>
			</mask>
			<linearGradient id="SVGID_53_" gradientUnits="userSpaceOnUse" x1="576.6833" y1="441.3127" x2="578.8629" y2="509.1915">
				<stop  offset="0" style="stop-color:#F7F5F7"/>
				<stop  offset="1" style="stop-color:#61C9DD"/>
			</linearGradient>
			<polygon class="st59" points="578.9,446.5 578.7,512.6 576.9,511.5 577.1,445.4 			"/>
		</g>
		<g>
			<defs>
				<filter id="Adobe_OpacityMaskFilter_14_" filterUnits="userSpaceOnUse" x="622.4" y="464.5" width="2.1" height="67.2">
					<feFlood  style="flood-color:white;flood-opacity:1" result="back"/>
					<feBlend  in="SourceGraphic" in2="back" mode="normal"/>
				</filter>
			</defs>
			<mask maskUnits="userSpaceOnUse" x="622.4" y="464.5" width="2.1" height="67.2" id="SVGID_54_">
				<g class="st60">
					<defs>
						<filter id="Adobe_OpacityMaskFilter_15_" filterUnits="userSpaceOnUse" x="622.4" y="464.5" width="2.1" height="67.2">
							<feFlood  style="flood-color:white;flood-opacity:1" result="back"/>
							<feBlend  in="SourceGraphic" in2="back" mode="normal"/>
						</filter>
					</defs>
					<mask maskUnits="userSpaceOnUse" x="622.4" y="464.5" width="2.1" height="67.2" id="SVGID_54_">
						<g class="st61">
						</g>
					</mask>
					<linearGradient id="SVGID_55_" gradientUnits="userSpaceOnUse" x1="622.2257" y1="460.4224" x2="624.4052" y2="528.2996">
						<stop  offset="0" style="stop-color:#FFFFFF"/>
						<stop  offset="1" style="stop-color:#000000"/>
					</linearGradient>
					<polygon class="st62" points="624.5,465.6 624.3,531.7 622.4,530.6 622.6,464.5 					"/>
				</g>
			</mask>
			<linearGradient id="SVGID_56_" gradientUnits="userSpaceOnUse" x1="622.2257" y1="460.4224" x2="624.4052" y2="528.2996">
				<stop  offset="0" style="stop-color:#F7F5F7"/>
				<stop  offset="1" style="stop-color:#61C9DD"/>
			</linearGradient>
			<polygon class="st63" points="624.5,465.6 624.3,531.7 622.4,530.6 622.6,464.5 			"/>
		</g>
		<g>
			<defs>
				<filter id="Adobe_OpacityMaskFilter_16_" filterUnits="userSpaceOnUse" x="652.1" y="492" width="2.1" height="67.2">
					<feFlood  style="flood-color:white;flood-opacity:1" result="back"/>
					<feBlend  in="SourceGraphic" in2="back" mode="normal"/>
				</filter>
			</defs>
			<mask maskUnits="userSpaceOnUse" x="652.1" y="492" width="2.1" height="67.2" id="SVGID_57_">
				<g class="st64">
					<defs>
						<filter id="Adobe_OpacityMaskFilter_17_" filterUnits="userSpaceOnUse" x="652.1" y="492" width="2.1" height="67.2">
							<feFlood  style="flood-color:white;flood-opacity:1" result="back"/>
							<feBlend  in="SourceGraphic" in2="back" mode="normal"/>
						</filter>
					</defs>
					<mask maskUnits="userSpaceOnUse" x="652.1" y="492" width="2.1" height="67.2" id="SVGID_57_">
						<g class="st65">
						</g>
					</mask>
					<linearGradient id="SVGID_58_" gradientUnits="userSpaceOnUse" x1="651.9154" y1="487.9369" x2="654.095" y2="555.8149">
						<stop  offset="0" style="stop-color:#FFFFFF"/>
						<stop  offset="1" style="stop-color:#000000"/>
					</linearGradient>
					<polygon class="st66" points="654.2,493.1 654,559.2 652.1,558.2 652.3,492 					"/>
				</g>
			</mask>
			<linearGradient id="SVGID_59_" gradientUnits="userSpaceOnUse" x1="651.9154" y1="487.9369" x2="654.095" y2="555.8149">
				<stop  offset="0" style="stop-color:#F7F5F7"/>
				<stop  offset="1" style="stop-color:#61C9DD"/>
			</linearGradient>
			<polygon class="st67" points="654.2,493.1 654,559.2 652.1,558.2 652.3,492 			"/>
		</g>
		<g>
			<defs>
				<filter id="Adobe_OpacityMaskFilter_18_" filterUnits="userSpaceOnUse" x="686" y="498.1" width="2.1" height="67.2">
					<feFlood  style="flood-color:white;flood-opacity:1" result="back"/>
					<feBlend  in="SourceGraphic" in2="back" mode="normal"/>
				</filter>
			</defs>
			<mask maskUnits="userSpaceOnUse" x="686" y="498.1" width="2.1" height="67.2" id="SVGID_60_">
				<g class="st68">
					<defs>
						<filter id="Adobe_OpacityMaskFilter_19_" filterUnits="userSpaceOnUse" x="686" y="498.1" width="2.1" height="67.2">
							<feFlood  style="flood-color:white;flood-opacity:1" result="back"/>
							<feBlend  in="SourceGraphic" in2="back" mode="normal"/>
						</filter>
					</defs>
					<mask maskUnits="userSpaceOnUse" x="686" y="498.1" width="2.1" height="67.2" id="SVGID_60_">
						<g class="st69">
						</g>
					</mask>
					<linearGradient id="SVGID_61_" gradientUnits="userSpaceOnUse" x1="685.8638" y1="494.0227" x2="688.0433" y2="561.8998">
						<stop  offset="0" style="stop-color:#FFFFFF"/>
						<stop  offset="1" style="stop-color:#000000"/>
					</linearGradient>
					<polygon class="st70" points="688.1,499.2 687.9,565.3 686,564.2 686.2,498.1 					"/>
				</g>
			</mask>
			<linearGradient id="SVGID_62_" gradientUnits="userSpaceOnUse" x1="685.8638" y1="494.0227" x2="688.0433" y2="561.8998">
				<stop  offset="0" style="stop-color:#F7F5F7"/>
				<stop  offset="1" style="stop-color:#61C9DD"/>
			</linearGradient>
			<polygon class="st71" points="688.1,499.2 687.9,565.3 686,564.2 686.2,498.1 			"/>
		</g>
	</g>
	<g>
		<g class="st29">
			<linearGradient id="SVGID_63_" gradientUnits="userSpaceOnUse" x1="586.7278" y1="481.8593" x2="638.7139" y2="385.7339">
				<stop  offset="0" style="stop-color:#DD7926"/>
				<stop  offset="1" style="stop-color:#FCD03C"/>
			</linearGradient>
			<path class="st72" d="M599.5,353.1c10,5.8,15,51.5,21.5,59.4c0.2,0.2,0.4,0.4,0.6,0.5c1.5,0.9,4-0.5,7.3-1.3
				c3.3-0.9,7.5-1.2,12.4,1.6c2.5,1.4,5.2,3.7,8,7.1c12.1,14.6,10.5,29.8,20.6,35.6c5.8,3.3,10.8,4.9,15.6,7.6
				c3.6,2.1,7,4.8,10.6,9.5c8.3,11,14.7,19.4,15,19.8L511.2,380.6c1-1.7,19-34.4,34.3-25.6c13.8,8.5,20.4,37.7,27.6,41.9
				c1,0.6,2,0.7,3,0.2C584.6,393.2,588.9,347,599.5,353.1z"/>
		</g>
		<g>
			<defs>
				<filter id="Adobe_OpacityMaskFilter_20_" filterUnits="userSpaceOnUse" x="540.4" y="322.1" width="2.3" height="76.2">
					<feFlood  style="flood-color:white;flood-opacity:1" result="back"/>
					<feBlend  in="SourceGraphic" in2="back" mode="normal"/>
				</filter>
			</defs>
			<mask maskUnits="userSpaceOnUse" x="540.4" y="322.1" width="2.3" height="76.2" id="SVGID_64_">
				<g class="st73">
					<defs>
						<filter id="Adobe_OpacityMaskFilter_21_" filterUnits="userSpaceOnUse" x="540.4" y="322.1" width="2.3" height="76.2">
							<feFlood  style="flood-color:white;flood-opacity:1" result="back"/>
							<feBlend  in="SourceGraphic" in2="back" mode="normal"/>
						</filter>
					</defs>
					<mask maskUnits="userSpaceOnUse" x="540.4" y="322.1" width="2.3" height="76.2" id="SVGID_64_">
						<g class="st74">
						</g>
					</mask>
					<linearGradient id="SVGID_65_" gradientUnits="userSpaceOnUse" x1="540.1938" y1="317.4282" x2="542.6654" y2="394.4022">
						<stop  offset="0" style="stop-color:#FFFFFF"/>
						<stop  offset="1" style="stop-color:#000000"/>
					</linearGradient>
					<polygon class="st75" points="542.7,323.3 542.5,398.3 540.4,397.1 540.6,322.1 					"/>
				</g>
			</mask>
			<linearGradient id="SVGID_66_" gradientUnits="userSpaceOnUse" x1="540.1938" y1="317.4282" x2="542.6654" y2="394.4022">
				<stop  offset="0" style="stop-color:#F7F5F7"/>
				<stop  offset="1" style="stop-color:#61C9DD"/>
			</linearGradient>
			<polygon class="st76" points="542.7,323.3 542.5,398.3 540.4,397.1 540.6,322.1 			"/>
		</g>
		<g>
			<defs>
				<filter id="Adobe_OpacityMaskFilter_22_" filterUnits="userSpaceOnUse" x="597.4" y="322.1" width="2.3" height="76.2">
					<feFlood  style="flood-color:white;flood-opacity:1" result="back"/>
					<feBlend  in="SourceGraphic" in2="back" mode="normal"/>
				</filter>
			</defs>
			<mask maskUnits="userSpaceOnUse" x="597.4" y="322.1" width="2.3" height="76.2" id="SVGID_67_">
				<g class="st77">
					<defs>
						<filter id="Adobe_OpacityMaskFilter_23_" filterUnits="userSpaceOnUse" x="597.4" y="322.1" width="2.3" height="76.2">
							<feFlood  style="flood-color:white;flood-opacity:1" result="back"/>
							<feBlend  in="SourceGraphic" in2="back" mode="normal"/>
						</filter>
					</defs>
					<mask maskUnits="userSpaceOnUse" x="597.4" y="322.1" width="2.3" height="76.2" id="SVGID_67_">
						<g class="st78">
						</g>
					</mask>
					<linearGradient id="SVGID_68_" gradientUnits="userSpaceOnUse" x1="597.1778" y1="317.4282" x2="599.6494" y2="394.4023">
						<stop  offset="0" style="stop-color:#FFFFFF"/>
						<stop  offset="1" style="stop-color:#000000"/>
					</linearGradient>
					<polygon class="st79" points="599.7,323.3 599.5,398.3 597.4,397.1 597.6,322.1 					"/>
				</g>
			</mask>
			<linearGradient id="SVGID_69_" gradientUnits="userSpaceOnUse" x1="597.1778" y1="317.4282" x2="599.6494" y2="394.4023">
				<stop  offset="0" style="stop-color:#F7F5F7"/>
				<stop  offset="1" style="stop-color:#61C9DD"/>
			</linearGradient>
			<polygon class="st80" points="599.7,323.3 599.5,398.3 597.4,397.1 597.6,322.1 			"/>
		</g>
		<g>
			<defs>
				<filter id="Adobe_OpacityMaskFilter_24_" filterUnits="userSpaceOnUse" x="640.8" y="378.5" width="2.3" height="76.2">
					<feFlood  style="flood-color:white;flood-opacity:1" result="back"/>
					<feBlend  in="SourceGraphic" in2="back" mode="normal"/>
				</filter>
			</defs>
			<mask maskUnits="userSpaceOnUse" x="640.8" y="378.5" width="2.3" height="76.2" id="SVGID_70_">
				<g class="st81">
					<defs>
						<filter id="Adobe_OpacityMaskFilter_25_" filterUnits="userSpaceOnUse" x="640.8" y="378.5" width="2.3" height="76.2">
							<feFlood  style="flood-color:white;flood-opacity:1" result="back"/>
							<feBlend  in="SourceGraphic" in2="back" mode="normal"/>
						</filter>
					</defs>
					<mask maskUnits="userSpaceOnUse" x="640.8" y="378.5" width="2.3" height="76.2" id="SVGID_70_">
						<g class="st82">
						</g>
					</mask>
					<linearGradient id="SVGID_71_" gradientUnits="userSpaceOnUse" x1="640.6429" y1="373.8307" x2="643.1145" y2="450.8056">
						<stop  offset="0" style="stop-color:#FFFFFF"/>
						<stop  offset="1" style="stop-color:#000000"/>
					</linearGradient>
					<polygon class="st83" points="643.2,379.7 643,454.7 640.8,453.5 641.1,378.5 					"/>
				</g>
			</mask>
			<linearGradient id="SVGID_72_" gradientUnits="userSpaceOnUse" x1="640.6429" y1="373.8307" x2="643.1145" y2="450.8056">
				<stop  offset="0" style="stop-color:#F7F5F7"/>
				<stop  offset="1" style="stop-color:#61C9DD"/>
			</linearGradient>
			<polygon class="st84" points="643.2,379.7 643,454.7 640.8,453.5 641.1,378.5 			"/>
		</g>
		<g>
			<defs>
				<filter id="Adobe_OpacityMaskFilter_26_" filterUnits="userSpaceOnUse" x="691" y="407.2" width="2.3" height="76.2">
					<feFlood  style="flood-color:white;flood-opacity:1" result="back"/>
					<feBlend  in="SourceGraphic" in2="back" mode="normal"/>
				</filter>
			</defs>
			<mask maskUnits="userSpaceOnUse" x="691" y="407.2" width="2.3" height="76.2" id="SVGID_73_">
				<g class="st85">
					<defs>
						<filter id="Adobe_OpacityMaskFilter_27_" filterUnits="userSpaceOnUse" x="691" y="407.2" width="2.3" height="76.2">
							<feFlood  style="flood-color:white;flood-opacity:1" result="back"/>
							<feBlend  in="SourceGraphic" in2="back" mode="normal"/>
						</filter>
					</defs>
					<mask maskUnits="userSpaceOnUse" x="691" y="407.2" width="2.3" height="76.2" id="SVGID_73_">
						<g class="st86">
						</g>
					</mask>
					<linearGradient id="SVGID_74_" gradientUnits="userSpaceOnUse" x1="690.791" y1="402.5204" x2="693.2626" y2="479.4962">
						<stop  offset="0" style="stop-color:#FFFFFF"/>
						<stop  offset="1" style="stop-color:#000000"/>
					</linearGradient>
					<polygon class="st87" points="693.3,408.4 693.1,483.4 691,482.1 691.2,407.2 					"/>
				</g>
			</mask>
			<linearGradient id="SVGID_75_" gradientUnits="userSpaceOnUse" x1="690.791" y1="402.5204" x2="693.2626" y2="479.4962">
				<stop  offset="0" style="stop-color:#F7F5F7"/>
				<stop  offset="1" style="stop-color:#61C9DD"/>
			</linearGradient>
			<polygon class="st88" points="693.3,408.4 693.1,483.4 691,482.1 691.2,407.2 			"/>
		</g>
	</g>
</g>
</svg>
