<?xml version="1.0" encoding="utf-8"?>
<!-- Generator: Adobe Illustrator 21.1.0, SVG Export Plug-In . SVG Version: 6.00 Build 0)  -->
<svg version="1.1" id="Layer_1" xmlns="http://www.w3.org/2000/svg" xmlns:xlink="http://www.w3.org/1999/xlink" x="0px" y="0px"
	 viewBox="0 0 1007.2 841.9" style="enable-background:new 0 0 1007.2 841.9;" xml:space="preserve">
<style type="text/css">
	.st0{opacity:0.84;}
	.st1{fill:#FCD03C;}
	.st2{opacity:0.94;}
	.st3{fill:#F26A25;}
	.st4{fill:#F7F5F7;}
	.st5{fill:#848484;}
	.st6{clip-path:url(#SVGID_3_);}
	.st7{fill:#D7D6D6;}
	.st8{clip-path:url(#SVGID_9_);}
</style>
<g>
	<g class="st0">
		<path class="st1" d="M734.9,366.1c17.1,9.9,30.9,33.7,30.8,53.3l-0.8,280c-0.1,19.6-13.9,27.5-31,17.6L346,493.1
			c-17-9.8-30.9-33.7-30.8-53.3l0.8-280c0.1-19.6,13.9-27.5,31-17.6L734.9,366.1z"/>
	</g>
	<g class="st2">
		<path class="st3" d="M453.7,579.8c-1.3,1.8-2,4.3-2,7.5c0,3.1,0.7,6.5,2,9.8L279.4,496.4l0-17.2L453.7,579.8z"/>
		<polygon class="st4" points="677.7,709.1 677.6,726.4 533.7,643.3 545.5,650.1 545.6,632.9 		"/>
		<path class="st4" d="M466.7,578.6c5.6,3.2,10.4,9.5,13,16.2c1.3,3.3,2,6.6,2,9.8c0,3.1-0.8,5.7-2,7.4c-2.6,3.6-7.5,4.3-13,1.1
			c-5.5-3.2-10.4-9.5-13-16.1c-1.3-3.3-2-6.6-2-9.8c0-3.1,0.7-5.7,2-7.5C456.3,576.1,461.2,575.4,466.7,578.6z"/>
		<g>
			<polygon class="st3" points="473.1,403.5 511.5,451.3 472.9,454.6 			"/>
		</g>
		<path class="st4" d="M522.7,414c9.8,16.8,15.9,35.8,15.9,52.9c-0.1,33.7-24,47.3-53.3,30.4c-5.2-3-10.2-6.8-14.9-11.1
			c-22-20.2-38.1-52.9-38-80.7c0.1-33.8,24-47.4,53.3-30.4C500,383.4,513.1,397.7,522.7,414z M472.9,454.6l38.6-3.3l-38.5-47.8
			L472.9,454.6L472.9,454.6z"/>
		<path class="st5" d="M279.5,470.6l0.9-328.2l398.3,229.9L678,584.2c-14.2-32.8-102.8-226-107.4-236.2l-47.9,66
			c-9.6-16.3-22.7-30.6-37.1-38.9c-29.3-16.9-53.2-3.3-53.3,30.4c-0.1,27.8,16,60.5,38,80.7L456.6,505l-81.2-179.4L279.5,470.6z"/>
		<g>
			<defs>
				<path id="SVGID_1_" d="M279.5,470.6l0.9-328.2l398.3,229.9L678,584.2c-14.2-32.8-102.8-226-107.4-236.2l-47.9,66
					c-9.6-16.3-22.7-30.6-37.1-38.9c-29.3-16.9-53.2-3.3-53.3,30.4c-0.1,27.8,16,60.5,38,80.7L456.6,505l-81.2-179.4L279.5,470.6z"
					/>
			</defs>
			<linearGradient id="SVGID_2_" gradientUnits="userSpaceOnUse" x1="279.4534" y1="363.3246" x2="678.6344" y2="363.3246">
				<stop  offset="0" style="stop-color:#93C2E8"/>
				<stop  offset="1" style="stop-color:#4386C6"/>
			</linearGradient>
			<use xlink:href="#SVGID_1_"  style="overflow:visible;fill:url(#SVGID_2_);"/>
			<clipPath id="SVGID_3_">
				<use xlink:href="#SVGID_1_"  style="overflow:visible;"/>
			</clipPath>
			<g class="st6">
				<g>
					<defs>
						<polygon id="SVGID_4_" points="678,584.2 669.5,565.1 655.9,534.9 639,497.7 620.7,457.6 602.9,418.6 587.4,384.6 576,359.7 
							570.6,348 522.7,414 518.9,408 514.9,402.2 510.6,396.7 506,391.6 501.1,386.8 496.1,382.4 490.9,378.5 485.6,375.1 
							474.8,370.2 464.9,368 455.8,368.4 447.9,371.3 441.4,376.6 436.5,384.1 433.3,393.8 432.2,405.5 432.9,416.1 435,427 
							438.4,437.9 443,448.7 448.5,459.1 455,469 462.3,478.1 470.3,486.2 456.6,505 375.4,325.6 279.5,470.6 280.4,142.4 
							678.6,372.4 678,584.2 						"/>
					</defs>
					<linearGradient id="SVGID_5_" gradientUnits="userSpaceOnUse" x1="279.4534" y1="363.3246" x2="678.6344" y2="363.3246">
						<stop  offset="0" style="stop-color:#93C2E8"/>
						<stop  offset="1" style="stop-color:#4386C6"/>
					</linearGradient>
					<use xlink:href="#SVGID_4_"  style="overflow:visible;fill:url(#SVGID_5_);"/>
					<clipPath id="SVGID_6_">
						<use xlink:href="#SVGID_4_"  style="overflow:visible;"/>
					</clipPath>
				</g>
			</g>
		</g>
		<path class="st7" d="M545.6,632.9l-0.1,17.2l-11.8-6.8l-54-31.2c1.3-1.8,2-4.3,2-7.4c0-3.1-0.7-6.5-2-9.8L545.6,632.9z"/>
		<path class="st5" d="M522.7,414l47.9-66c4.7,10.2,93.2,203.4,107.4,236.2l-0.4,124.9l-132.1-76.3l-65.9-38
			c-2.6-6.7-7.4-13-13-16.2c-5.6-3.2-10.4-2.5-13,1.2L279.4,479.2l0-8.6l96-145L456.6,505l13.6-18.8c4.7,4.3,9.8,8.1,14.9,11.1
			c29.3,16.9,53.2,3.3,53.3-30.4C538.6,449.8,532.5,430.8,522.7,414z"/>
		<g>
			<defs>
				<path id="SVGID_7_" d="M522.7,414l47.9-66c4.7,10.2,93.2,203.4,107.4,236.2l-0.4,124.9l-132.1-76.3l-65.9-38
					c-2.6-6.7-7.4-13-13-16.2c-5.6-3.2-10.4-2.5-13,1.2L279.4,479.2l0-8.6l96-145L456.6,505l13.6-18.8c4.7,4.3,9.8,8.1,14.9,11.1
					c29.3,16.9,53.2,3.3,53.3-30.4C538.6,449.8,532.5,430.8,522.7,414z"/>
			</defs>
			<linearGradient id="SVGID_8_" gradientUnits="userSpaceOnUse" x1="279.4282" y1="517.3602" x2="678.0339" y2="517.3602">
				<stop  offset="2.000000e-02" style="stop-color:#56144D"/>
				<stop  offset="1" style="stop-color:#5968B0"/>
			</linearGradient>
			<use xlink:href="#SVGID_7_"  style="overflow:visible;fill:url(#SVGID_8_);"/>
			<clipPath id="SVGID_9_">
				<use xlink:href="#SVGID_7_"  style="overflow:visible;"/>
			</clipPath>
			<g class="st8">
				<g>
					<defs>
						<polygon id="SVGID_10_" points="677.7,709.1 545.6,632.9 479.7,594.8 478.7,592.4 477.4,589.9 476,587.6 474.4,585.4 
							472.6,583.4 470.7,581.6 468.8,580 466.7,578.6 464.7,577.6 462.7,577 460.8,576.6 459.1,576.6 457.5,577 456,577.6 
							454.8,578.6 453.7,579.8 279.4,479.2 279.5,470.6 375.4,325.6 456.6,505 470.3,486.2 472.1,487.8 473.9,489.4 475.7,490.8 
							477.6,492.3 479.5,493.6 481.4,494.9 483.3,496.2 485.2,497.3 495.9,502.3 505.9,504.5 515,504 522.8,501.1 529.4,495.8 
							534.3,488.3 537.4,478.6 538.5,466.9 538.3,460.4 537.5,453.8 536.1,447.1 534.3,440.3 532,433.6 529.3,427 526.2,420.4 
							522.7,414 570.6,348 576,359.7 587.4,384.6 602.9,418.6 620.7,457.6 639,497.7 655.9,534.9 669.5,565.1 678,584.2 
							677.7,709.1 						"/>
					</defs>
					<linearGradient id="SVGID_11_" gradientUnits="userSpaceOnUse" x1="279.4282" y1="517.3602" x2="678.0339" y2="517.3602">
						<stop  offset="2.000000e-02" style="stop-color:#56144D"/>
						<stop  offset="1" style="stop-color:#5968B0"/>
					</linearGradient>
					<use xlink:href="#SVGID_10_"  style="overflow:visible;fill:url(#SVGID_11_);"/>
					<clipPath id="SVGID_12_">
						<use xlink:href="#SVGID_10_"  style="overflow:visible;"/>
					</clipPath>
				</g>
			</g>
		</g>
	</g>
</g>
</svg>
