<?xml version="1.0" encoding="utf-8"?>
<!-- Generator: Adobe Illustrator 24.3.0, SVG Export Plug-In . SVG Version: 6.00 Build 0)  -->
<svg version="1.1" xmlns="http://www.w3.org/2000/svg" xmlns:xlink="http://www.w3.org/1999/xlink" x="0px" y="0px"
	 viewBox="0 0 1060 600" style="enable-background:new 0 0 1060 600;" xml:space="preserve">
<style type="text/css">
	.st0{fill:none;stroke:#9766FF;stroke-width:2;stroke-miterlimit:10;}
	.st1{fill:none;stroke:#9766FF;stroke-width:2.6175;stroke-miterlimit:10;}
	.st2{fill:none;stroke:#9766FF;stroke-width:3.235;stroke-miterlimit:10;}
	.st3{fill:none;stroke:#9766FF;stroke-width:3.8525;stroke-miterlimit:10;}
	.st4{clip-path:url(#SVGID_2_);fill:url(#SVGID_3_);}
	.st5{clip-path:url(#SVGID_2_);fill:url(#SVGID_4_);}
	.st6{clip-path:url(#SVGID_2_);fill:url(#SVGID_5_);}
	.st7{clip-path:url(#SVGID_2_);fill:url(#SVGID_6_);}
	.st8{clip-path:url(#SVGID_2_);}
	.st9{fill:url(#SVGID_7_);}
	.st10{fill:url(#SVGID_8_);}
	.st11{fill:url(#SVGID_9_);}
	.st12{fill:url(#SVGID_10_);}
	.st13{clip-path:url(#SVGID_2_);fill:url(#SVGID_11_);}
	.st14{opacity:0.54;fill:url(#SVGID_12_);}
	.st15{fill:url(#SVGID_13_);}
	.st16{fill:url(#SVGID_14_);}
	.st17{fill:url(#SVGID_15_);}
	.st18{fill:#004AC7;}
	.st19{fill:#B517B1;}
	.st20{fill:#9B6404;}
</style>
<g id="Layer_1">
	<g>
		<circle class="st0" cx="1216.9" cy="218" r="39.2"/>
		<circle class="st1" cx="1216.9" cy="218" r="76.5"/>
		<circle class="st2" cx="1216.9" cy="218" r="113.8"/>
		<circle class="st3" cx="1216.9" cy="218" r="151.1"/>
	</g>
	<g>
		<defs>
			<rect id="SVGID_1_" width="1060" height="600"/>
		</defs>
		<clipPath id="SVGID_2_">
			<use xlink:href="#SVGID_1_"  style="overflow:visible;"/>
		</clipPath>
		<radialGradient id="SVGID_3_" cx="86.7143" cy="85.5714" r="873.4628" gradientUnits="userSpaceOnUse">
			<stop  offset="0" style="stop-color:#004AC7"/>
			<stop  offset="0.1372" style="stop-color:#0437BB"/>
			<stop  offset="0.3907" style="stop-color:#0B19A7"/>
			<stop  offset="0.6083" style="stop-color:#0F079B"/>
			<stop  offset="0.7631" style="stop-color:#100097"/>
		</radialGradient>
		<rect class="st4" width="1060" height="600"/>
		<radialGradient id="SVGID_4_" cx="86.7143" cy="85.5714" r="873.4628" gradientUnits="userSpaceOnUse">
			<stop  offset="0" style="stop-color:#004AC7"/>
			<stop  offset="0.1372" style="stop-color:#0437BB"/>
			<stop  offset="0.3907" style="stop-color:#0B19A7"/>
			<stop  offset="0.6083" style="stop-color:#0F079B"/>
			<stop  offset="0.7631" style="stop-color:#100097"/>
		</radialGradient>
		<rect class="st5" width="1060" height="600"/>
		<radialGradient id="SVGID_5_" cx="824.7143" cy="178.1429" r="191.3426" gradientUnits="userSpaceOnUse">
			<stop  offset="0" style="stop-color:#3BC9B8"/>
			<stop  offset="7.548755e-02" style="stop-color:#34BDBA"/>
			<stop  offset="0.3922" style="stop-color:#1A8EC1"/>
			<stop  offset="0.5506" style="stop-color:#107CC4"/>
			<stop  offset="0.65" style="stop-color:#1280C3"/>
			<stop  offset="0.7544" style="stop-color:#198DC1"/>
			<stop  offset="0.861" style="stop-color:#25A2BE"/>
			<stop  offset="0.9686" style="stop-color:#35BFBA"/>
			<stop  offset="1" style="stop-color:#3BC9B8"/>
		</radialGradient>
		<circle class="st6" cx="827.3" cy="180.7" r="152.7"/>
		<radialGradient id="SVGID_6_" cx="825.7053" cy="455.1339" r="117.5999" gradientUnits="userSpaceOnUse">
			<stop  offset="0" style="stop-color:#3BC9B8"/>
			<stop  offset="7.548755e-02" style="stop-color:#34BDBA"/>
			<stop  offset="0.3922" style="stop-color:#1A8EC1"/>
			<stop  offset="0.5506" style="stop-color:#107CC4"/>
			<stop  offset="0.65" style="stop-color:#1280C3"/>
			<stop  offset="0.7544" style="stop-color:#198DC1"/>
			<stop  offset="0.861" style="stop-color:#25A2BE"/>
			<stop  offset="0.9686" style="stop-color:#35BFBA"/>
			<stop  offset="1" style="stop-color:#3BC9B8"/>
		</radialGradient>
		<circle class="st7" cx="827.3" cy="456.7" r="93.9"/>
		<g class="st8">
			
				<radialGradient id="SVGID_7_" cx="227.4408" cy="240.9086" r="107.9176" gradientTransform="matrix(0.4404 0.8978 0.8978 -0.4404 -292.6152 469.4751)" gradientUnits="userSpaceOnUse">
				<stop  offset="0" style="stop-color:#3BC9B8"/>
				<stop  offset="7.548755e-02" style="stop-color:#34BDBA"/>
				<stop  offset="0.3922" style="stop-color:#1A8EC1"/>
				<stop  offset="0.5506" style="stop-color:#107CC4"/>
				<stop  offset="0.65" style="stop-color:#1280C3"/>
				<stop  offset="0.7544" style="stop-color:#198DC1"/>
				<stop  offset="0.861" style="stop-color:#25A2BE"/>
				<stop  offset="0.9686" style="stop-color:#35BFBA"/>
				<stop  offset="1" style="stop-color:#3BC9B8"/>
			</radialGradient>
			<circle class="st9" cx="25.8" cy="568.2" r="86.1"/>
			
				<radialGradient id="SVGID_8_" cx="193.2172" cy="348.3994" r="71.401" gradientTransform="matrix(0.4404 0.8978 0.8978 -0.4404 -292.6152 469.4751)" gradientUnits="userSpaceOnUse">
				<stop  offset="0" style="stop-color:#3BC9B8"/>
				<stop  offset="7.548755e-02" style="stop-color:#34BDBA"/>
				<stop  offset="0.3922" style="stop-color:#1A8EC1"/>
				<stop  offset="0.5506" style="stop-color:#107CC4"/>
				<stop  offset="0.65" style="stop-color:#1280C3"/>
				<stop  offset="0.7544" style="stop-color:#198DC1"/>
				<stop  offset="0.861" style="stop-color:#25A2BE"/>
				<stop  offset="0.9686" style="stop-color:#35BFBA"/>
				<stop  offset="1" style="stop-color:#3BC9B8"/>
			</radialGradient>
			<circle class="st10" cx="106.6" cy="489.9" r="57"/>
		</g>
		<g class="st8">
			
				<radialGradient id="SVGID_9_" cx="-191.5874" cy="369.4811" r="107.9176" gradientTransform="matrix(0.82 -0.5724 0.5724 0.82 443.8175 -33.9373)" gradientUnits="userSpaceOnUse">
				<stop  offset="0" style="stop-color:#3BC9B8"/>
				<stop  offset="7.548755e-02" style="stop-color:#34BDBA"/>
				<stop  offset="0.3922" style="stop-color:#1A8EC1"/>
				<stop  offset="0.5506" style="stop-color:#107CC4"/>
				<stop  offset="0.65" style="stop-color:#1280C3"/>
				<stop  offset="0.7544" style="stop-color:#198DC1"/>
				<stop  offset="0.861" style="stop-color:#25A2BE"/>
				<stop  offset="0.9686" style="stop-color:#35BFBA"/>
				<stop  offset="1" style="stop-color:#3BC9B8"/>
			</radialGradient>
			<circle class="st11" cx="500.2" cy="379.1" r="86.1"/>
			
				<radialGradient id="SVGID_10_" cx="-225.811" cy="476.9719" r="71.401" gradientTransform="matrix(0.82 -0.5724 0.5724 0.82 443.8175 -33.9373)" gradientUnits="userSpaceOnUse">
				<stop  offset="0" style="stop-color:#3BC9B8"/>
				<stop  offset="7.548755e-02" style="stop-color:#34BDBA"/>
				<stop  offset="0.3922" style="stop-color:#1A8EC1"/>
				<stop  offset="0.5506" style="stop-color:#107CC4"/>
				<stop  offset="0.65" style="stop-color:#1280C3"/>
				<stop  offset="0.7544" style="stop-color:#198DC1"/>
				<stop  offset="0.861" style="stop-color:#25A2BE"/>
				<stop  offset="0.9686" style="stop-color:#35BFBA"/>
				<stop  offset="1" style="stop-color:#3BC9B8"/>
			</radialGradient>
			<circle class="st12" cx="533" cy="486.7" r="57"/>
		</g>
		<radialGradient id="SVGID_11_" cx="492.9052" cy="143.6195" r="102.7275" gradientUnits="userSpaceOnUse">
			<stop  offset="0" style="stop-color:#3BC9B8"/>
			<stop  offset="7.548755e-02" style="stop-color:#34BDBA"/>
			<stop  offset="0.3922" style="stop-color:#1A8EC1"/>
			<stop  offset="0.5506" style="stop-color:#107CC4"/>
			<stop  offset="0.65" style="stop-color:#1280C3"/>
			<stop  offset="0.7544" style="stop-color:#198DC1"/>
			<stop  offset="0.861" style="stop-color:#25A2BE"/>
			<stop  offset="0.9686" style="stop-color:#35BFBA"/>
			<stop  offset="1" style="stop-color:#3BC9B8"/>
		</radialGradient>
		<circle class="st13" cx="494.3" cy="145" r="82"/>
	</g>
	
		<radialGradient id="SVGID_12_" cx="86.7143" cy="85.5714" r="873.4628" gradientTransform="matrix(0.9262 0.3771 -0.3158 0.7757 33.424 -13.5036)" gradientUnits="userSpaceOnUse">
		<stop  offset="3.998359e-02" style="stop-color:#9766FF"/>
		<stop  offset="0.122" style="stop-color:#8458E7"/>
		<stop  offset="0.3221" style="stop-color:#5B39B2"/>
		<stop  offset="0.5091" style="stop-color:#3B2088"/>
		<stop  offset="0.6774" style="stop-color:#230F6A"/>
		<stop  offset="0.8211" style="stop-color:#150458"/>
		<stop  offset="0.9233" style="stop-color:#100051"/>
	</radialGradient>
	<rect class="st14" width="1060" height="600"/>
	<linearGradient id="SVGID_13_" gradientUnits="userSpaceOnUse" x1="171.9638" y1="369.0714" x2="504.3907" y2="369.0714">
		<stop  offset="0.3469" style="stop-color:#E0DBA4"/>
		<stop  offset="0.4706" style="stop-color:#E2BD8E"/>
		<stop  offset="0.7385" style="stop-color:#E57055"/>
		<stop  offset="0.9039" style="stop-color:#E83E30"/>
	</linearGradient>
	<path class="st15" d="M496.9,281.4c-2.7,1.6-5.4,3.1-8,4.6c-2.7-0.8-5.4-1.7-8.1,4.5c-1.8-3-3.7,0.5-4.8,2.6
		c-2.3,0.5-4.6,2.1-6.9,3.6c-0.9,3.9-2,2.1-3.2-1.1c0.8,15.9,1.6-2.3,2.3-1.7c2.6-1,2.6-6.6,1.4-7.2c-1.3,2.4-3.8-8.7-6.4-1.5
		c-3.9,5.1-8,2.5-12,8.4c-4.1,4.5-8.2,12.8-12.4,7.9c-0.3,12.8-2.7-15-6.2-4.7c-0.6-4.3-1.3-5.3-1.9,0.4c-0.5-6.1-1.6-5.7-3.1-1.9
		c-3.9-3.9-7.7-3.6-11.6,2.5c-1.9-2.4-3.9-0.7-5.8,0.1s-3.9,0.6-5.8-5.7c-3.9,3.5-7.7-1.2-11.6-2c-1.9,0.7-3.9,8.1-5.8-1.4
		c-1.9-2.8-3.9-0.5-5.8,0.4c-1.9,2-3.9-0.9-5.8-9.8c-1.9-3-3.9-7.8-5.8,2c-1.9,2-3.9,6.8-5.8,4.7c-1.9,1.5-3.9,6.4-5.8,0.3
		c-1.9,0.9-3.9-2.3-5.8-1.8c-1.9-8.3-3.9,8.6-5.8-3.2c-1.9-5.6-3.9-4.1-5.8-3c-1.9-6.4-3.9-2-5.8,5.5c-3.9,4.7-7.8,3.8-11.6-1.2
		c-3.9,2.9-7.8-10.2-11.7-1.2c-3.1-0.2-6.2-0.5-9.3-0.9c-3.1-4.2-6.2-3.5-9.3-0.9c-6.2-2.4-12.4,10.4-18.7-1.7
		c-6.2,0.1-12.4-4-18.7-1.6c-6.2-4.7-12.5,1.9-18.7-1.5c-6.2,7.3-12.5,3.4-18.7-1.3c-3.2-0.4-4.8,3.6-4.8,4.7c0,4.4,1.6,5.7,4.8,5.3
		c5.3,1.1,10.6-2.5,15.8,1.1c5.3-5.1,10.6,14.3,15.8,1.2c5.3,5.1,10.6-1.4,15.8,1.3c5.3-1.5,10.6-7.8,15.8,1.4
		c3.5-3.4,7,5.6,10.5,2.4c3.5-3.3,7,2.1,10.5-0.4c1.8-2.4,3.5,8.7,5.3-1.8c1.8-6.7,3.5-10.5,5.3,2.9c1.8-6,3.5,7.5,5.3,1.3
		c1.8,3.4,3.5,4.4,5.3-0.3c1.8,5.8,3.5-2.4,5.3,8.4c1.8,7.2,3.5-1.5,5.3-5.8c1.8-0.4,3.5,6.8,5.3,2.2c1.8,9.4,3.5,2.6,5.3-2.6
		c1.8-11.6,3.5-8.4,5.3-8.4c1.8,11.5,3.5-0.4,5.3,3c1.8-4.5,3.5-7.2,5.3,3.3c0.9,5.3,1.8,9.7,2.6,11.2c0.9-1.5,1.8-0.3,2.6-6.6
		c0.9,4.7,1.8,11.7,2.6,10.4c0.9-5.6,1.8-1.2,2.6-3.1c1.8-3.5,3.5-3,5.3-0.9c1.8-3.5,3.5-3.9,5.3-4.9c1.8,1.8,3.5-2.2,5.3,1
		c1.8,1.2,3.5,5.5,5.3,9.2c1.8,5.4,3.5,11.4,5.3,2.9c1.8-2,3.5-1.1,5.3-0.9c1.8,1.5,3.5,3.8,5.2-8.5c-2.6,10.8-5.2,1.7-7.8,8
		c-2.6,3.8-5.2,1-7.8-4.3c-2.6-0.9-5.2,9.7-7.8,5.9c-2.6-7.4-5.2,0.4-7.8-2.2c-1.3-9.1-2.6-10.6-3.9-10.4c-1.3,0.2-2.6,1.8-3.9,9.8
		c-1.3,1.4-2.6,20.7-3.9,9.4c-1.3-2.7-2.6,8.2-3.9-5.1c-1.6,5.6-2.6-9.9-3.1-3.3c-0.3,0.8-0.4-5.6-0.5-1.7c0-0.7,0,2.3,0.2,10.9
		c0.7-0.4,2.9,8.3,6,3.7c2.6,12.1,5.3,7.5,7.9-0.5c2.6,1.4,5.3,6.9,7.9-3.2c1.3,7,2.6-9.3,4-3.1c1.3-1.7,2.6,0.1,4,6.9
		c1.3,1.2,2.6,9,4,3.5c1.3-6.4,2.6-5.4,4-10.9c2.6-5.6,5.3-3.9,7.9-4.9c2.6-2.3,5.3,5.8,7.9,1.2c2.6-4,5.3,11.5,7.9,6.9
		c1.3-1.2,2.6,0.1,4-0.9c1.3-0.9,2.6-3.4,4-9.7c-1.4-9.4-2.8-3.4-4.2-4.3c-1.4,0.9-2.8,5.2-4.2,8.8c-1.4,0.8-2.8-6-4.2-5.8
		c-0.7-1.6-1.4-1.2-2.1,0.7c-0.7,1.9-1.4,5.5-2.1,9.2c-3.3-1.4-6.6,4.6-10,2.4c-1.7-3.3-3.3-2.2-5-3.3c-1.7,12.9-3.3-1.6-5,5.6
		c-1.4-8.5-2.9-11.2-4.3-5.9c-1.4-1-2.9,7.1-4.3,4.7c-2.9,5-5.7,0.1-8.6,4.8c-2.9,10.4-5.8,12.9-8.6,3.2c-2.9,8.2-5.8,3.3-8.7,0
		c-0.3-4.4-0.7-6.1-1.2-1.7c-0.4,1.2-0.9,14.5-1.4,1c-1.8,10.2-3.7,10.9-5.5,10.9c-1.8,10.1-3.7-1.4-5.5-3.5c-1.8,1-3.7,8-5.5,0.6
		c-1.8,0.5-3.7-12.1-5.5-8.4c-1.8-8.6-3.7-6.2-5.5-4.3c-1.8-0.3-3.7,5-5.5,4c-0.9-5.8-1.8-8.9-2.8-10s-1.8-0.3-2.8,1.7
		c-1.8-4.1-3.7,8.6-5.5,8.2c-3.7-6.2-7.3,2.5-11-0.2c-3.7,1.5-7.3,2.9-11-0.2c-3.7,6.1-7.3-1.1-11,3.2c-3.7-6-7.3,3.4-11-3.6
		c-3.7-6.5-7.3,6.2-11,0.1c-3.7,3.6-7.3-3.6-11-0.5c-5.5,1.5-11-4.7-16.5-0.3c-5.5-0.8-11-0.2-16.5-0.3c-11-0.2-22-0.4-33-0.5
		c-6.4-0.1-6.4,9.9,0,10c21.3,0.3,42.5,0.7,63.8,1c7.1,0.1,14.2,6.2,21.3,0.3c3.5,1.4,7.1,2.3,10.6,2.4c3.5,0.1,7.1-4.3,10.6-2.1
		c3.5-0.3,7.1,1.5,10.6,2.8c3.5,1.3,7.1,1.8,10.6-2.5c-1.2-2.5-1.5-2.2-1-0.3c0.6-0.1,2.1,7.2,4.5,8.5c2.3-8.3,4.6-0.9,6.8-1.5
		c2.3,3.2,4.6-7.7,6.8-0.1c2.3,14.1,4.6,6.9,6.8,2.7c1.1-2.7,2.3-0.3,3.4,2.7c1.1,4.6,2.3-5.6,3.4-7.2c1.1-4.7,2.3,1.2,3.4,5.3
		c1.1,5.8,2.3,9.8,3.4-4.7c2.3-2.6,4.5,1.2,6.8-2.7c-1.5-0.9-3,6.2-4.6,8.1c-0.8,5.3-1.5-1.2-2.3,0.3c-0.8-3-1.5-6.3-2.3-1.6
		c-1.5-6.1-3.1-5.1-4.6-3.4c-1.5,1.7-3.1,3.6-4.6,1c-1.5,1.9-3.1,16.9-4.6,5c-1.5-6-3.1-3.9-4.6-3.4c-3.1-0.6-6.2,6.9-9.3,1.6
		c-1.6-5.5-3.1-7.7-4.7-4c-1.6,0.6-3.1-1.5-4.7,5.2c-1.6,5.9-3.1,6.9-4.7,6.8c-1.6-0.3-3.1-0.3-4.7-5.8c-3.1,5.8-6.3-4.2-9.4,0.7
		c-3.1,5.6-6.3,2.7-9.4,0.5c-4.4-3.7-5.8,8.7-4.2,7.7c-3.8,0.5-7.6-0.7-11.4,1.3c-3.2,0.3-4.8,3-4.8,5.5c0,6.8,1.6,1.2,4.8,4.5
		c2.7-0.6,5.4,3,8.1-3.1c2.7-3.5,5.4-1.9,8.1,1.1c2.7-6,5.4-4.1,8.1,0.5c2.7,0.4,5.4,5,8.1-2.9c0.3,4.9,0.7-4.3,1.2,1
		c-2.6-3.9-5.1,1.5-7.7-2c-2.6-2.4-5.2,9.4-7.7,3.8c-2.6,3-5.2-2.3-7.7,2.2c-2.6-2.6-5.2,0.4-7.7-0.8c-2.6,3.5-5.1,4.9-7.7,0.6
		c-2.6,2.9-5.1,0.4-7.7,0.5c-3.2,0.2-4.8,2.8-4.8,5.3s1.6,0.7,4.8,4.7c1.7-0.8,3.3,1.2,5,2.4c1.7-0.4,3.4,2.6,5-3.1
		c3.4,3.4,6.7-6.4,10.1-0.8c3.4,5.3,6.8-2.1,10.2,0.9c3.4-3.9,6.8,15.1,10.2-3c1.7-7,3.4-8.1,5.1-7.6s3.4,2.8,5.1,2.6
		c3.4,2.3,6.7,3.7,10.1,2c3.4-3.2,6.7-5.8,10-2c0.8-3,1.7-10.7,2.5-8.8c0.8-10.3,1.7-1.6,2.5,1.2c1.6,11,3.3-2.4,4.9,5.3
		c3.3,1.7,6.5-3.7,9.7-2.2c3.2,8.8,6.4,2.7,9.6-3.9c2.8-5.5,5.6-3.1,8.4-2.3c1.4-1.2,2.8,8.2,4.2,8.6c1.4,4,2.8-0.2,4.2-7.2
		c1.4,12.8,2.8,3.7,4.2,2.9c1.4-0.4,2.8-5.2,4.2-5.1c0.7,4.5,1.4,3.3,2.1,3.6c0.7-4.1,1.4,3.1,2.1-9.1c1.4-1.1,2.8,6.2,4.1,6.2
		c1.4-4,2.7-9.9,4.1-7.8c1.4-2.2,2.7-8.1,4.1,5.5c2.7-9.6,5.4,9.6,8.1,0c2.7-1,5.4-0.1,8-2.8c2.7-0.8,5.3-4.2,7.9-0.8
		c-1,3.8-2,2.8-2.9,6.6c-1,0.5-2-0.4-3,3.9c-2,13.9-4-6.3-6.1,0.8c-2.1,3.2-4.2,9.5-6.3,6c-2.1-3.1-4.3,2.8-6.4,4.4
		c-1.1,1.3-2.2,9.1-3.3,9.9c-1.1,5.4-2.2,5.9-3.3-5c-1.1,16.2-2.2,1.1-3.4,2.2c-1.1-9.3-2.3-4.1-3.4,2.4c-0.1-0.2-0.2-5.4-0.3,0
		c0-6.4-1.1-11.8-3-7.4c-1.9-2.1-4.8,5.9-8.2,7.4c-3.5-3.2-7.6-1.8-12.1,2.8c-4.5-6.7-9.5,3.9-14.7-2.8c-5.2-2.7-10.6-12.8-16-4.6
		c-2.7,2.5-5.4,5.2-8.1,4.1c-2.7,0.4-5.3,6.7-7.9,0.5c-2.6-0.7-5.1-4.9-7.6-1.6c-2.5-2.2-4.8-4.1-7.1,1.6c-2.3,0-4.4,0.9-6.5,4.5
		c-2,2.1-3.9,3.2-5.6-4.5c-3.5,0.3-6.3,4.6-8.2-1.2c-1.9-2.2-3-3.3-3,1.2c-3.2,0.3-4.8-1.9-4.8,5c0,2.2,1.6-2,4.8,5
		c0-4,3.7-2.1,9.6,0c3-7.8,6.5,1.3,10.3,1.4c3.9,0.6,8.1,1.7,12.6-1.4c2.2,17,4.5-4.2,6.8-5.1c2.3-7.2,4.6-4.7,6.9,5.6
		c2.3,2.8,4.6,7.2,6.9,1.4c2.3,5.1,4.5,5.6,6.8-1.9c2.2-1.7,4.4-3,6.5-3.2c2.1-0.2,4.1,0.7,6.1,3.3c3.9-2.5,7.4,3.5,10.3-0.1
		c5.9,3.2,9.6-4,9.6,0c-2.9,0-5.9,3.5-8.8,8.5c-3,7.5-6,5.9-9,1.2c-3,3.2-6.1-3-9.1,4.4c-3.1,4.1-6.1,0.8-9.2,4.4
		c-3.1,6.5-6.2,14.1-9.3,7.6c-3.1-8.9-6.3-4-9.4,0.4c-3.1-4.4-6.3,8.7-9.5,3.7c-3.2,3.5-6.3-0.5-9.5,3.6c-3.2-12.7-6.4,5.6-9.6,2.4
		c-3.2-5-6.4-13.2-9.6,4.3c-2.7,14.1-5.3,9.8-8,5c-2.7-1.4-5.4-9.5-8,0.3c-2.7,14.1-5.4-6.9-8,2.6c-2.7,6.7-5.4,3.7-8.1,2.5
		c-2.7,2.5-5.4-2.8-8.1,2.5c-2.7,5.7-5.4,2.7-8.1,2.5c-3.1,4.6-3.9,3.8-3.3,6.2c0.7-0.1,2.9,0.6,5.9,3.4c3,7.6,6-5.1,9.1-2.8
		c3-2.7,6-14.2,9.1-2.8c3-0.4,6.1-14.8,9.1-2.8c3-6.4,6.1-3.7,9.1-2.9c3-1.7,6.1-3.9,9.1-5.5c3,5,6-0.4,9.1-0.5c3-10.5,6-8.1,9-3.3
		c3-1.9,6,2.2,9-3.1c3-10.3,6-8.5,8.9-1.3c3,1.5,5.9,2.6,8.9-5.6c2.9,3.2,5.9-2.9,8.8-1.7c2.9,5.3,5.8-3.9,8.7-5.9
		c1.7,0.7,3.5,3.1,5.2,0.4c1.7-0.9,3.4-2.7,5.2-5.3c3.4,1,6.8-4.7,10.2-5.1c3.4,0.1,6.7-3.6,10-6.5c3.3-2.2,6.6,0.1,9.8-4.7
		c3.2-4.9,6.5-10,9.6-11.5c3.2,6.2,6.3-1,9.4-1.1c2.2,9.4,4.4-8.9,6.5-4.8c2.1-9.2,4.3,0.2,6.3-5c2.1-0.9,4.2,0.4,6.2-5.2
		c2-5.7,4,1.9,6-5.4c2,9,3.9-4.7,5.8-3.5c1.9-0.8,3.8-11.9,5.6-7.9c-1.5,11.6,1.1,8.4,4.7,7.3c-1.4,1-2.6-0.5-3.8,5.1
		c-1.2,3.7-2.3,3-3.3,5.4c-1.5,9.6-0.2,9.1,2,6.8c2.2,1.3,5.1,1.1,6.6-1.7c2.1-3.8,4.7-7.2,7.5-10.3c2.8-3.2,5.9-6.1,9-9.1
		c3.2-2.2,6.3-3,9.4-9.5c3.1-6.3,6.1-6,9-9.8c1.4-1,2.8-0.7,4.2-4.8c1.4,6.2,2.8,8.1,4.1-4.9c0.8,1.6,2.1,9.1,4.1,2.2
		c2.9-1.1,4.5,2,4.8-4.2c0.3,0.6-0.6,5.2-2.9-5.5c3.2-13.8,6.2-8.9,9.2-12.3c3-7.2,5.9-8.4,8.7-12.6c1.7-2.5,0.7-4.9-1.2-6.3
		c2.3-1.3,4.7-2.7,7-4C507.5,286.8,502.5,278.2,496.9,281.4z M425,356.1c1.3,2.7,1.2,4.1,0.5-5.1c0.6-6.8,1.2-4.9,1.9-12.4
		c0.6-2.1,1.2-5.4,1.9-2.7c0.6,6.8,1.2-0.7,1.8,1.2s1.2,5.3,1.8,10.9c1.2-2.5,2.4-10.6,3.6-12c1.2-4.4,2.4-0.6,3.6,8.5
		c-1.2,7.5-2.4,7.2-3.6,6c-1.2-1.2-2.5-3.4-3.7,0.1C430.3,359.9,427.7,358.9,425,356.1z M464.7,312.2c-3.5,10.2-7.4,5.9-11.7,11.7
		c-2.1,9.4-4.4,12-6.7,12.2c-2.3,0.1-4.7-2.2-7.1-2.7c-2.4-10.2-4.9-2.9-7.4-6.3c-1.3,1.1-2.5,2.6-3.8,4.8c-1.3,2.7-2.6,9.3-3.9,8.9
		c-2.6-3.9-5.2-1-7.8,1.9c-1.3-0.3-2.6,3.8-3.9,7.2c-1.3-2-2.6,0.5-3.9-3.8c-1.1-4.3-2.1-9.7-3.2-7.8c-1.1-4.8-2.1,2.6-3.2,2.8
		c-1.1-10.8-2.1-7.6-3.2-0.3c-1.1,7.8-2.1,0.6-3.2,8.3c-2.2,8.5-4.3-8.1-6.5,3.4c-2.2-1.3-4.3,8.1-6.5-1.3c-2.2,0-4.3,2.5-6.5,0.5
		c-2.2,1.8-4.4,2.2-6.6,0.9c0.9,2.4,1.8,1.3,2.7-2.7c0.9-2.7,1.8-4.1,2.6,4.9c1.8-5.4,3.5-7.4,5.2-9c0.9,17.3,1.5,11.6,1.8-2.3
		c1.5-14.5,3,0.3,4.4-13.4c1.5-3.3,3-11.7,4.4-4.7c1.5-0.9,2.9,3.9,4.4,1.5c1.5-2.8,2.9,2,4.4,10.7c2.9-1.3,5.9-7.2,8.8-3.6
		c2.9,3.7,5.8-10.7,8.7-2.9c1.4,4.6,2.9,6.1,4.3-3.3c1.4-1.5,2.9-7.6,4.3-8.6c2.9-7.4,5.8-3.4,8.6,4.9c2.9-4.2,5.7-5.6,8.6-7.3
		s5.7-2.3,8.5-0.3c2.5-8.6,4.9,3.4,7.4-3.5c2.4,1.2,4.9-14.5,7.3-3.6C465.6,312,465.2,308.1,464.7,312.2z M482.3,303
		c0.4-2.3,0.8-1.3,1.2-2.6c0.3-2.3,0.6-7.6,0.9-0.5C483.8,298.8,483,299.1,482.3,303z"/>
	<g>
		<g>
			<radialGradient id="SVGID_14_" cx="590.7143" cy="213.2857" r="303.5266" gradientUnits="userSpaceOnUse">
				<stop  offset="0.4951" style="stop-color:#D666FF"/>
				<stop  offset="0.5792" style="stop-color:#A64DD5"/>
				<stop  offset="0.6842" style="stop-color:#7132A6"/>
				<stop  offset="0.7825" style="stop-color:#471C81"/>
				<stop  offset="0.8709" style="stop-color:#290D67"/>
				<stop  offset="0.9463" style="stop-color:#170357"/>
				<stop  offset="1" style="stop-color:#100051"/>
			</radialGradient>
			<path class="st16" d="M783.6,178.6c0,0-47.4-42.7-147.7,3.6c-86.3,39.8-154.4,69.7-176.3,124.4"/>
			<radialGradient id="SVGID_15_" cx="622.1684" cy="246.935" r="293.312" gradientUnits="userSpaceOnUse">
				<stop  offset="0" style="stop-color:#D654FF"/>
				<stop  offset="0.1972" style="stop-color:#D655FC"/>
				<stop  offset="0.3503" style="stop-color:#D559F2"/>
				<stop  offset="0.4886" style="stop-color:#D460E2"/>
				<stop  offset="0.618" style="stop-color:#D269CA"/>
				<stop  offset="0.7415" style="stop-color:#D075AC"/>
				<stop  offset="0.8603" style="stop-color:#CD8487"/>
				<stop  offset="0.9735" style="stop-color:#CA955C"/>
				<stop  offset="1" style="stop-color:#C99A51"/>
			</radialGradient>
			<path class="st17" d="M782.9,176.5c0,0-4.3,66.7-108.4,103.4c-89.7,31.6-159.3,50.6-213.1,26.6"/>
		</g>
		<circle class="st18" cx="716.7" cy="200" r="23.6"/>
		<polygon class="st19" points="527.7,235.6 459.6,212 378.6,278.9 470.5,286.2 		"/>
		<polygon class="st19" points="586.5,304.3 573.6,363.3 475.7,401.1 509.3,319.4 		"/>
	</g>
	<path class="st20" d="M355.4,346.7c-3.2,11.4-4.8,2.2-4.8,5c0-10.9,1.6,6.9,4.8,5c1.6-5.6,2.8-10.5,3.6-3.6c0.4,7.9,0.7-1,0.9,5.7
		c0.2-1.7,0.3-6.3,0.3-7.1C360.3,344.8,358.7,359.3,355.4,346.7z"/>
</g>
<g id="Layer_2">
</g>
</svg>
